<svg width="130" height="36" viewBox="0 0 130 36" fill="none" xmlns="http://www.w3.org/2000/svg">
<path d="M18.6877 7.0666C18.6877 7.6576 18.4545 8.08443 18.0548 8.34709C17.5884 8.67542 17.1553 8.93809 16.7556 9.20075C16.3226 9.46342 16.0561 9.56191 15.9894 9.56191C15.7896 9.56191 15.4565 9.46342 15.0234 9.26642C12.4251 10.7767 9.36049 13.2392 5.82948 16.6538C8.06134 20.0028 10.3931 22.4325 12.8582 23.9756C13.058 23.9756 13.2246 23.9428 13.3912 23.9428C13.7243 23.9428 14.4238 24.4681 15.4898 25.5188C16.5557 26.5366 17.0887 27.2261 17.0887 27.5544C17.0887 27.8171 16.9888 28.0469 16.8222 28.2767C16.6224 28.4737 16.4225 28.6051 16.2226 28.6051C15.6896 28.5066 15.0567 28.2111 14.3239 27.7186C13.7243 27.2917 13.158 26.8978 12.6583 26.5366C9.72691 24.4681 6.99538 21.6773 4.39709 18.1642C3.59762 18.9522 2.89809 19.379 2.23186 19.4118C2.0653 21.2505 1.99868 22.7608 1.99868 23.9756C1.99868 25.1904 2.03199 26.2739 2.09862 27.2261C2.16524 28.1454 2.19855 28.6379 2.19855 28.6707C2.19855 28.9006 2.09862 29.1304 1.93206 29.3274C1.73219 29.5244 1.49901 29.6229 1.29914 29.6229C0.699539 29.6229 0.333114 29.1961 0.199868 28.3424C0.0666227 27.6857 0 27.2917 0 27.2261V24.9934C0 23.0235 0.0999337 21.0535 0.333114 19.1492C0.699539 16.1285 1.29914 13.0094 2.09862 9.72608C2.9314 6.37711 3.8308 3.5863 4.76352 1.38649C4.9967 0.795498 5.2965 0.5 5.69624 0.5C6.36246 0.5 6.69558 0.795498 6.69558 1.35366C6.69558 1.64915 6.39577 2.56848 5.86279 4.0788C4.39709 8.11726 3.29782 12.3856 2.49835 16.8837L6.56233 13.075C7.9281 11.7617 9.6936 10.3499 11.8921 8.80676C14.6237 6.93527 16.5557 5.98311 17.6217 5.98311C17.8882 5.98311 18.1214 6.11445 18.3546 6.31145C18.5544 6.57411 18.6877 6.80394 18.6877 7.0666ZM28.1778 4.76829C28.1778 6.01595 27.8113 6.67261 27.0785 6.73827C25.7793 6.50844 25.1464 5.81895 25.1464 4.66979C25.1464 4.4728 25.1131 4.2758 25.1131 4.04597C25.1797 3.32364 25.6461 2.83115 26.5122 2.53565C27.6115 2.66698 28.1778 3.38931 28.1778 4.76829ZM26.3789 17.1463C26.2124 17.803 26.0125 18.5253 25.7793 19.379C25.0132 22.4653 24.6468 24.8621 24.6468 26.5694C25.0798 27.0291 25.313 27.5544 25.313 28.0797C25.313 28.5394 25.0798 28.7692 24.6801 28.7692C24.1471 28.7692 23.6807 28.3424 23.2477 27.5216C22.9146 26.8649 22.748 26.0441 22.748 24.9934C22.748 24.1398 23.1811 21.4803 24.1138 16.9493C24.0471 16.5553 24.0138 16.2927 24.0138 16.1942C24.0138 15.8987 24.1804 15.636 24.5135 15.439C25.746 15.5047 26.3789 16.0957 26.3789 17.1463ZM45.8204 27.6529C45.8204 28.5066 44.7878 28.9662 42.7891 28.9662C40.1908 28.9662 38.3254 27.7514 37.1928 25.3218C36.9263 25.3874 36.5932 25.4203 36.2601 25.4203C35.0942 25.4203 34.1613 25.2233 33.4951 24.7964C32.6623 24.3368 32.2626 23.8443 32.2626 23.319C32.2626 22.5966 32.5957 22.2355 33.2619 22.2355C33.3618 22.2355 33.695 22.4325 34.2613 22.8265C34.8275 23.1876 35.394 23.3518 35.9603 23.3518C36.1601 23.3518 36.3933 23.3518 36.5932 23.319C36.4933 22.7936 36.4599 22.3011 36.4599 21.8086C36.4599 20.2326 36.8597 18.6895 37.6591 17.212C38.5586 15.5375 39.6911 14.6839 41.0569 14.6839C41.8897 14.6839 42.7225 15.1435 43.5886 15.9972C44.1882 16.6538 44.5213 17.409 44.5213 18.2627C44.5213 19.576 43.955 20.8236 42.8557 22.0713C41.8564 23.2204 40.6239 24.1069 39.1582 24.7308C39.8244 26.1098 40.857 26.7992 42.3227 26.7992C42.6225 26.7992 43.0889 26.7664 43.7218 26.6351C44.3214 26.5694 44.6879 26.5366 44.8544 26.5366C45.1209 26.5366 45.3208 26.6679 45.5206 26.8977C45.7205 27.1604 45.8204 27.3902 45.8204 27.6529ZM42.5559 18.4268C42.5559 18.0328 42.3561 17.6717 42.0229 17.3433C41.6565 17.0478 41.2901 16.8837 40.9237 16.8837C40.2574 16.8837 39.6911 17.409 39.2248 18.394C38.7584 19.379 38.5252 20.4296 38.5252 21.4803C38.5252 21.8743 38.5586 22.334 38.6252 22.7936C39.6911 22.334 40.6239 21.7101 41.39 20.8893C42.1562 20.1341 42.5559 19.3133 42.5559 18.4268ZM65.0783 25.6829C65.0783 26.2083 64.6785 26.6023 63.9124 26.9306C62.9796 27.3246 61.7804 27.6529 60.2481 27.9812C58.6825 28.3096 57.45 28.4737 56.5506 28.4737C55.4513 28.4737 54.5186 28.2767 53.7857 27.9484C52.7864 27.4887 52.32 26.8321 52.32 25.9128C52.32 23.8771 54.7517 21.0206 59.6485 17.3433C58.7824 17.1463 57.9496 17.0478 57.0835 17.0478C56.0509 17.0478 54.2854 17.2777 51.7537 17.7045C51.0875 17.8358 50.6544 17.9015 50.5212 17.9015C49.9216 17.9015 49.6218 17.5732 49.6218 16.8837C49.6218 16.3255 49.8883 15.9644 50.4879 15.8002C52.5199 15.2092 54.6518 14.8809 56.917 14.8809C58.0829 14.8809 59.1822 15.045 60.1815 15.3077C61.5806 15.7017 62.2801 16.2599 62.2801 17.015C62.2801 17.5075 61.7804 18.1313 60.8144 18.9193C58.8157 20.4953 57.45 21.5788 56.7504 22.2026C55.1182 23.6801 54.3187 24.7636 54.3187 25.4531C54.3187 26.0769 54.9183 26.3724 56.1841 26.3724C57.0169 26.3724 58.1828 26.2411 59.6485 25.9784C61.2475 25.7158 62.38 25.3874 63.013 25.0591C63.6126 24.7308 63.9457 24.5666 64.0456 24.5666C64.7118 24.5666 65.0783 24.9606 65.0783 25.6829ZM80.2987 5.22796C80.2321 6.21295 79.6658 6.77111 78.5999 6.83677C77.7671 6.70544 77.334 6.24578 77.2674 5.39212C77.0676 5.09662 76.9343 4.76829 76.901 4.43996C76.901 3.52064 77.4007 3.02814 78.4 3.02814C78.7664 3.09381 79.1662 3.35647 79.5992 3.8818C79.9989 4.40713 80.2321 4.83396 80.2987 5.22796ZM77.7005 15.6689C77.6338 20.4625 77.2008 24.4024 76.4346 27.5216C75.1022 32.8405 72.837 35.5 69.6391 35.5C67.5738 35.5 66.5412 34.0225 66.5412 31.1004C66.5412 29.6229 66.841 28.2439 67.4072 26.9306C67.7737 26.0769 68.1734 25.6173 68.6398 25.6173C69.3393 25.6173 69.7057 25.9784 69.7057 26.7007C69.7057 26.9306 69.5725 27.2917 69.3726 27.8171C68.773 29.1304 68.5065 30.2795 68.5065 31.2645C68.5065 32.5779 68.9396 33.2674 69.8723 33.2674C71.0382 33.2674 72.0708 32.4794 72.9702 30.9362C73.9363 29.1632 74.6691 26.5694 75.1688 23.0235C75.4686 20.5938 75.6352 18.0985 75.6352 15.6032C75.6352 14.8809 75.9683 14.5197 76.6678 14.5197C77.2674 14.5197 77.6338 14.9137 77.7005 15.6689ZM96.4113 20.2326C96.4113 20.364 96.3447 20.561 96.278 20.8236C95.7784 22.2026 95.5452 23.6801 95.5452 25.1904C95.5452 25.7486 95.5785 26.3068 95.7117 26.8321C95.9116 27.8171 96.0449 28.3096 96.0449 28.3752C96.0449 28.9991 95.6784 29.3274 94.9789 29.3274C94.3127 29.3274 93.9462 28.7692 93.8463 27.7186C93.7797 27.1604 93.6797 26.2739 93.5465 25.0591C91.7144 27.2261 89.9489 28.3096 88.25 28.3096C87.3506 28.3096 86.5844 27.9156 85.9515 27.0619C85.3186 26.3396 85.0188 25.4859 85.0188 24.5338C85.0188 23.0235 85.685 21.4475 87.0841 19.7402C87.3506 19.4118 87.8503 18.8865 88.5498 18.2298C90.7483 16.2599 92.5805 15.2749 94.1128 15.2749C94.4459 15.2749 94.8123 15.439 95.1788 15.7017C95.5119 15.9972 95.7117 16.3255 95.7117 16.6867C95.7117 16.7523 95.6784 16.9165 95.6118 17.1463C95.8783 17.803 96.0115 18.5582 96.0115 19.379C96.278 19.7073 96.4113 20.0028 96.4113 20.2326ZM94.0795 19.3133C94.0795 18.1642 93.7797 17.5732 93.2467 17.5732C92.8136 17.5732 92.1141 17.9343 91.1814 18.6238C90.3153 19.2477 89.6158 19.8715 89.0828 20.4953C87.6837 22.0385 87.0175 23.3518 87.0175 24.4353C87.0175 25.5844 87.4505 26.1426 88.3832 26.1426C89.6491 26.1426 90.8816 25.3874 92.1474 23.8114C93.4133 22.2355 94.0795 20.758 94.0795 19.3133ZM112.945 17.803C112.945 18.2627 112.678 18.9193 112.212 19.773C112.046 20.0356 111.912 21.1848 111.812 23.1548C111.646 26.2739 110.98 28.7364 109.78 30.6407C108.581 32.545 106.782 33.9568 104.451 34.9418C103.518 35.303 102.618 35.5 101.719 35.5C100.986 35.5 100.62 35.1388 100.62 34.4165C100.62 34.0882 100.786 33.7598 101.119 33.4644C101.453 33.136 101.786 33.0047 102.119 33.0047C102.185 33.0047 102.452 33.0704 102.885 33.2017C107.149 32.151 109.414 29.1304 109.747 24.1398C108.448 25.4203 107.082 26.0441 105.616 26.0441C104.584 26.0441 103.784 25.6829 103.185 24.8949C102.585 24.1726 102.319 23.2205 102.319 22.0385C102.319 20.0028 102.985 18.1313 104.384 16.3583C105.85 14.454 107.648 13.469 109.78 13.469C111.612 13.469 112.579 14.6839 112.645 17.1135C112.845 17.2777 112.945 17.5075 112.945 17.803ZM110.613 17.9343C110.547 17.2777 110.38 16.7523 110.113 16.3583C109.814 15.9972 109.481 15.8002 109.081 15.8002C107.848 15.8002 106.749 16.4897 105.783 17.803C104.784 19.182 104.317 20.561 104.317 22.0056C104.317 22.5966 104.451 23.0891 104.717 23.4831C104.984 23.9099 105.383 24.1069 105.85 24.1069C108.181 24.1069 109.647 22.334 110.213 18.788C110.247 18.394 110.38 18.1313 110.613 17.9343ZM130 4.4728C130 4.73546 129.9 5.52345 129.7 6.86961C129.434 8.31426 129.3 9.39775 129.267 10.1201C129.201 10.4484 129.201 10.9081 129.201 11.4991C129.201 12.2214 129.001 12.8452 128.601 13.3377C128.301 17.0478 128.168 19.5103 128.168 20.6923C128.168 23.6801 128.434 26.5366 128.967 29.2946C129.101 29.9841 129.167 30.5094 129.167 30.9034C129.167 31.1332 129.067 31.3302 128.867 31.5272C128.634 31.7242 128.401 31.8555 128.201 31.8555C127.668 31.8555 127.335 31.363 127.202 30.4437C126.869 28.6051 126.636 26.6679 126.502 24.5666C125.969 25.6501 125.236 26.6023 124.37 27.4231C123.304 28.4409 122.272 28.9662 121.272 28.9662C120.173 28.9662 119.34 28.6051 118.774 27.9484C118.174 27.2917 117.908 26.4053 117.908 25.2889C117.908 23.5159 118.674 21.5788 120.206 19.4447C121.739 17.3433 123.105 16.2599 124.37 16.2599C125.037 16.2599 125.736 16.6867 126.469 17.4747C126.902 11.4334 127.502 7.03377 128.234 4.30863C128.368 3.7833 128.668 3.4878 129.134 3.4878C129.7 3.4878 130 3.81614 130 4.4728ZM126.302 20.6266C125.536 20.167 125.037 19.4775 124.77 18.5253C124.504 18.4925 124.37 18.4597 124.304 18.4597C123.538 18.4597 122.572 19.2805 121.439 20.8893C120.24 22.5638 119.673 24.0084 119.673 25.2233C119.673 26.3068 120.073 26.8321 120.939 26.8321C122.039 26.8321 123.138 26.1754 124.204 24.8621C125.17 23.6801 125.869 22.2683 126.302 20.6266Z" fill="#355B4C"/>
</svg>
