<?xml version="1.0" encoding="UTF-8"?>
<svg version="1.1" xmlns="http://www.w3.org/2000/svg" width="156" height="227">
<path d="M0 0 C2.48811014 9.99687109 2.48811014 9.99687109 2 15 C1.34 15.66 0.68 16.32 0 17 C0.50789063 17.32871094 1.01578125 17.65742187 1.5390625 17.99609375 C8.41555893 22.74783004 12.26479966 28.36218669 15.8359375 35.828125 C17.92005719 40.04256893 20.51956857 43.65506209 23.375 47.375 C27.18396675 52.43591797 30.68968118 57.50467235 33.78125 63.046875 C34.92406107 65.0587909 34.92406107 65.0587909 36.65625 66.578125 C38 68 38 68 38 71 C36.0848421 71.81604999 34.16781166 72.62770632 32.25 73.4375 C31.18265625 73.88996094 30.1153125 74.34242187 29.015625 74.80859375 C26.6586159 75.73979553 24.47007165 76.4784072 22 77 C26.32070925 79.02794579 30.65469726 81.02539036 35 83 C36.68029297 83.76570313 36.68029297 83.76570313 38.39453125 84.546875 C39.43996094 85.00578125 40.48539062 85.4646875 41.5625 85.9375 C42.98755859 86.56978516 42.98755859 86.56978516 44.44140625 87.21484375 C49.3132317 88.70986194 52.66265479 86.26724863 57 84 C57.33 85.32 57.66 86.64 58 88 C57.01 88.495 57.01 88.495 56 89 C56.99 89.66 57.98 90.32 59 91 C59 91.99 59 92.98 59 94 C57.35 94 55.7 94 54 94 C54 95.98 54 97.96 54 100 C53.01 100 52.02 100 51 100 C50.7834375 98.3603125 50.7834375 98.3603125 50.5625 96.6875 C50.07015405 94.70134898 50.07015405 94.70134898 49 93 C47.28815371 92.08348883 47.28815371 92.08348883 45.1796875 91.59375 C37.97724237 89.44844771 31.17297072 86.3512839 24.26757812 83.40820312 C23.23181641 82.97056641 22.19605469 82.53292969 21.12890625 82.08203125 C20.19119385 81.68218018 19.25348145 81.2823291 18.28735352 80.87036133 C16.09634971 79.8814552 16.09634971 79.8814552 14 80 C12.26924541 83.4122934 11.72104817 86.17371071 12 90 C14.24737028 95.03677004 17.95884901 99.35557097 21.29003906 103.70849609 C24.32887631 107.78081569 27.11094015 112.02897698 29.9375 116.25 C33.04841417 120.8930521 36.03162573 125.05038873 40 129 C40.5 132.0625 40.5 132.0625 40 135 C38.375 136.9375 38.375 136.9375 36 138 C33 137.625 33 137.625 30 137 C28.66431979 137.32380126 27.33076989 137.65657551 26 138 C25.195625 137.79375 24.39125 137.5875 23.5625 137.375 C20.91754873 136.70641485 20.91754873 136.70641485 18.6875 138.4375 C14.94541804 140.61312905 12.29926142 140.10956324 8 140 C8.89855889 144.63194839 9.88899964 149.23079065 10.96630859 153.82446289 C11.31883539 155.3853535 11.64654025 156.95208215 11.94775391 158.52368164 C13.41292299 167.43554517 13.41292299 167.43554517 18.76708984 174.19976807 C23.34085145 176.28686814 28.06607993 177.17712226 33 178 C33.99 178.33 34.98 178.66 36 179 C35.625 180.9375 35.625 180.9375 35 183 C31.94730154 184.52634923 29.24154311 183.83794444 25.875 183.5625 C24.59367187 183.46066406 23.31234375 183.35882813 21.9921875 183.25390625 C21.00476563 183.17011719 20.01734375 183.08632812 19 183 C19 183.66 19 184.32 19 185 C17.68 185 16.36 185 15 185 C12.06300517 174.70752254 9.29233011 164.38186334 6.6875 154 C6.42114746 152.94361328 6.15479492 151.88722656 5.88037109 150.79882812 C5.63496582 149.81333984 5.38956055 148.82785156 5.13671875 147.8125 C4.91717529 146.93207031 4.69763184 146.05164063 4.47143555 145.14453125 C4 143 4 143 4 141 C3.34 141.33 2.68 141.66 2 142 C-0.27632724 142.03023585 -2.53422718 141.93351618 -4.80859375 141.83984375 C-7.2946229 141.84066515 -7.2946229 141.84066515 -10 144 C-12.33199388 144.07905064 -14.66832622 144.08798769 -17 144 C-16.59571764 154.88370661 -16.11618316 165.69092259 -14.66064453 176.49194336 C-14.14603995 180.36023279 -13.90953529 184.09795565 -14 188 C-14.70769531 187.79375 -15.41539063 187.5875 -16.14453125 187.375 C-19.62330698 186.918143 -21.46873068 187.66506702 -24.6875 189 C-26.43739028 189.71984661 -28.20580162 190.39904467 -30 191 C-30.66 190.67 -31.32 190.34 -32 190 C-31.67821512 186.94646691 -31.06909803 186.06071177 -28.71484375 183.9921875 C-26.86913393 182.5851907 -25.01495259 181.18923545 -23.15234375 179.8046875 C-19.93710087 175.61495178 -20.56767507 172.10295426 -21 167 C-21.06823975 166.05334473 -21.13647949 165.10668945 -21.20678711 164.13134766 C-21.43769705 161.20844316 -21.7117291 158.29276902 -22 155.375 C-22.09539062 154.37082031 -22.19078125 153.36664063 -22.2890625 152.33203125 C-22.52186665 149.88758764 -22.7589064 147.4436375 -23 145 C-23.91007812 145.19464844 -24.82015625 145.38929688 -25.7578125 145.58984375 C-30.20500523 146.15244042 -32.06575079 144.96712461 -36 143 C-36.37125 143.78375 -36.7425 144.5675 -37.125 145.375 C-39 148 -39 148 -41.875 149.5 C-45 150 -45 150 -47.875 149.0625 C-50 147 -50 147 -50.44140625 144.1875 C-50.24048537 138.10414945 -47.33959193 132.48103846 -45.0625 126.9375 C-44.5642754 125.69434217 -44.06729941 124.45068324 -43.5715332 123.20654297 C-41.19314963 117.26296228 -38.73790247 111.35601125 -36.1953125 105.48046875 C-35.77113037 104.48732666 -35.34694824 103.49418457 -34.90991211 102.47094727 C-34.1132146 100.61612345 -33.29966827 98.76841866 -32.46704102 96.92944336 C-30.77492174 92.98957785 -29.86095379 90.83054446 -30.58203125 86.5234375 C-31.89297857 83.74371887 -31.89297857 83.74371887 -35 82 C-35.8971875 82.60585937 -36.794375 83.21171875 -37.71875 83.8359375 C-44.69100134 88.5256234 -51.70513935 93.14222102 -58.8125 97.625 C-59.49957031 98.06247559 -60.18664062 98.49995117 -60.89453125 98.95068359 C-65.76362079 102 -65.76362079 102 -68 102 C-68.2475 102.94875 -68.495 103.8975 -68.75 104.875 C-70 108 -70 108 -72.125 109.375 C-72.74375 109.58125 -73.3625 109.7875 -74 110 C-73.67 108.02 -73.34 106.04 -73 104 C-76.465 104.495 -76.465 104.495 -80 105 C-79.67 103.68 -79.34 102.36 -79 101 C-76.03 100.505 -76.03 100.505 -73 100 C-73 99.34 -73 98.68 -73 98 C-73.99 97.67 -74.98 97.34 -76 97 C-76 96.01 -76 95.02 -76 94 C-71.27410208 94.78764965 -71.27410208 94.78764965 -69.30078125 96.31640625 C-66.73258238 97.36425161 -66.73258238 97.36425161 -63.49609375 95.25390625 C-62.13268983 94.37287033 -60.78029936 93.4746318 -59.4375 92.5625 C-58.73238281 92.10182129 -58.02726562 91.64114258 -57.30078125 91.16650391 C-55.87204545 90.23230552 -54.44735579 89.29188873 -53.02685547 88.34521484 C-50.21199606 86.47700534 -47.35753465 84.67721626 -44.5 82.875 C-43.015 81.92625 -41.53 80.9775 -40 80 C-45.61 79.01 -51.22 78.02 -57 77 C-58.04579577 71.77102116 -57.92768025 70.94770929 -55.8671875 66.38671875 C-55.3930542 65.31083496 -54.9189209 64.23495117 -54.43041992 63.12646484 C-53.91713135 61.99160645 -53.40384277 60.85674805 -52.875 59.6875 C-49.56290541 52.17217362 -46.38707931 44.79523583 -44.1875 36.875 C-42.66021454 31.56027037 -40.95903014 27.68676521 -37.234375 23.578125 C-35.78503788 21.72517501 -35.35957815 20.31157379 -35 18 C-35.144375 17.278125 -35.28875 16.55625 -35.4375 15.8125 C-36.22583877 11.87080617 -36.07855455 8.00628199 -36 4 C-32.53071244 4.41631451 -29.44337044 4.82265182 -26.1875 6.125 C-20.70724321 7.62938422 -15.5118212 7.41461381 -10.49609375 4.58984375 C-8.9705492 3.52673775 -7.47104 2.42470848 -6.0078125 1.27734375 C-4 0 -4 0 0 0 Z M-11 9 C-11 10.32 -11 11.64 -11 13 C-8.03 13 -5.06 13 -2 13 C-2.33 10.36 -2.66 7.72 -3 5 C-6.40567036 5 -8.40099496 6.96599605 -11 9 Z M-32 9 C-31.67 11.64 -31.34 14.28 -31 17 C-29.51882199 16.71872579 -28.04006751 16.42466268 -26.5625 16.125 C-25.73878906 15.96257813 -24.91507813 15.80015625 -24.06640625 15.6328125 C-23.38449219 15.42398438 -22.70257813 15.21515625 -22 15 C-21.67 14.34 -21.34 13.68 -21 13 C-21.33 12.34 -21.66 11.68 -22 11 C-24.34907875 10.31068656 -24.34907875 10.31068656 -27.0625 9.875 C-27.98160156 9.70742188 -28.90070312 9.53984375 -29.84765625 9.3671875 C-30.55792969 9.24601562 -31.26820312 9.12484375 -32 9 Z M-17 10 C-17.33 10.66 -17.66 11.32 -18 12 C-17.01 11.67 -16.02 11.34 -15 11 C-15.66 10.67 -16.32 10.34 -17 10 Z M-13 18 C-7.28424176 25.52073453 -0.2460577 30.56682692 9 33 C7.6513881 28.86762236 5.95618595 26.65268595 2.6875 23.8125 C1.92824219 23.13832031 1.16898438 22.46414062 0.38671875 21.76953125 C-4.02996988 18.49496504 -7.54877226 17.74645452 -13 18 Z M-20 18 C-27.71303989 21.06807587 -34.19195342 24.17234869 -38 32 C-38 32.66 -38 33.32 -38 34 C-30.2979374 31.59310544 -24.44092201 25.71296811 -19 20 C-19.33 19.34 -19.66 18.68 -20 18 Z M-16 21 C-16.391875 21.53367187 -16.78375 22.06734375 -17.1875 22.6171875 C-23.48849777 30.46627524 -31.41935721 35.01198071 -40 40 C-39.87006174 41.43422422 -39.73170729 42.86768747 -39.58984375 44.30078125 C-39.5137085 45.09911377 -39.43757324 45.89744629 -39.35913086 46.7199707 C-38.63639339 51.30844471 -36.4704839 53.91470481 -32.79296875 56.62890625 C-24.92027237 61.64759903 -16.9853304 64.52630026 -7.55078125 62.46484375 C-0.58202987 60.55859337 5.32025155 57.68255169 10 52 C11.78462084 47.89537206 12.30403448 44.45917238 12 40 C10.34116614 36.68233227 6.67553107 35.77859899 3.4375 34.25 C-3.90954995 30.68575051 -10.26112279 26.87674814 -16 21 Z M-43 49 C-49.92492437 60.95591856 -49.92492437 60.95591856 -53 74 C-49.39006828 75.13480527 -46.0157673 75.10015767 -42.25 75.0625 C-41.07953125 75.05347656 -39.9090625 75.04445313 -38.703125 75.03515625 C-37.81109375 75.02355469 -36.9190625 75.01195313 -36 75 C-36.66 74.34 -37.32 73.68 -38 73 C-38.625 70.375 -38.625 70.375 -39 68 C-32.30386804 67.202163 -25.74233419 66.87089147 -19 67 C-21.30002831 65.84721473 -23.6034608 64.70191467 -25.91015625 63.5625 C-26.95042969 63.046875 -27.99070312 62.53125 -29.0625 62 C-30.10535156 61.484375 -31.14820313 60.96875 -32.22265625 60.4375 C-35 59 -35 59 -38 57 C-38.66 60.63 -39.32 64.26 -40 68 C-40.99 68 -41.98 68 -43 68 C-42.76023437 67.04738281 -42.52046875 66.09476563 -42.2734375 65.11328125 C-41.97695313 63.85902344 -41.68046875 62.60476562 -41.375 61.3125 C-41.07335938 60.07113281 -40.77171875 58.82976562 -40.4609375 57.55078125 C-39.9827074 53.86678833 -40.28355416 52.22914091 -42 49 C-42.33 49 -42.66 49 -43 49 Z M16 44 C15.00578958 46.95940206 14.55027928 49.06123744 15.93261719 51.94677734 C17.34408485 54.08762324 18.82892142 56.14177408 20.375 58.1875 C21.40648579 59.59558024 22.43525178 61.00565798 23.4609375 62.41796875 C23.92290527 63.03438232 24.38487305 63.6507959 24.86083984 64.28588867 C26 66 26 66 27 69 C26.01 69 25.02 69 24 69 C23.63261719 67.94232422 23.63261719 67.94232422 23.2578125 66.86328125 C21.82532472 63.60236963 20.00478131 61.03865885 17.875 58.1875 C17.15054688 57.21167969 16.42609375 56.23585938 15.6796875 55.23046875 C15.12539062 54.49441406 14.57109375 53.75835937 14 53 C12.948125 54.11375 12.948125 54.11375 11.875 55.25 C9.02281994 57.97817223 6.3236937 59.91302954 3 62 C5.9685582 63.26900206 5.9685582 63.26900206 9 62.375 C12 62 12 62 13.875 63.4375 C14.431875 64.2109375 14.431875 64.2109375 15 65 C14.649375 65.763125 14.29875 66.52625 13.9375 67.3125 C12.67639116 70.04759379 12.67639116 70.04759379 14 73 C20.55925943 72.61020794 25.94526627 71.57886807 32 69 C25.33736654 55.54529841 25.33736654 55.54529841 16 44 Z M-16 67 C-22.73940053 82.90024396 -29.20665118 98.90549934 -35.625 114.9375 C-36.03780212 115.96700775 -36.45060425 116.9965155 -36.87591553 118.05722046 C-38.05729444 121.00480103 -39.23614316 123.95337921 -40.4140625 126.90234375 C-40.77610779 127.80547302 -41.13815308 128.70860229 -41.51116943 129.63909912 C-42.00378265 130.87529999 -42.00378265 130.87529999 -42.50634766 132.13647461 C-42.79595367 132.86128525 -43.08555969 133.58609589 -43.38394165 134.33287048 C-44.05777051 135.86011491 -44.05777051 135.86011491 -44 137 C-30.6379671 136.4019501 -17.39155197 134.922611 -4.10620117 133.41601562 C-0.41433048 132.99737267 3.27811565 132.58414351 6.97070312 132.171875 C9.3359722 131.90655921 11.70120783 131.64094497 14.06640625 131.375 C15.16126846 131.25205566 16.25613068 131.12911133 17.38417053 131.00244141 C22.60274749 130.40995238 27.80612622 129.78085364 33 129 C28.61219262 121.9856882 24.10489282 115.05659192 19.46875 108.20410156 C16.2517604 103.43508974 13.11594983 98.62356716 10.04469299 93.75985718 C8.11801394 90.71809124 6.16833748 87.69139571 4.21633911 84.66583252 C3.24131599 83.14257324 2.27627601 81.61287608 1.32150269 80.07684326 C-0.03625752 77.89570166 -1.42774564 75.73988444 -2.828125 73.5859375 C-3.23000534 72.92118408 -3.63188568 72.25643066 -4.04594421 71.5715332 C-5.36214274 69.46503033 -5.36214274 69.46503033 -8 67 C-10.8818141 66.44770945 -13.0358407 66.66815587 -16 67 Z M1.875 67.5 C0.78832031 67.91765625 0.78832031 67.91765625 -0.3203125 68.34375 C-0.87460938 68.5603125 -1.42890625 68.776875 -2 69 C-0.42903279 74.02709507 2.61993049 78.02866469 6 82 C6.33 82 6.66 82 7 82 C7.33 76.72 7.66 71.44 8 66 C5.63456284 66 4.07695736 66.64762941 1.875 67.5 Z M-31 70 C-29.68 73.63 -28.36 77.26 -27 81 C-23.65094547 77.65094547 -23.10529715 75.50621146 -22 71 C-24.97 70.67 -27.94 70.34 -31 70 Z M11 135 C15 136 15 136 15 136 Z M-3 137 C1 138 1 138 1 138 Z M-17 138 C-16.67 138.66 -16.34 139.32 -16 140 C-14.02 140 -12.04 140 -10 140 C-9.67 139.34 -9.34 138.68 -9 138 C-11.64 138 -14.28 138 -17 138 Z M-32 140 C-30.515 140.99 -30.515 140.99 -29 142 C-26.32854463 141.19838209 -26.32854463 141.19838209 -24 140 C-26.86177057 138.56911472 -28.93375773 139.40008303 -32 140 Z M-46 141 C-46.33 141.99 -46.66 142.98 -47 144 C-45.02 144.99 -45.02 144.99 -43 146 C-42.01 144.35 -41.02 142.7 -40 141 C-41.98 141 -43.96 141 -46 141 Z M-20 181 C-20.33 181.66 -20.66 182.32 -21 183 C-20.34 183 -19.68 183 -19 183 C-19.33 182.34 -19.66 181.68 -20 181 Z " fill="#0A0E0F" transform="translate(90,18)"/>
<path d="M0 0 C0.99 0.33 1.98 0.66 3 1 C2.6999825 4.50020422 2.04266259 5.94904191 -0.25 8.6875 C-3.88058264 11.74048994 -6.15370223 13.07856586 -10.9375 12.875 C-14.66227077 11.81077978 -17.05848864 10.53106792 -20 8 C-20.875 4.75 -20.875 4.75 -21 2 C-19.125 2.25 -19.125 2.25 -17 3 C-16.731875 3.66 -16.46375 4.32 -16.1875 5 C-15.08008013 7.38778823 -15.08008013 7.38778823 -11.6875 7.9375 C-7.56525329 8.00736859 -6.13244344 7.61036953 -3 5 C-1.19203897 2.43389334 -1.19203897 2.43389334 0 0 Z " fill="#080C0C" transform="translate(86,62)"/>
<path d="M0 0 C1.26305335 5.07476794 2.27036084 9.72796354 2 15 C0.02 15.66 -1.96 16.32 -4 17 C-3.67 16.01 -3.34 15.02 -3 14 C-5.97 14 -8.94 14 -12 14 C-12 12.35 -12 10.7 -12 9 C-11.67 10.32 -11.34 11.64 -11 13 C-8.03 13 -5.06 13 -2 13 C-2.33 10.36 -2.66 7.72 -3 5 C-3.99 5.33 -4.98 5.66 -6 6 C-6 5.34 -6 4.68 -6 4 C-7.32 4.33 -8.64 4.66 -10 5 C-5.16129032 0 -5.16129032 0 0 0 Z " fill="#080E0E" transform="translate(90,18)"/>
<path d="M0 0 C6.6 1.98 13.2 3.96 20 6 C19.67 7.32 19.34 8.64 19 10 C15.94730154 11.52634923 13.24154311 10.83794444 9.875 10.5625 C8.59367187 10.46066406 7.31234375 10.35882813 5.9921875 10.25390625 C5.00476563 10.17011719 4.01734375 10.08632812 3 10 C3 10.66 3 11.32 3 12 C1.68 12 0.36 12 -1 12 C-0.67 11.34 -0.34 10.68 0 10 C0.66 10.33 1.32 10.66 2 11 C2 10.34 2 9.68 2 9 C7.28 9 12.56 9 18 9 C18 8.34 18 7.68 18 7 C15.36 6.67 12.72 6.34 10 6 C10.66 6.66 11.32 7.32 12 8 C8.7 7.67 5.4 7.34 2 7 C1.34 4.69 0.68 2.38 0 0 Z " fill="#050909" transform="translate(106,191)"/>
<path d="M0 0 C0.33 0.66 0.66 1.32 1 2 C1.66 2.33 2.32 2.66 3 3 C3 3.99 3 4.98 3 6 C5.64 6.33 8.28 6.66 11 7 C10.67 6.34 10.34 5.68 10 5 C14.455 5.99 14.455 5.99 19 7 C19 7.66 19 8.32 19 9 C13.72 9 8.44 9 3 9 C3 9.66 3 10.32 3 11 C2.01 10.67 1.02 10.34 0 10 C-0.19412181 8.52168779 -0.38012131 7.04230684 -0.5625 5.5625 C-0.66691406 4.73878906 -0.77132812 3.91507813 -0.87890625 3.06640625 C-0.91886719 2.38449219 -0.95882812 1.70257813 -1 1 C-0.67 0.67 -0.34 0.34 0 0 Z " fill="#0E1415" transform="translate(105,191)"/>
<path d="M0 0 C0.66 0.33 1.32 0.66 2 1 C0 4 0 4 -2.5625 4.5625 C-3.366875 4.706875 -4.17125 4.85125 -5 5 C-5.33 5.66 -5.66 6.32 -6 7 C-5.01 7 -4.02 7 -3 7 C-3.33 8.32 -3.66 9.64 -4 11 C-5.32 10.34 -6.64 9.68 -8 9 C-8 8.01 -8 7.02 -8 6 C-9.65 6 -11.3 6 -13 6 C-13.33 5.34 -13.66 4.68 -14 4 C-13.24074219 3.87882812 -12.48148437 3.75765625 -11.69921875 3.6328125 C-10.20841797 3.38144531 -10.20841797 3.38144531 -8.6875 3.125 C-7.70136719 2.96257812 -6.71523437 2.80015625 -5.69921875 2.6328125 C-2.79940173 2.11914546 -2.79940173 2.11914546 0 0 Z " fill="#0E1414" transform="translate(90,78)"/>
<path d="M0 0 C-3.79039366 2.12999997 -6.65736138 2.16702456 -11 2 C-11 2.66 -11 3.32 -11 4 C-11.99 4 -12.98 4 -14 4 C-14.33 4.99 -14.66 5.98 -15 7 C-15.66 7 -16.32 7 -17 7 C-16.67 5.35 -16.34 3.7 -16 2 C-16.66 1.67 -17.32 1.34 -18 1 C-11.97403427 -0.0712828 -6.11090483 -0.09945415 0 0 Z " fill="#0F1515" transform="translate(67,155)"/>
<path d="M0 0 C2.64 0 5.28 0 8 0 C7.01 0.66 6.02 1.32 5 2 C6.65 1.67 8.3 1.34 10 1 C10 1.66 10 2.32 10 3 C5.60062591 3.67682678 1.45033498 4 -3 4 C-3 3.34 -3 2.68 -3 2 C-2.01 2 -1.02 2 0 2 C0 1.34 0 0.68 0 0 Z " fill="#060B0C" transform="translate(56,157)"/>
<path d="M0 0 C0.66 0.33 1.32 0.66 2 1 C1.67 1.66 1.34 2.32 1 3 C1.66 3.33 2.32 3.66 3 4 C-0.6441774 6.4294516 -2.71241272 6.16179575 -7 6 C-6.67 5.01 -6.34 4.02 -6 3 C-6.66 2.34 -7.32 1.68 -8 1 C-6.865625 1.020625 -5.73125 1.04125 -4.5625 1.0625 C-1.18424326 1.41577477 -1.18424326 1.41577477 0 0 Z " fill="#070B0B" transform="translate(106,152)"/>
<path d="M0 0 C1.18916016 0.0918457 1.18916016 0.0918457 2.40234375 0.18554688 C4.35275869 0.33829021 6.30159555 0.51095244 8.25 0.6875 C5.06679792 2.80963472 4.4201382 2.90209267 0.8125 2.75 C-2.29557984 2.62904258 -4.74653985 2.92886203 -7.75 3.6875 C-10.5 3.25 -10.5 3.25 -12.75 2.6875 C-8.92901767 -1.30809712 -5.08149365 -0.47612669 0 0 Z " fill="#050A0A" transform="translate(45.75,92.3125)"/>
<path d="M0 0 C1.43343546 2.86687092 0.56303792 4.50563683 -0.25 7.5625 C-0.62898438 9.04943359 -0.62898438 9.04943359 -1.015625 10.56640625 C-1.34046875 11.36949219 -1.6653125 12.17257813 -2 13 C-2.99 13.33 -3.98 13.66 -5 14 C-4.74279326 12.41439607 -4.46861201 10.83154076 -4.1875 9.25 C-3.96126953 7.92742187 -3.96126953 7.92742187 -3.73046875 6.578125 C-2.94585752 3.8089089 -1.85404641 2.1740599 0 0 Z " fill="#0D1212" transform="translate(52,133)"/>
<path d="M0 0 C0.33 0 0.66 0 1 0 C1.33 4.62 1.66 9.24 2 14 C0.68 13.67 -0.64 13.34 -2 13 C-2.33 12.34 -2.66 11.68 -3 11 C-2.34 11 -1.68 11 -1 11 C-0.67 7.37 -0.34 3.74 0 0 Z " fill="#040808" transform="translate(74,192)"/>
<path d="M0 0 C2.4375 0.875 2.4375 0.875 3.75 2.9375 C4.0903125 3.8965625 4.0903125 3.8965625 4.4375 4.875 C3.7775 5.535 3.1175 6.195 2.4375 6.875 C1.4475 6.215 0.4575 5.555 -0.5625 4.875 C-0.5625 4.215 -0.5625 3.555 -0.5625 2.875 C-2.2125 2.545 -3.8625 2.215 -5.5625 1.875 C-2.5625 -0.125 -2.5625 -0.125 0 0 Z " fill="#070A0A" transform="translate(101.5625,79.125)"/>
<path d="M0 0 C1.98 0.99 1.98 0.99 4 2 C3.34 2 2.68 2 2 2 C2 4.64 2 7.28 2 10 C0 8 0 8 -0.1953125 6.0546875 C-0.13020833 4.03645833 -0.06510417 2.01822917 0 0 Z " fill="#0F1515" transform="translate(55,23)"/>
<path d="M0 0 C0 0.66 0 1.32 0 2 C0.66 2.33 1.32 2.66 2 3 C2 4.65 2 6.3 2 8 C1.67 6.68 1.34 5.36 1 4 C0.01 4.33 -0.98 4.66 -2 5 C-2 4.34 -2 3.68 -2 3 C-3.32 3.33 -4.64 3.66 -6 4 C-2.25 0 -2.25 0 0 0 Z " fill="#060909" transform="translate(86,19)"/>
<path d="M0 0 C0.66 0.33 1.32 0.66 2 1 C2 1.99 2 2.98 2 4 C0.1875 4.625 0.1875 4.625 -2 5 C-2.99 4.34 -3.98 3.68 -5 3 C-2.625 1.4375 -2.625 1.4375 0 0 Z " fill="#050909" transform="translate(146,102)"/>
<path d="M0 0 C1.65 0 3.3 0 5 0 C5 0.66 5 1.32 5 2 C5.99 2.33 6.98 2.66 8 3 C5.04335481 4.4783226 2.25770263 4.06032783 -1 4 C0.32 3.34 1.64 2.68 3 2 C2.01 1.34 1.02 0.68 0 0 Z " fill="#050809" transform="translate(74,158)"/>
<path d="M0 0 C0.6875 1.8125 0.6875 1.8125 1 4 C-0.3125 5.75 -0.3125 5.75 -2 7 C-2.66 7 -3.32 7 -4 7 C-3.43628586 3.73045798 -2.50037734 2.17424117 0 0 Z " fill="#0E1515" transform="translate(143,105)"/>
<path d="M0 0 C1 3 1 3 1 5 C-0.98 5.33 -2.96 5.66 -5 6 C-3.35 4.02 -1.7 2.04 0 0 Z " fill="#0F1515" transform="translate(65,201)"/>
<path d="M0 0 C1 2 2 4 3 6 C1.35 6 -0.3 6 -2 6 C-1.125 1.125 -1.125 1.125 0 0 Z " fill="#0E1514" transform="translate(35,88)"/>
<path d="M0 0 C0.99 0.33 1.98 0.66 3 1 C3 1.99 3 2.98 3 4 C1.68 4 0.36 4 -1 4 C-0.67 2.68 -0.34 1.36 0 0 Z " fill="#040707" transform="translate(86,55)"/>
<path d="M0 0 C0.99 0.33 1.98 0.66 3 1 C3 1.99 3 2.98 3 4 C2.01 4 1.02 4 0 4 C0 2.68 0 1.36 0 0 Z " fill="#060B0A" transform="translate(64,57)"/>
</svg>
