<?xml version="1.0" encoding="UTF-8"?>
<svg version="1.1" xmlns="http://www.w3.org/2000/svg" width="1920" height="1080">
<path d="M0 0 C0.5625 1.9375 0.5625 1.9375 1 4 C-0.95454344 5.95454344 -4.33024367 5.96561897 -6.96875 6.5 C-8.98233957 6.8098065 -8.98233957 6.8098065 -10 8 C-9.2575 8.5259375 -9.2575 8.5259375 -8.5 9.0625 C-6.20604764 12.02552179 -6.61111718 14.37042697 -7 18 C-8.1875 19.9375 -8.1875 19.9375 -10 21 C-12.5 21.4375 -12.5 21.4375 -15 21 C-17.42082645 18.57917355 -18.40269644 16.34489996 -19 13 C-22.7952131 14.49097658 -24.61042731 16.75700849 -27 20 C-25.7934375 21.2684375 -25.7934375 21.2684375 -24.5625 22.5625 C-21.78818076 25.87124901 -21.16726946 28.65099415 -21 33 C-21.33 33.66 -21.66 34.32 -22 35 C-18.48658392 34.42265693 -18.48658392 34.42265693 -15.26171875 32.9921875 C-12.17920415 31.63992721 -9.41565865 31.64314445 -6.0625 31.5 C-1.51161125 31.30530957 1.82695069 30.77164282 6 29 C11.79319799 28.00249571 16.04277567 28.59030419 21 31.8125 C23.73004293 33.78690605 25.09690361 35.14535542 27 38 C26.625 40.6875 26.625 40.6875 26 43 C23.19365913 41.85667594 21.74986841 40.73670359 19.625 38.5 C16.71179674 35.72552071 14.94080142 34.72382067 11 34 C7.69835953 34.76554914 7.69835953 34.76554914 5 36 C5.7734375 37.051875 5.7734375 37.051875 6.5625 38.125 C8.32738782 41.65477563 8.15925297 43.27382974 7 47 C4 49 4 49 1 49 C-2 48 -2 48 -3.9375 45.3125 C-5.10323471 41.67815062 -4.95639399 39.65168614 -4 36 C-7.96 36.99 -7.96 36.99 -12 38 C-11.2265625 39.051875 -11.2265625 39.051875 -10.4375 40.125 C-8.67261218 43.65477563 -8.84074703 45.27382974 -10 49 C-13.46923881 51.31282587 -14.92205575 51.42478586 -19 51 C-20.8125 49.875 -20.8125 49.875 -22 48 C-22.6875 44.8125 -22.6875 44.8125 -23 42 C-25.31 43.98 -27.62 45.96 -30 48 C-28.14470719 51.91731018 -28.14470719 51.91731018 -26 55 C-25.45472656 54.84402344 -24.90945313 54.68804687 -24.34765625 54.52734375 C-13.90890566 51.83289702 -5.4665003 53.86608735 4 59 C5.81640625 60.6640625 5.81640625 60.6640625 7.25 62.3125 C9.59029668 65.18022934 9.59029668 65.18022934 11.921875 65.1328125 C12.60765625 65.06835938 13.2934375 65.00390625 14 64.9375 C16.70237319 64.70408965 17.62433516 64.7103405 19.80859375 66.39453125 C24.86395393 72.15303506 25.12415092 76.55094498 25 84 C23.0625 84.5625 23.0625 84.5625 21 85 C19.00022142 83.00022142 19.56467193 79.15670096 19.37890625 76.4453125 C19.1367506 73.74931222 19.1367506 73.74931222 17 71 C13.43230448 70.26393501 13.43230448 70.26393501 10 70 C9.896875 71.093125 9.79375 72.18625 9.6875 73.3125 C9 77 9 77 7.8125 78.9375 C5.10037664 80.52736542 3.07239486 80.39222062 0 80 C-2 77 -2 77 -1.9375 74.625 C-0.70898441 71.18515634 1.31210496 69.4122135 4 67 C1.28395285 64.12579877 1.28395285 64.12579877 -2 62 C-2.0928125 63.0828125 -2.0928125 63.0828125 -2.1875 64.1875 C-3.28329906 67.9806506 -4.93602589 69.54882071 -8 72 C-11.42931948 73.11977779 -13.06928538 73.41637233 -16.375 71.9375 C-18 70 -18 70 -18.5625 67.125 C-17.83264627 63.07025703 -16.08265324 61.62025526 -13 59 C-15.97 59.33 -18.94 59.66 -22 60 C-22.391875 61.381875 -22.78375 62.76375 -23.1875 64.1875 C-24.66233288 68.68290406 -26.40286954 70.98618799 -30 74 C-29.58427734 75.01320313 -29.58427734 75.01320313 -29.16015625 76.046875 C-28.79792969 76.93890625 -28.43570312 77.8309375 -28.0625 78.75 C-27.70285156 79.63171875 -27.34320312 80.5134375 -26.97265625 81.421875 C-24.24668675 88.64733634 -24.75220603 95.51323621 -26 103 C-24.9275 103.061875 -23.855 103.12375 -22.75 103.1875 C-19 104 -19 104 -16.5625 106.0625 C-14.56866847 109.81090328 -14.23310049 112.89160977 -15 117 C-16.96578843 122.3562213 -20.34215711 125.83266684 -25 129 C-28.375 129.8125 -28.375 129.8125 -31 130 C-31.15855469 130.61746094 -31.31710937 131.23492187 -31.48046875 131.87109375 C-34.46779467 142.71459172 -40.18487093 154.41779612 -50.28515625 160.33984375 C-52.35817866 161.97886064 -52.35817866 161.97886064 -52.2421875 165.23046875 C-51.75692084 170.50440757 -51.75692084 170.50440757 -51.21777344 175.77294922 C-51.00839702 177.91412821 -50.88740263 180.04262371 -50.7890625 182.19140625 C-50.18037633 192.28303646 -46.91013372 198.59751388 -40 206 C-39.39188477 206.66177246 -38.78376953 207.32354492 -38.15722656 208.00537109 C-34.74424286 211.70848349 -31.29410177 215.37291971 -27.80859375 219.0078125 C-24.82686851 222.11860728 -21.92043214 225.27540873 -19.0625 228.5 C-15.55965685 232.4365285 -11.87605505 236.14479294 -8.125 239.84375 C-5.58582005 242.42027083 -3.22441271 245.1137944 -0.8984375 247.8828125 C-0.27195312 248.58148438 0.35453125 249.28015625 1 250 C1.47195801 250.5468042 1.94391602 251.0936084 2.43017578 251.65698242 C6.95264871 256.58909487 11.38467082 258.82475696 17.625 261.0625 C24.05334115 263.37610575 28.18569353 265.16770374 32 271 C32.61814926 274.98362857 32.62011145 276.99231889 30.5 280.4375 C27.02245374 282.61096642 23.93627112 282.62317719 20 282 C13.76905973 279.62630847 10.3237282 273.29446221 7.125 267.75 C6 265 6 265 6 261 C5.40832031 260.73445313 4.81664062 260.46890625 4.20703125 260.1953125 C-0.83983929 257.46196315 -4.55332828 252.55835121 -8.25 248.25 C-11.1828162 244.84159199 -14.30100189 241.65630156 -17.5 238.5 C-21.12851835 234.91459877 -24.59837505 231.2624163 -27.90625 227.37890625 C-31.56652758 223.22012072 -35.39467436 219.21408749 -39.20239258 215.19042969 C-40.08640747 214.25118652 -40.08640747 214.25118652 -40.98828125 213.29296875 C-41.51977783 212.7311792 -42.05127441 212.16938965 -42.59887695 211.59057617 C-44 210 -44 210 -46 207 C-45.39334007 215.90778999 -43.01373442 224.34098225 -40.75 232.9375 C-40.36274532 234.43019961 -39.97602349 235.92303756 -39.58984375 237.41601562 C-37.83033881 244.18890009 -36.0248185 250.94479084 -34.11541748 257.67703247 C-30.99125567 268.71343096 -28.4391509 279.85003731 -25.94775391 291.04370117 C-23.81470043 300.59725799 -21.56848012 310.0407051 -18.57641602 319.36793518 C-16.82303987 324.98640987 -16.43296563 330.16584636 -17 336 C-22.26633076 338.4580879 -27.31044838 339.9258681 -33 341.0625 C-33.82943115 341.23168945 -34.6588623 341.40087891 -35.51342773 341.57519531 C-46.34847678 343.73285112 -56.93322992 345.1501333 -68 345 C-67.99214478 346.32330322 -67.99214478 346.32330322 -67.98413086 347.67333984 C-67.87143754 369.80402478 -68.20868666 391.88321299 -69 414 C-68.38068604 413.98428955 -67.76137207 413.9685791 -67.12329102 413.95239258 C-64.26978995 413.8893597 -61.41643609 413.85079563 -58.5625 413.8125 C-57.10166992 413.77479492 -57.10166992 413.77479492 -55.61132812 413.73632812 C-48.82166792 413.66820444 -41.70345382 413.92935933 -36.24829102 418.45239258 C-35 420 -35 420 -35.0625 422.4375 C-36.21142485 425.57789458 -37.36910343 426.93794593 -40 429 C-45.06972916 431.15079419 -49.65131319 431.33469519 -55.0625 431.3125 C-56.24682617 431.33666992 -56.24682617 431.33666992 -57.45507812 431.36132812 C-63.09707949 431.36605738 -66.51637219 430.39164159 -70.6875 426.375 C-74.96359893 418.63729718 -74.2757538 409.42899975 -74.1875 400.875 C-74.18105469 399.57401367 -74.17460938 398.27302734 -74.16796875 396.93261719 C-74.1089077 389.57397991 -73.84450814 382.3113143 -73.22265625 374.98046875 C-72.68339035 365.33990821 -72.92552973 355.65249212 -73 346 C-74.06009277 346.1071936 -74.06009277 346.1071936 -75.14160156 346.21655273 C-83.03142076 346.95196815 -90.82977406 347.12073696 -98.75 347.0625 C-99.9359375 347.05798828 -101.121875 347.05347656 -102.34375 347.04882812 C-105.22922228 347.03719316 -108.11458213 347.0208484 -111 347 C-110.99214478 347.99906372 -110.99214478 347.99906372 -110.98413086 349.01831055 C-110.8936388 362.47642661 -110.96127048 375.92220265 -111.375 389.375 C-111.40585693 390.54248779 -111.43671387 391.70997559 -111.46850586 392.9128418 C-112.29160312 416.9058703 -112.29160312 416.9058703 -119 424 C-126.31086343 429.69733302 -132.84572495 430.69020328 -142 430 C-145.56508961 428.68654593 -148.84955227 427.22567159 -151 424 C-151.5 421.0625 -151.5 421.0625 -151 418 C-146.78531562 413.89622837 -144.09048809 412.87328036 -138.3359375 412.90234375 C-137.21445313 412.90556641 -136.09296875 412.90878906 -134.9375 412.91210938 C-133.1740625 412.92467773 -133.1740625 412.92467773 -131.375 412.9375 C-130.19164062 412.94201172 -129.00828125 412.94652344 -127.7890625 412.95117188 C-124.85932493 412.96298533 -121.92968728 412.97945742 -119 413 C-118.06150731 408.57920551 -117.69939782 404.25711741 -117.5 399.75 C-117.46011963 398.89188721 -117.42023926 398.03377441 -117.37915039 397.1496582 C-116.65007168 380.11081865 -116.37736817 363.04951807 -116 346 C-116.98202393 346.00870117 -117.96404785 346.01740234 -118.97583008 346.02636719 C-154.1269658 346.20743638 -154.1269658 346.20743638 -164 337 C-167.91141706 327.51667187 -160.23468429 309.93421768 -157.5 300.3125 C-157.06309991 298.75262823 -156.62658582 297.19264831 -156.19042969 295.63256836 C-153.91838317 287.54536999 -151.56238694 279.48726564 -149.109375 271.453125 C-139.21787635 242.23179773 -139.21787635 242.23179773 -135 212 C-135.495 212.845625 -135.99 213.69125 -136.5 214.5625 C-139.36777105 218.80522977 -143.06193146 221.77159817 -147 225 C-147.836521 225.69488525 -147.836521 225.69488525 -148.68994141 226.40380859 C-183.1228278 255 -183.1228278 255 -190 255 C-190.0825 255.825 -190.165 256.65 -190.25 257.5 C-192.23254997 266.75189986 -197.58691981 273.39999659 -205.42578125 278.61328125 C-211.17551475 281.78770643 -215.4757228 282.52615139 -222 282 C-222.33 281.01 -222.66 280.02 -223 279 C-223.969375 279.144375 -224.93875 279.28875 -225.9375 279.4375 C-231.53296025 279.41484631 -235.20614237 275.76621568 -239 272 C-242.2074895 268.04108128 -244.57615552 264.17061809 -246.3125 259.375 C-248.34026582 255.31946837 -250.53293451 253.88296908 -254.140625 251.265625 C-265.62391318 242.16684475 -275.28604947 230.69928543 -284 219 C-284.87011719 219.97453125 -284.87011719 219.97453125 -285.7578125 220.96875 C-286.53898438 221.8040625 -287.32015625 222.639375 -288.125 223.5 C-288.89070312 224.3353125 -289.65640625 225.170625 -290.4453125 226.03125 C-293.55261774 228.42587055 -295.16668477 228.477807 -299 228 C-299.33 227.67 -299.66 227.34 -300 227 C-300.01458252 227.84481934 -300.02916504 228.68963867 -300.04418945 229.56005859 C-300.10642436 232.7923155 -300.18076045 236.02403996 -300.26245117 239.25585938 C-300.29505356 240.6362921 -300.32326961 242.01683761 -300.34643555 243.39746094 C-300.46577621 250.33445458 -300.70714242 257.00056474 -302.16293335 263.80989075 C-305.22290577 278.45004992 -303.87018296 293.50362269 -303.27886963 308.34741211 C-303.09673535 313.01209371 -302.93854158 317.67763704 -302.77787495 322.34309864 C-302.65247436 325.97639311 -302.52356772 329.60941216 -302.38188171 333.24211121 C-302.2310536 337.16080161 -302.11097679 341.07995958 -302 345 C-301.96474401 346.03817556 -301.96474401 346.03817556 -301.92877579 347.09732437 C-301.86267389 349.16746445 -301.81791008 351.23705908 -301.77856445 353.30786133 C-301.74865921 354.52153885 -301.71875397 355.73521637 -301.6879425 356.985672 C-302 360 -302 360 -303.38420105 361.8445282 C-308.57556445 365.55691706 -313.67842448 365.24393062 -319.8125 365.125 C-320.69615234 365.11597656 -321.57980469 365.10695313 -322.49023438 365.09765625 C-324.66027359 365.07419637 -326.83017247 365.03832865 -329 365 C-328.84635986 365.6185083 -328.69271973 366.2370166 -328.53442383 366.87426758 C-325.28275796 380.56869774 -326.3575906 396.09817755 -328 410 C-326.4840625 409.5359375 -326.4840625 409.5359375 -324.9375 409.0625 C-314.88348772 406.22158671 -304.69172426 405.67519832 -295 410 C-292.3125 412.25 -292.3125 412.25 -291 415 C-291.06177516 418.58295911 -291.23159836 420.95217958 -293.375 423.875 C-299.46428322 428.09065761 -310.76055241 426.44955216 -317.91015625 425.69140625 C-322.64814658 424.77306507 -326.32214574 423.24001447 -330 420 C-332.97569243 414.45595436 -333.39960518 410.03266653 -333.2578125 403.8125 C-333.25119598 402.95116455 -333.24457947 402.0898291 -333.23776245 401.20239258 C-333.21450415 398.46788587 -333.17084367 395.73421314 -333.125 393 C-333.08977407 390.26588859 -333.05896055 387.53182873 -333.03366089 384.79760742 C-333.01687273 383.10238019 -332.99389229 381.40719886 -332.96365356 379.7121582 C-332.90476226 375.01884374 -333.2082334 370.62855168 -334 366 C-335.22976563 365.74476563 -335.22976563 365.74476563 -336.484375 365.484375 C-337.56203125 365.24203125 -338.6396875 364.9996875 -339.75 364.75 C-340.81734375 364.51796875 -341.8846875 364.2859375 -342.984375 364.046875 C-346.46522077 362.83849849 -347.83522426 361.97656664 -350 359 C-351.00799591 356.29995931 -351.64344306 353.56402644 -352.25 350.75 C-352.50910156 349.63238281 -352.50910156 349.63238281 -352.7734375 348.4921875 C-353.19523528 346.66439713 -353.59939559 344.83255208 -354 343 C-354.12955078 344.21236328 -354.12955078 344.21236328 -354.26171875 345.44921875 C-355.41410014 354.21366072 -355.41410014 354.21366072 -358.375 358.1875 C-363.09335198 361.4454097 -367.66389659 361.12665136 -373.25 361.0625 C-373.99507812 361.05798828 -374.74015625 361.05347656 -375.5078125 361.04882812 C-377.3385764 361.03709246 -379.16929873 361.0191585 -381 361 C-381.03738281 362.08410156 -381.07476563 363.16820312 -381.11328125 364.28515625 C-381.52334623 374.62529213 -382.24659666 384.9344247 -383.18734741 395.23898315 C-383.31167286 396.61274999 -383.43202475 397.98688267 -383.54824829 399.36135864 C-384.96543947 415.96543947 -384.96543947 415.96543947 -390.3125 421.3125 C-397.69813218 425.94998997 -406.30206423 426.12805954 -414.703125 424.46484375 C-418.94315051 423.18020026 -422.48555274 421.82633279 -425 418 C-425.5829097 414.50254179 -425.52027563 412.79172379 -423.5625 409.8125 C-414.74951977 403.57892862 -402.43342047 403.31781482 -392 404 C-391.34 404.33 -390.68 404.66 -390 405 C-388.68 390.48 -387.36 375.96 -386 361 C-389.3 361 -392.6 361 -396 361 C-401.21848076 360.4201688 -407.07313046 359.6814402 -411 356 C-412.83250537 350.15909043 -413.30069159 344.89258003 -413.21875 338.80078125 C-413.20938416 337.4583007 -413.20938416 337.4583007 -413.1998291 336.08869934 C-413.04291567 323.43996397 -412.23880996 310.81255572 -411.5 298.1875 C-411.35492844 295.63349417 -411.21039393 293.07945779 -411.06640625 290.52539062 C-410.71710908 284.34989544 -410.3612566 278.17480654 -410 272 C-410.99 272 -411.98 272 -413 272 C-411.28622878 255.28843458 -409.39249511 238.62868945 -407 222 C-407.53471924 222.2880249 -408.06943848 222.5760498 -408.62036133 222.87280273 C-409.3295874 223.24348877 -410.03881348 223.6141748 -410.76953125 223.99609375 C-411.46925049 224.36661865 -412.16896973 224.73714355 -412.88989258 225.11889648 C-416.29013446 226.53871286 -418.5506584 226.10639259 -422 225 C-424.9375 222.4375 -424.9375 222.4375 -427 220 C-427.38929688 220.47308594 -427.77859375 220.94617188 -428.1796875 221.43359375 C-432.2051951 226.19185504 -436.50542247 230.38321612 -441.1796875 234.5 C-444.96412898 237.85462957 -448.66124942 241.30016116 -452.35791016 244.75097656 C-454.94100516 247.14939196 -457.54504198 249.45329442 -460.30078125 251.65234375 C-463.05380489 254.04679702 -463.84667263 255.7682921 -465.125 259.109375 C-468.5664227 266.54530618 -474.82164559 270.64935159 -482.046875 274.0078125 C-486.25474247 275.42156691 -488.76124522 275.19964758 -493 274 C-494 273 -494 273 -494.375 269.9375 C-493.69692152 262.81767597 -489.33254527 257.58846919 -484 253 C-475.01734104 246.87861272 -475.01734104 246.87861272 -468.8125 247.375 C-464.6573379 247.42674023 -464.6573379 247.42674023 -461 245.69140625 C-459.23983362 243.86197407 -457.62831386 241.94706398 -456 240 C-454.79354127 238.89143375 -453.56315986 237.80844779 -452.3125 236.75 C-447.72159704 232.78553604 -443.23886658 228.70760708 -438.79296875 224.58203125 C-437.16823446 223.08000416 -435.53092744 221.59095501 -433.86328125 220.13671875 C-432.00544125 218.53250117 -432.00544125 218.53250117 -430 216 C-430 213.03354197 -430.93309687 211.1613546 -432.0625 208.4375 C-433.50391508 203.15231138 -434.09495666 198.41319199 -433 193 C-430.57753878 188.99944506 -427.48893097 186.08359929 -424 183 C-422.83984375 181.94619141 -422.83984375 181.94619141 -421.65625 180.87109375 C-411.80938223 172.41088932 -400.78930652 165.19287101 -390 158 C-390.825 157.401875 -391.65 156.80375 -392.5 156.1875 C-403.39368688 147.04504411 -409.20939811 133.81703253 -411 120 C-411.556875 119.98582031 -412.11375 119.97164063 -412.6875 119.95703125 C-418.83904367 119.57255977 -423.28822397 118.05672424 -428 114 C-430.39474984 110.45577023 -430.22712391 107.29233058 -429.52734375 103.109375 C-427.57261632 95.29046529 -423.25878408 90.86119152 -417 86 C-417.39832031 85.28650391 -417.39832031 85.28650391 -417.8046875 84.55859375 C-423.95346281 72.37324706 -423.80357967 59.04023978 -421 46 C-420.00678891 43.01129632 -418.79606232 40.57750698 -417 38 C-416.29875 36.948125 -415.5975 35.89625 -414.875 34.8125 C-410.16860125 29.44632573 -402.43543145 26.41307072 -395.44140625 25.76171875 C-385.4823406 25.50497215 -376.29601153 27.21092322 -368.3125 33.4375 C-365.66308669 35.39640079 -364.65286551 36.06117627 -361.33203125 35.75 C-358.78719962 34.98618329 -356.42467789 34.0810387 -354 33 C-344.31410822 29.77136941 -333.81740834 31.73182243 -324.76953125 35.80859375 C-322.12377573 36.94675374 -319.85903285 37.68014262 -317 38 C-314.84659471 36.67662714 -314.84659471 36.67662714 -313 35 C-309.27599129 33.75866376 -305.86824 33.45888514 -302 34 C-298.24787724 36.01502889 -296.36355905 37.45466142 -294 41 C-293.68979193 45.88577709 -293.69180175 48.69136326 -296 53 C-295.2912322 57.28782505 -292.88748435 60.46681883 -290.5 64 C-286.16142698 70.42055078 -284.24427781 75.14048922 -285 83 C-285.85221683 87.0430752 -286.88608454 91.0217305 -288 95 C-287.34 95 -286.68 95 -286 95 C-283.625 97.1875 -283.625 97.1875 -281 100 C-280.278125 100.763125 -279.55625 101.52625 -278.8125 102.3125 C-276.48200787 105.76805729 -275.27090448 108.8248839 -275 113 C-276.56535945 119.05272319 -279.94444628 122.57601134 -285 126 C-287.75078884 126.91692961 -289.35948913 127.10886083 -292.1875 127.0625 C-293.445625 127.041875 -294.70375 127.02125 -296 127 C-296.70962891 128.43279297 -296.70962891 128.43279297 -297.43359375 129.89453125 C-302.75689385 140.3953436 -308.46956507 149.73951105 -318 157 C-316.92363281 157.53367187 -315.84726562 158.06734375 -314.73828125 158.6171875 C-300.10076005 166.01931679 -278.61918293 177.97213532 -272 194 C-272 200.08994038 -274.6071045 204.35261255 -277.625 209.546875 C-279.10947916 212.01510389 -279.10947916 212.01510389 -280 215 C-278.65182821 217.25603598 -278.65182821 217.25603598 -276.625 219.5625 C-275.88765625 220.44679688 -275.1503125 221.33109375 -274.390625 222.2421875 C-271.33384042 225.7684782 -268.23376615 229.24973322 -265.08203125 232.69140625 C-263.33758147 234.62568358 -261.69476606 236.59731174 -260.0625 238.625 C-254.52094078 245.0447298 -248.55354866 249.6770964 -240.5 252.4375 C-233.71664321 254.81368179 -228.54212095 258.38914471 -224 264 C-222.73046875 267.28515625 -222.73046875 267.28515625 -222 270 C-221.34 269.29875 -220.68 268.5975 -220 267.875 C-213.73832711 261.66999383 -206.88979925 257.78563874 -198.875 254.25 C-190.45708165 250.37702557 -183.07313645 246.08397013 -175.78369141 240.38769531 C-173.81507718 238.85613177 -171.82181832 237.36072838 -169.82421875 235.8671875 C-141.83496374 214.85491885 -130.50237775 197.06739253 -125 162 C-125.58136719 161.74734375 -126.16273438 161.4946875 -126.76171875 161.234375 C-136.95879603 155.61085594 -142.28921582 142.26295889 -145.9375 131.8125 C-147 128 -147 128 -147 125 C-148.155 125.103125 -149.31 125.20625 -150.5 125.3125 C-155.66800246 125.3033206 -159.14572744 123.34036956 -163 120 C-166.1336334 115.78918012 -166.65450292 111.60791401 -166.46875 106.46875 C-165.64770478 102.14457851 -163.51116194 99.56393164 -160 97 C-156.48249104 95.35024705 -152.91861572 94 -149 94 C-148.9071875 92.329375 -148.9071875 92.329375 -148.8125 90.625 C-148.0172489 84.06417841 -144.61506411 78.42259616 -141 73 C-141.66 73 -142.32 73 -143 73 C-147 66.375 -147 66.375 -147 63 C-148.60379341 62.94583812 -150.20811406 62.90713362 -151.8125 62.875 C-153.15248047 62.84019531 -153.15248047 62.84019531 -154.51953125 62.8046875 C-157.25402714 62.81714173 -157.25402714 62.81714173 -160 65 C-159.360625 65.61875 -158.72125 66.2375 -158.0625 66.875 C-155.51340732 69.50133791 -155.04166838 70.3333059 -154.8125 74 C-155 77 -155 77 -157 79 C-160.375 79.4375 -160.375 79.4375 -164 79 C-166.4375 76.9375 -166.4375 76.9375 -168 74 C-168.25 70.1875 -168.25 70.1875 -168 67 C-171.465 67.99 -171.465 67.99 -175 69 C-174.566875 69.86625 -174.566875 69.86625 -174.125 70.75 C-173.75375 71.4925 -173.3825 72.235 -173 73 C-172.62875 73.598125 -172.2575 74.19625 -171.875 74.8125 C-170.60464108 77.9883973 -170.68722533 80.62203355 -171 84 C-174 86 -174 86 -176.5 85.8125 C-179.19261112 84.93740139 -180.29019779 84.22274287 -182 82 C-183.1577506 78.52674819 -183.06866652 75.63932552 -183 72 C-187.34184202 72.18464366 -187.34184202 72.18464366 -191 74 C-191.38015799 78.94205393 -191.21685061 82.11759409 -188 86 C-185.42900598 87.34689915 -185.42900598 87.34689915 -183 88 C-183 89.32 -183 90.64 -183 92 C-185.625 92.4375 -185.625 92.4375 -189 92 C-192.70955033 88.91741592 -195.98298481 84.74607089 -197 80 C-197.14285377 76.82864638 -196.952358 74.03847552 -196 71 C-193.37904412 68.31352023 -191.58926598 67.06424098 -187.77734375 66.91015625 C-186.22221307 66.96986911 -184.66744995 67.04012025 -183.11328125 67.12109375 C-179.86595597 66.93501781 -178.26369889 65.19711951 -176 63 C-173.11788698 62.03929566 -171.30149956 61.89418117 -168.3125 61.9375 C-167.10013672 61.95103516 -167.10013672 61.95103516 -165.86328125 61.96484375 C-165.24839844 61.97644531 -164.63351562 61.98804688 -164 62 C-164 61.34 -164 60.68 -164 60 C-160.40116818 57.70343495 -157.73892533 57.9890081 -153.5625 58.3125 C-148.9370621 58.54247757 -148.9370621 58.54247757 -145.0390625 56.44921875 C-143.49018409 54.32391858 -143.49018409 54.32391858 -142 51 C-145.96 49.02 -145.96 49.02 -150 47 C-150.433125 48.423125 -150.433125 48.423125 -150.875 49.875 C-152 53 -152 53 -154 55 C-156.375 55.4375 -156.375 55.4375 -159 55 C-161.3125 52.5 -161.3125 52.5 -163 50 C-161.87548273 47.0280615 -160.77706209 44.66559313 -159 42 C-162.83325617 39.29417212 -165.32538149 38.67386382 -170 39 C-169.97679687 39.62648438 -169.95359375 40.25296875 -169.9296875 40.8984375 C-169.91164063 41.71570313 -169.89359375 42.53296875 -169.875 43.375 C-169.85179687 44.18710937 -169.82859375 44.99921875 -169.8046875 45.8359375 C-170 48 -170 48 -172 50 C-174.375 50.4375 -174.375 50.4375 -177 50 C-179.375 47.875 -179.375 47.875 -181 45 C-180.8125 41.9375 -180.8125 41.9375 -180 39 C-179.814375 38.21625 -179.62875 37.4325 -179.4375 36.625 C-179.293125 36.08875 -179.14875 35.5525 -179 35 C-181.40545638 33.79727181 -182.94996953 33.89928528 -185.625 33.9375 C-186.44226562 33.94652344 -187.25953125 33.95554687 -188.1015625 33.96484375 C-188.72804688 33.97644531 -189.35453125 33.98804688 -190 34 C-191.23133977 40.54050241 -191.23133977 40.54050241 -189.5 46.8125 C-188 50 -188 50 -188.3125 52.4375 C-188.6528125 53.2109375 -188.6528125 53.2109375 -189 54 C-190.8125 53.875 -190.8125 53.875 -193 53 C-196.80093548 47.84158757 -196.68464941 42.1430872 -196 36 C-194.68118757 32.66826334 -193.51277608 31.41306962 -190.75 29.1875 C-187.1888795 27.64974342 -184.85081154 27.52709332 -181 28 C-177.6875 29.9375 -177.6875 29.9375 -175 32 C-172.90616019 33.24800522 -172.90616019 33.24800522 -169.875 32.875 C-164.09713327 33.0613828 -159.66544133 34.24690386 -155.625 38.5 C-152.39849012 41.57286655 -149.66532948 42.21500656 -145.40234375 43.2265625 C-143 44 -143 44 -140.95703125 45.60546875 C-139.10954331 47.193286 -139.10954331 47.193286 -136.859375 47.07421875 C-136.16328125 46.94660156 -135.4671875 46.81898438 -134.75 46.6875 C-132.89375 46.3471875 -132.89375 46.3471875 -131 46 C-130.52382749 39.30713088 -130.60026304 35.22468764 -135 30 C-136.11375 31.2065625 -136.11375 31.2065625 -137.25 32.4375 C-141.17110266 36.09125475 -141.17110266 36.09125475 -144 36 C-146.95079702 33.95083541 -147.87015294 32.66366276 -148.5625 29.125 C-147.791155 24.83974998 -145.97932689 23.12829324 -143 20 C-144.82748903 17.53686261 -146.22976216 16.16571382 -149.26953125 15.51171875 C-151.51479346 15.27481707 -153.74455578 15.09638651 -156 15 C-155.9071875 16.60875 -155.9071875 16.60875 -155.8125 18.25 C-156 22 -156 22 -157.1875 24.4375 C-159 26 -159 26 -161.5 26.5 C-164 26 -164 26 -165.875 24.3125 C-167.32364275 21.33473436 -166.99028366 20.12320231 -166 17 C-165.36562656 15.3207762 -164.70710678 13.64991582 -164 12 C-165.175625 10.88625 -165.175625 10.88625 -166.375 9.75 C-168.56504531 7.45566682 -169.82731386 5.87841142 -171 3 C-168.8125 2.1875 -168.8125 2.1875 -166 2 C-163.53335155 4.1142701 -161.55005274 6.21421038 -159.6875 8.875 C-157.13693907 10.57537395 -155.05981147 9.55679559 -152.18359375 9.09765625 C-148.11130956 8.91553263 -145.13060706 10.49158472 -142 13 C-140.34711735 15.1553922 -138.96347801 17.37383693 -137.57421875 19.70703125 C-135.88866609 22.16216627 -134.15069598 23.67288511 -131.8125 25.5 C-127.55715545 29.02981646 -125.76579142 32.527393 -125 38 C-125.06525154 40.80581631 -125.4461246 43.23062301 -126 46 C-125.2575 46.103125 -124.515 46.20625 -123.75 46.3125 C-120.8026481 47.04933797 -119.21616926 47.94799142 -117 50 C-117 50.66 -117 51.32 -117 52 C-116.2265625 51.66226563 -115.453125 51.32453125 -114.65625 50.9765625 C-94.19662021 42.2153844 -76.86939345 42.69571229 -56 50 C-55.2575 49.21625 -54.515 48.4325 -53.75 47.625 C-51.40578023 45.38733567 -49.85675015 44.30629174 -47 43 C-47.04640625 42.28714844 -47.0928125 41.57429688 -47.140625 40.83984375 C-47.3899618 34.22351357 -47.10048163 30.28746316 -43 25 C-38.1634981 21.17110266 -38.1634981 21.17110266 -34.875 20.6875 C-32.03899779 19.64763252 -31.46428477 17.39174795 -30.1171875 14.84375 C-26.98764335 9.67890791 -22.34705514 7.57618731 -16.890625 5.75390625 C-14.17799806 4.67221824 -12.20076393 2.88636909 -10 1 C-6.52674819 -0.1577506 -3.63932552 -0.06866652 0 0 Z M-14 12 C-13.67 13.32 -13.34 14.64 -13 16 C-12.34 15.67 -11.68 15.34 -11 15 C-11.33 14.01 -11.66 13.02 -12 12 C-12.66 12 -13.32 12 -14 12 Z M-162 19 C-161 21 -161 21 -161 21 Z M-142 26 C-142.33 27.65 -142.66 29.3 -143 31 C-141.45833358 29.62514468 -141.45833358 29.62514468 -140 28 C-140 27.34 -140 26.68 -140 26 C-140.66 26 -141.32 26 -142 26 Z M-41 30 C-42.90261522 33.02254926 -43.22433793 35.03501863 -42.8125 38.5625 C-42.73644531 39.32691406 -42.66039062 40.09132813 -42.58203125 40.87890625 C-41.87911995 43.44052261 -41.10924059 44.40473528 -39 46 C-36.89667109 46.71447643 -36.89667109 46.71447643 -35 47 C-34.60167969 46.52949219 -34.20335937 46.05898438 -33.79296875 45.57421875 C-33.26316406 44.95160156 -32.73335937 44.32898438 -32.1875 43.6875 C-31.40439453 42.76517578 -31.40439453 42.76517578 -30.60546875 41.82421875 C-29.12827531 40.14575321 -27.59960869 38.56117966 -26 37 C-26.94875 36.67 -27.8975 36.34 -28.875 36 C-32.27006117 33.82716085 -32.49193978 33.48109578 -33.375 29.8125 C-33.58125 28.554375 -33.7875 27.29625 -34 26 C-37.2038449 26 -38.68647421 27.91782679 -41 30 Z M-30 26 C-29.67 27.65 -29.34 29.3 -29 31 C-28.01 31.33 -27.02 31.66 -26 32 C-26.33 30.35 -26.66 28.7 -27 27 C-27.99 26.67 -28.98 26.34 -30 26 Z M-409.234375 35.80078125 C-417.06841606 44.4215743 -418.37012623 53.63824893 -418.28125 64.9921875 C-417.93953089 72.06919036 -416.36690425 80.1081273 -411.25 85.3125 C-410.5075 85.869375 -409.765 86.42625 -409 87 C-408.41734375 86.49210937 -407.8346875 85.98421875 -407.234375 85.4609375 C-392.67147923 73.23360049 -376.30857114 68.35894266 -357.5625 67.4375 C-356.73556641 67.39431641 -355.90863281 67.35113281 -355.05664062 67.30664062 C-353.03790451 67.20161967 -351.01897049 67.10041441 -349 67 C-351.95147574 54.91739619 -359.87110451 44.14801934 -370 37 C-381.88410687 30.08746792 -397.54191683 26.37731409 -409.234375 35.80078125 Z M-358 39 C-358 42.66886309 -357.1598058 43.34978643 -354.9375 46.1875 C-352.53319382 49.39957704 -350.78698746 52.31860712 -349.5390625 56.109375 C-347.50055267 62.42753943 -347.50055267 62.42753943 -344 68 C-339.4058353 69.97862321 -335.0964301 70.2887612 -330.15820312 70.71435547 C-316.46429244 72.52678482 -303.18326078 81.19285555 -293 90 C-292.34 90 -291.68 90 -291 90 C-289.05489897 83.2878071 -288.66485779 75.68411437 -291.9375 69.375 C-302.46535972 53.02133026 -319.26259934 40.94870401 -338 36 C-345.22398525 35.01066869 -351.31226247 36.2258274 -358 39 Z M-314 42 C-312.23669281 43.5088401 -310.46409603 45.0068298 -308.6875 46.5 C-307.70136719 47.3353125 -306.71523438 48.170625 -305.69921875 49.03125 C-303.15285712 51.29464174 -303.15285712 51.29464174 -300 51 C-298.89352192 48.78704384 -298.80411632 47.45327301 -298.75 45 C-298.72421875 44.29875 -298.6984375 43.5975 -298.671875 42.875 C-298.78015625 42.25625 -298.8884375 41.6375 -299 41 C-304.4089311 37.39404593 -309.23501975 37.9598937 -314 42 Z M0 39 C0.33 40.65 0.66 42.3 1 44 C1.66 44 2.32 44 3 44 C2.65213292 42.02463255 2.65213292 42.02463255 2 40 C1.34 39.67 0.68 39.34 0 39 Z M-176 41 C-176 42.32 -176 43.64 -176 45 C-175.34 45 -174.68 45 -174 45 C-174.33 43.68 -174.66 42.36 -175 41 C-175.33 41 -175.66 41 -176 41 Z M-17 41 C-17.33 42.32 -17.66 43.64 -18 45 C-16.68 45.33 -15.36 45.66 -14 46 C-14.33 44.35 -14.66 42.7 -15 41 C-15.66 41 -16.32 41 -17 41 Z M-156 47 C-156.99 48.485 -156.99 48.485 -158 50 C-157.01 49.67 -156.02 49.34 -155 49 C-155.33 48.34 -155.66 47.68 -156 47 Z M-134.50830078 72.18359375 C-139.99180519 78.86072514 -144.46001123 86.31282418 -144.265625 95.125 C-144.12662795 97.15015447 -144.12662795 97.15015447 -142.5625 99 C-138.77035361 100.47986201 -135.01044712 100.72018593 -131 100 C-128.62392033 98.95760509 -128.62392033 98.95760509 -127 97 C-126.73314692 94.24516698 -126.73314692 94.24516698 -127.25 91.3125 C-127.37890625 90.31863281 -127.5078125 89.32476562 -127.640625 88.30078125 C-127.75921875 87.54152344 -127.8778125 86.78226563 -128 86 C-125.625 85.375 -125.625 85.375 -123 85 C-121 87 -121 87 -120.91015625 89.09375 C-121.01172928 90.69808298 -121.11589676 92.3022538 -121.22265625 93.90625 C-121.14917969 94.5971875 -121.07570313 95.288125 -121 96 C-117.65418921 98.23054053 -116.35990189 98.29683128 -112.4375 98.3125 C-111.46683594 98.32925781 -110.49617188 98.34601563 -109.49609375 98.36328125 C-108.67238281 98.24339844 -107.84867188 98.12351562 -107 98 C-106.34 97.01 -105.68 96.02 -105 95 C-105.33 94.34 -105.66 93.68 -106 93 C-106.13415472 90.3276379 -106.04318541 87.67749512 -106 85 C-104.68 84.34 -103.36 83.68 -102 83 C-99 85 -99 85 -98.25 87.8125 C-98.01301308 90.83408317 -98.22929769 93.08845796 -99 96 C-95.52102577 98.31931615 -93.96555502 98.04089055 -89.94140625 97.42578125 C-87.73384499 96.94162798 -85.91727332 96.19829583 -84 95 C-84.33 94.01 -84.66 93.02 -85 92 C-85.06740865 90.43881572 -85.08514456 88.8749748 -85.0625 87.3125 C-85.05347656 86.50425781 -85.04445313 85.69601562 -85.03515625 84.86328125 C-85.02355469 84.24839844 -85.01195312 83.63351562 -85 83 C-82.6875 82.375 -82.6875 82.375 -80 82 C-78.515 82.99 -78.515 82.99 -77 84 C-76.70703125 86.3828125 -76.70703125 86.3828125 -76.8125 89.125 C-76.85310547 90.49011719 -76.85310547 90.49011719 -76.89453125 91.8828125 C-76.92933594 92.58148438 -76.96414063 93.28015625 -77 94 C-72.31034294 95.11658501 -69.46236469 94.80619523 -65 93 C-65.495 91.9790625 -65.495 91.9790625 -66 90.9375 C-67.19004561 87.44174101 -67.27702803 84.67062141 -67 81 C-66.34 80.34 -65.68 79.68 -65 79 C-62 79.1875 -62 79.1875 -59 80 C-56.55423173 83.66865241 -56.76392746 85.67200343 -57 90 C-57.495 90.99 -57.495 90.99 -58 92 C-56.56260487 92.02712066 -55.12506137 92.04645067 -53.6875 92.0625 C-52.88699219 92.07410156 -52.08648438 92.08570313 -51.26171875 92.09765625 C-48.83138666 92.09657855 -48.83138666 92.09657855 -46 91 C-46 87.04 -46 83.08 -46 79 C-44.02 79 -42.04 79 -40 79 C-37.67376352 82.48935471 -37.74927506 83.90482598 -38 88 C-38.226875 88.721875 -38.45375 89.44375 -38.6875 90.1875 C-39.20670236 92.07159398 -39.20670236 92.07159398 -38 93.8125 C-34.90521904 95.6500262 -32.40384837 94.7064591 -29 94 C-29.82797774 82.82230056 -34.0240207 73.93805864 -42 66 C-71.66528524 42.20715309 -108.70836491 43.05139167 -134.50830078 72.18359375 Z M-52 53 C-49.17082684 55.93395735 -46.21170443 58.49330386 -43 61 C-39.78829557 63.50669614 -36.82917316 66.06604265 -34 69 C-32.35 68.34 -30.7 67.68 -29 67 C-27.70266085 62.47794631 -27.70266085 62.47794631 -29.0234375 58.1171875 C-33.29520729 52.89613553 -37.86494441 49.42509228 -44.6875 48.5 C-48.50223953 49.07580974 -49.66287776 50.00848353 -52 53 Z M-140.765625 58.18359375 C-142.1326878 60.19525262 -142.74701967 61.57998065 -143 64 C-141.14749996 67.23761134 -141.14749996 67.23761134 -139 70 C-134.56342938 66.21042926 -130.15976972 62.38987551 -125.796875 58.515625 C-124 57 -124 57 -121 55 C-122.3089572 51.87802522 -122.3089572 51.87802522 -125 50 C-132.61586374 49.32303433 -136.05348803 52.75492049 -140.765625 58.18359375 Z M-8 62 C-12.06024321 64.03802135 -12.06024321 64.03802135 -14 68 C-10.06924356 67.42547254 -10.06924356 67.42547254 -7 65 C-7.33 64.01 -7.66 63.02 -8 62 Z M-163 69 C-163 70.65 -163 72.3 -163 74 C-162.01 74.33 -161.02 74.66 -160 75 C-160.34444881 72.52733235 -160.34444881 72.52733235 -161 70 C-161.66 69.67 -162.32 69.34 -163 69 Z M-390.375 78.8125 C-391.05127441 79.17158447 -391.72754883 79.53066895 -392.42431641 79.90063477 C-393.72770093 80.60733283 -395.02553401 81.32440838 -396.31640625 82.05371094 C-397.69046545 82.82602148 -399.09194114 83.54938289 -400.5 84.2578125 C-402.7743715 85.68877124 -403.73651901 86.60856712 -405 89 C-406.28450604 94.65301044 -406.73176945 100.22085096 -407 106 C-407.06960938 107.09570312 -407.13921875 108.19140625 -407.2109375 109.3203125 C-407.70108778 123.45926282 -403.19961539 136.73502141 -394.5 147.875 C-385.85369248 156.93069708 -371.87104669 159.55001802 -360 162 C-359.11828125 162.18820312 -358.2365625 162.37640625 -357.328125 162.5703125 C-345.32115867 164.46402867 -332.01430973 160.50502171 -322 154 C-306.26616164 142.44044529 -299.80140587 125.64744997 -295.5625 107.3125 C-295.3862207 106.5582373 -295.20994141 105.80397461 -295.02832031 105.02685547 C-294.18546283 101.07896805 -293.48918135 97.80622553 -295 94 C-305.59710338 81.61157131 -326.08595938 73.4260248 -342 72 C-346.52149812 71.75579113 -351.03489412 71.66380805 -355.5625 71.625 C-356.68624023 71.61098145 -357.80998047 71.59696289 -358.96777344 71.58251953 C-370.08061062 71.64571589 -380.51681258 73.55353129 -390.375 78.8125 Z M-178 76 C-177.67 77.65 -177.34 79.3 -177 81 C-176.34 81 -175.68 81 -175 81 C-175.66 79.35 -176.32 77.7 -177 76 C-177.33 76 -177.66 76 -178 76 Z M-63 83 C-63 84.65 -63 86.3 -63 88 C-62.01 88.495 -62.01 88.495 -61 89 C-61 87.02 -61 85.04 -61 83 C-61.66 83 -62.32 83 -63 83 Z M-82 86 C-81.67 87.32 -81.34 88.64 -81 90 C-80.67 89.01 -80.34 88.02 -80 87 C-80.66 86.67 -81.32 86.34 -82 86 Z M-103 88 C-102 90 -102 90 -102 90 Z M-416.9140625 92.00390625 C-421.74357017 96.40338927 -424.68982859 99.94998116 -425.375 106.6875 C-425.26386397 109.89410629 -425.26386397 109.89410629 -423.8125 111.8125 C-419.27382222 114.78611647 -416.62408278 115 -411 115 C-410.67 107.41 -410.34 99.82 -410 92 C-414.60062927 90.53462204 -414.60062927 90.53462204 -416.9140625 92.00390625 Z M-44 94 C-44.66 94.33 -45.32 94.66 -46 95 C-50.31595919 96.43865306 -54.71697529 96.73862564 -59.125 95.3125 C-61.21414487 94.76582822 -61.21414487 94.76582822 -63.625 96.4375 C-68.4910364 98.69029463 -73.93137773 98.92455717 -79.11328125 97.36328125 C-81.32247402 96.71459415 -81.32247402 96.71459415 -84.0625 98.9375 C-88.75950969 101.88583942 -93.62718048 101.50190198 -99 101 C-99.72574219 100.80921875 -100.45148438 100.6184375 -101.19921875 100.421875 C-103.09486826 99.78727831 -103.09486826 99.78727831 -105.125 100.9375 C-110.37168979 102.87649405 -115.99608972 102.78584717 -121.1875 100.75 C-124.18401923 99.59644082 -124.18401923 99.59644082 -127.25 101.875 C-127.82878906 102.2565625 -128.40757812 102.638125 -129.00390625 103.03125 C-132.75993022 104.85413443 -136.936465 104.58536685 -141 104 C-143.30078125 102.9765625 -143.30078125 102.9765625 -145 102 C-144.51921868 121.42356516 -141.39418915 140.381001 -127.625 155.125 C-119.21092501 162.7507034 -110.00279887 165.09975817 -99 167 C-97.72125 167.226875 -96.4425 167.45375 -95.125 167.6875 C-79.71434711 169.20872325 -67.20417289 168.05195012 -54.6015625 158.19140625 C-38.2954782 144.456101 -32.08833735 126.42722749 -30.1640625 105.60546875 C-29.71404542 102.16573494 -29.71404542 102.16573494 -31 100 C-32.97231908 99.53979221 -34.94514006 99.08147956 -36.921875 98.640625 C-39.84831446 97.73848953 -41.79044409 96.07145867 -44 94 Z M-156.0625 100.75 C-157.10083984 101.23726563 -157.10083984 101.23726563 -158.16015625 101.734375 C-160.39283112 103.27022778 -161.08829931 104.46537662 -162 107 C-161.85927258 110.87000416 -161.32136205 113.42154831 -159.4375 116.8125 C-156.09363092 119.81340815 -153.39080963 120.19501824 -149 121 C-147.73201507 116.31315199 -148.08894937 111.96705063 -148.4375 107.1875 C-148.48970703 106.39923828 -148.54191406 105.61097656 -148.59570312 104.79882812 C-148.72459269 102.86548471 -148.86149494 100.93267836 -149 99 C-152.07868526 99 -153.35430616 99.43386841 -156.0625 100.75 Z M-290 100 C-290.65035371 102.51974253 -291.29537493 105.04065935 -291.9375 107.5625 C-292.11990234 108.26697266 -292.30230469 108.97144531 -292.49023438 109.69726562 C-293.6115514 114.12137098 -294.43456329 118.47055438 -295 123 C-289.57558638 122.56604691 -286.23941629 121.45068767 -282 118 C-279.95433541 115.42068378 -280.0004074 114.02159239 -279.9375 110.6875 C-281.33873072 105.82440515 -284.00140822 103.03819098 -288 100 C-288.66 100 -289.32 100 -290 100 Z M-26 107 C-26.99 112.61 -27.98 118.22 -29 124 C-24.05291181 122.76322795 -22.94176712 121.05486819 -20 117 C-18.85912001 115.02895838 -18.85912001 115.02895838 -19 113 C-20.08333333 110.25 -20.08333333 110.25 -22 108 C-23.32 107.67 -24.64 107.34 -26 107 Z M-395.625 167.1875 C-396.68444824 167.92403809 -397.74389648 168.66057617 -398.83544922 169.41943359 C-417.00818781 180.61671969 -417.00818781 180.61671969 -429.0625 196.75 C-429.51091964 206.1847492 -424.89065288 213.97379958 -419 221 C-418.34 221.33 -417.68 221.66 -417 222 C-415.32852995 221.0035467 -413.65857429 220.00064086 -412.046875 218.91015625 C-409.30475258 217.69085372 -406.96446942 217.86182558 -404 218 C-403.59225369 228.40508166 -404.35700309 238.28667503 -405.93286133 248.57641602 C-406.94430025 255.42691646 -407.16369987 262.07913334 -407 269 C-403.31470951 269.65885613 -399.62645251 270.29949445 -395.9375 270.9375 C-394.91849609 271.11990234 -393.89949219 271.30230469 -392.84960938 271.49023438 C-375.38146929 274.48321788 -357.8663448 274.15717505 -340.20001221 274.12695312 C-337.49128352 274.12432433 -334.78258722 274.12918442 -332.07386303 274.13394356 C-328.83439537 274.1384089 -325.59493742 274.13529398 -322.35546875 274.1328125 C-321.14416794 274.13483673 -319.93286713 274.13686096 -318.68486023 274.13894653 C-317.57222305 274.13579437 -316.45958588 274.13264221 -315.31323242 274.12939453 C-314.33255295 274.12859894 -313.35187347 274.12780334 -312.34147644 274.12698364 C-309.97742847 274.15459828 -309.97742847 274.15459828 -308 273 C-305.95637046 265.90388535 -305.63163738 258.42053526 -305.3671875 251.08203125 C-305.32562531 250.09877365 -305.28406311 249.11551605 -305.24124146 248.10246277 C-305.11198481 245.00605255 -304.9933016 241.90934608 -304.875 238.8125 C-304.78846383 236.6946326 -304.70123041 234.57679357 -304.61328125 232.45898438 C-304.40080451 227.3062819 -304.19779968 222.15328591 -304 217 C-300.09330571 218.43828546 -297.80286291 219.88570788 -295 223 C-289.87924053 218.50712657 -285.78725796 213.60879307 -282.0625 207.9375 C-281.47867554 207.0719751 -281.47867554 207.0719751 -280.88305664 206.18896484 C-278.31670016 202.1588093 -277.02783361 198.79294749 -277 194 C-285.37265249 179.29003596 -306.68452663 166.10288552 -321.9296875 160.57421875 C-327.10465289 159.60638171 -330.51768155 161.60266243 -335 164 C-347.25434891 168.15401658 -359.57467107 166.07810779 -371.80859375 163.0703125 C-372.86336914 162.82172485 -372.86336914 162.82172485 -373.93945312 162.56811523 C-376 162 -376 162 -377.90429688 161.16821289 C-385.08657371 158.33857998 -389.90061355 163.06229577 -395.625 167.1875 Z M-120 166 C-121.50085134 167.50085134 -121.42918449 169.01952484 -121.76611328 171.1027832 C-121.9128952 171.98628952 -122.05967712 172.86979584 -122.21090698 173.78007507 C-122.3707608 174.75628311 -122.53061462 175.73249115 -122.6953125 176.73828125 C-124.88456879 189.68949753 -127.44439193 202.55377396 -130.09912109 215.41674805 C-130.87593752 219.19205632 -131.63924401 222.96994542 -132.40234375 226.74804688 C-135.26496016 240.74469841 -138.56665667 254.41487071 -143 268 C-130.7534754 275.50504518 -117.59190547 276.67965331 -103.5625 276.4375 C-102.83076569 276.4310144 -102.09903137 276.42452881 -101.34512329 276.41784668 C-80.21716055 276.22676507 -57.17373729 274.7245791 -37 268 C-37.96005298 261.57336373 -39.38359163 255.34192499 -41.171875 249.09765625 C-41.47786621 248.02689095 -41.47786621 248.02689095 -41.79003906 246.93449402 C-42.00047852 246.19854507 -42.21091797 245.46259613 -42.42773438 244.7043457 C-46.57848527 230.18774035 -50.08694607 215.7222399 -52.5 200.8125 C-52.61742554 200.09289093 -52.73485107 199.37328186 -52.85583496 198.63186646 C-54.60142747 187.79472408 -55.85961719 176.91566144 -57 166 C-60.27548072 167.06418572 -63.40442411 168.17737899 -66.5625 169.5625 C-81.82029832 175.94303384 -102.65558647 170.87889881 -118.015625 166.453125 C-118.67046875 166.30359375 -119.3253125 166.1540625 -120 166 Z M-482.1875 257.1875 C-485.10387275 260.10387275 -490 265.5313766 -490 270 C-482.95032078 269.74364803 -478.30911384 267.68451221 -473 263 C-470.90629257 260.51521282 -469.08452993 258.07906775 -468 255 C-468.30947737 252.80943648 -468.30947737 252.80943648 -469 251 C-473.75480703 251 -478.40719909 254.59317585 -482.1875 257.1875 Z M-241 258 C-240.50185032 262.54867826 -238.85018726 264.82416453 -235.8125 268.1875 C-235.05582031 269.04730469 -234.29914063 269.90710938 -233.51953125 270.79296875 C-230.75817227 273.2118336 -228.52523119 274.08680697 -225 275 C-226.06909464 267.82179311 -230.30935642 263.34016352 -236 259 C-238.67065563 258.19789869 -238.67065563 258.19789869 -241 258 Z M-214.37109375 269.15234375 C-216.79757091 271.90467875 -217.86623828 274.52785475 -219 278 C-210.39289736 276.546356 -204.86374351 273.61102943 -199.2578125 266.81640625 C-197.55805449 264.36178676 -196.70387371 261.88588219 -196 259 C-202.63005011 259 -209.70936749 264.86732264 -214.37109375 269.15234375 Z M12 264 C12.45237933 268.97617265 14.79663928 272.32416719 18 276 C20.62864751 277.97148563 21.47545507 278.07152885 24.75 277.625 C25.4925 277.41875 26.235 277.2125 27 277 C28.26913411 274.16830871 28.26913411 274.16830871 27.3671875 271.98046875 C25.6096454 269.43454348 23.91191701 268.62326067 21.125 267.3125 C20.26132813 266.89613281 19.39765625 266.47976563 18.5078125 266.05078125 C16.33204681 265.13912865 14.30185392 264.48713653 12 264 Z M-144 273 C-146.74856857 279.93970885 -148.83784458 287.01013706 -150.875 294.1875 C-151.22433594 295.41605713 -151.57367187 296.64461426 -151.93359375 297.91040039 C-154.08516172 305.55551287 -156.13820451 313.2165246 -158 320.9375 C-158.31106689 322.21306763 -158.31106689 322.21306763 -158.62841797 323.5144043 C-160.00251516 329.19472726 -160.00251516 329.19472726 -160 335 C-151.91654984 342.04042434 -137.06656869 341.07401889 -127 341 C-126.88930176 340.21987549 -126.77860352 339.43975098 -126.66455078 338.63598633 C-126.15213973 335.02804736 -125.63857502 331.42027346 -125.125 327.8125 C-124.95097656 326.58595703 -124.77695313 325.35941406 -124.59765625 324.09570312 C-123.7486575 318.13698971 -122.87175352 312.18772032 -121.91015625 306.24609375 C-121.03205775 300.58045325 -120.55397473 294.97514643 -120.3125 289.25 C-120.24192383 287.9196875 -120.24192383 287.9196875 -120.16992188 286.5625 C-119.99992743 283.28198081 -119.99992743 283.28198081 -120 280 C-121.53801353 278.46198647 -123.24986769 278.54615798 -125.375 278.1875 C-130.39955559 277.23906083 -134.99244238 275.65635055 -139.75 273.8046875 C-141.91560376 272.8877498 -141.91560376 272.8877498 -144 273 Z M-44.3125 273.375 C-48.53118096 274.42354556 -52.70265819 275.3368701 -57 276 C-56.2178886 296.72595202 -55.13668129 317.47809584 -52 338 C-48.08153514 339.02275098 -45.27637699 338.88928156 -41.33203125 338.0390625 C-40.27435547 337.81476563 -39.21667969 337.59046875 -38.12695312 337.359375 C-37.03318359 337.11703125 -35.93941406 336.8746875 -34.8125 336.625 C-33.70712891 336.39039063 -32.60175781 336.15578125 -31.46289062 335.9140625 C-26.08576349 334.89363402 -26.08576349 334.89363402 -21 333 C-21.56793567 325.85286154 -23.14603429 319.42112759 -25.1875 312.5625 C-28.22187508 302.14814738 -30.76878938 291.68941521 -32.95776367 281.06469727 C-33.18310791 280.02240967 -33.40845215 278.98012207 -33.640625 277.90625 C-33.83172852 276.98134766 -34.02283203 276.05644531 -34.21972656 275.10351562 C-34.4772168 274.40935547 -34.73470703 273.71519531 -35 273 C-38.73284859 271.75571714 -40.52342677 272.42226878 -44.3125 273.375 Z M-405 274 C-405.86870995 278.65584893 -406.28213596 283.26999994 -406.53515625 287.9921875 C-406.57835999 288.76347992 -406.62156372 289.53477234 -406.66607666 290.32943726 C-406.8038816 292.84436176 -406.9344887 295.35955863 -407.0625 297.875 C-407.10635834 298.73283081 -407.15021667 299.59066162 -407.19540405 300.4744873 C-407.77416333 312.03248058 -408.22455073 323.58796041 -408.29855347 335.16119385 C-408.30781557 336.54840092 -408.3218776 337.93558463 -408.34085083 339.32269287 C-408.36432336 341.24104122 -408.36440757 343.15963338 -408.36328125 345.078125 C-408.36626221 346.15481445 -408.36924316 347.23150391 -408.37231445 348.34082031 C-408.21484699 351.0104768 -408.21484699 351.0104768 -406.66479492 352.79980469 C-399.02503838 358.3075101 -386.7076273 357.0980424 -377.75 357.1875 C-376.99356201 357.20055176 -376.23712402 357.21360352 -375.45776367 357.22705078 C-370.60171187 357.23451589 -366.55689122 356.74063992 -362 355 C-359.46540406 351.19810609 -359.44862041 347.82257078 -359.1484375 343.39453125 C-359.08467926 342.55532639 -359.02092102 341.71612152 -358.95523071 340.85148621 C-358.75358608 338.17236192 -358.56415053 335.49253253 -358.375 332.8125 C-358.24038676 330.99538301 -358.10497971 329.17832464 -357.96875 327.36132812 C-357.63662021 322.90817981 -357.31543688 318.45436061 -357 314 C-356.01 314 -355.02 314 -354 314 C-353.83395264 315.04865234 -353.66790527 316.09730469 -353.49682617 317.17773438 C-352.87342383 321.10034006 -352.23897309 325.0210944 -351.60131836 328.94140625 C-351.32783344 330.63233368 -351.05727219 332.32373686 -350.78979492 334.015625 C-350.40286905 336.45967071 -350.00515607 338.90176273 -349.60546875 341.34375 C-349.48970993 342.08991577 -349.37395111 342.83608154 -349.25468445 343.6048584 C-348.40381025 348.71546375 -347.24182525 353.30728723 -345 358 C-341.20849651 360.51732665 -337.25942375 360.24501059 -332.80078125 360.23046875 C-332.12452194 360.23001053 -331.44826263 360.22955231 -330.75151062 360.2290802 C-329.3303348 360.22607295 -327.90916182 360.21823268 -326.48803711 360.20581055 C-324.30896396 360.18747024 -322.13031444 360.18530167 -319.95117188 360.18554688 C-313.2737869 360.55747192 -313.2737869 360.55747192 -307 359 C-306.86930982 342.30382663 -307.03134519 325.62866653 -307.4375 308.9375 C-307.45714813 308.08341553 -307.47679626 307.22933105 -307.49703979 306.34936523 C-307.71879505 296.86439705 -308.07603322 287.44795027 -309 278 C-309.55471481 278.00222061 -310.10942963 278.00444122 -310.68095398 278.00672913 C-316.57204529 278.02923902 -322.46312398 278.04409201 -328.35424805 278.05493164 C-330.53882342 278.05989186 -332.72339561 278.06666212 -334.90795898 278.07543945 C-353.50449234 278.14816572 -372.12960224 278.18730416 -390.5625 275.4375 C-392.48015813 275.1631843 -394.3981165 274.8909571 -396.31640625 274.62109375 C-397.12537354 274.5017749 -397.93434082 274.38245605 -398.76782227 274.25952148 C-401.28767048 273.9230094 -401.28767048 273.9230094 -405 274 Z M-63 277 C-65.43863078 277.00326176 -65.43863078 277.00326176 -68.2265625 277.4609375 C-69.2578125 277.60273437 -70.2890625 277.74453125 -71.3515625 277.890625 C-72.97191406 278.13039063 -72.97191406 278.13039063 -74.625 278.375 C-76.25695313 278.60316406 -76.25695313 278.60316406 -77.921875 278.8359375 C-80.61614461 279.2140806 -83.3085289 279.60250403 -86 280 C-86.15238731 290.75628683 -85.74200018 301.44888857 -85.20043945 312.1887207 C-85.06152286 314.95697199 -84.92985455 317.72550583 -84.79882812 320.49414062 C-84.71136673 322.27606279 -84.62349105 324.05796467 -84.53515625 325.83984375 C-84.47727684 327.06500954 -84.47727684 327.06500954 -84.41822815 328.31492615 C-84.18010846 332.933224 -83.72790997 337.43256494 -83 342 C-79.99978513 341.85785272 -76.99988211 341.71138304 -74 341.5625 C-73.16082031 341.52318359 -72.32164062 341.48386719 -71.45703125 341.44335938 C-66.25986542 341.18148668 -61.15542847 340.7100648 -56 340 C-56.55882656 333.220119 -57.13213272 326.44158718 -57.71875 319.6640625 C-57.84766041 318.17187536 -57.97656659 316.67968785 -58.10546875 315.1875 C-58.30239058 312.9084841 -58.4996091 310.62949585 -58.69775391 308.35058594 C-58.89322295 306.10099431 -59.08728618 303.85128435 -59.28125 301.6015625 C-59.34473633 300.87600159 -59.40822266 300.15044067 -59.47363281 299.40289307 C-59.77619054 295.88694657 -60.04711738 292.37402085 -60.24609375 288.85058594 C-60.31957031 287.58762695 -60.39304687 286.32466797 -60.46875 285.0234375 C-60.52482422 283.90630371 -60.58089844 282.78916992 -60.63867188 281.63818359 C-60.75015137 278.84677108 -60.75015137 278.84677108 -63 277 Z M-116 280 C-116.226875 283.25875 -116.45375 286.5175 -116.6875 289.875 C-117.63870308 302.26634817 -119.42468128 314.49920812 -121.32299805 326.77294922 C-121.43293594 327.48810699 -121.54287384 328.20326477 -121.65614319 328.94009399 C-121.95807087 330.89584462 -122.26524181 332.85078372 -122.57275391 334.80566406 C-123.0883804 338.12365211 -123.0883804 338.12365211 -123 342 C-111.45 342 -99.9 342 -88 342 C-87.96767448 329.03973201 -87.96767448 329.03973201 -88.40234375 316.1171875 C-88.46537437 314.87402267 -88.46537437 314.87402267 -88.52967834 313.60574341 C-88.61764911 311.89037937 -88.70759559 310.17511547 -88.79956055 308.45996094 C-88.93918819 305.84336364 -89.07056203 303.22643641 -89.20117188 300.609375 C-89.28857939 298.92445404 -89.37645256 297.23955715 -89.46484375 295.5546875 C-89.50343002 294.78277069 -89.5420163 294.01085388 -89.58177185 293.21554565 C-89.64172081 292.12247604 -89.64172081 292.12247604 -89.70288086 291.00732422 C-89.73619003 290.37607635 -89.76949921 289.74482849 -89.80381775 289.0944519 C-90.0581783 286.37888546 -90.55160947 283.69034316 -91 281 C-99.25 280.67 -107.5 280.34 -116 280 Z M-402.1875 408.8125 C-403.22970703 408.88275391 -404.27191406 408.95300781 -405.34570312 409.02539062 C-410.82090498 409.46048295 -415.3071585 409.86880996 -420 413 C-420.33 413.66 -420.66 414.32 -421 415 C-416.99405593 419.76435095 -413.22151413 420.0619046 -407.265625 420.81640625 C-401.85046275 421.12084719 -398.1053731 419.8063131 -393.0625 417.875 C-389.8669101 414.96991827 -390.20797081 412.22873983 -390 408 C-394.05693045 408 -398.14545083 408.50081801 -402.1875 408.8125 Z M-328 414 C-325.32971692 417.75817618 -323.4917616 419.79878922 -319 421 C-316.32623156 421.34286172 -313.74477715 421.5955885 -311.0625 421.75 C-310.37220703 421.80542969 -309.68191406 421.86085938 -308.97070312 421.91796875 C-304.53236229 422.19562799 -301.06703792 421.8311013 -297 420 C-296.03122943 417.96756452 -296.03122943 417.96756452 -296 416 C-305.54487759 408.25281236 -316.9652718 411.7642054 -328 414 Z M-146 419 C-146 420.32 -146 421.64 -146 423 C-139.96044431 425.74525259 -135.49440388 426.73106651 -129 425 C-126.32285171 423.89411258 -124.39882842 422.69917013 -122 421 C-121.67 420.01 -121.34 419.02 -121 418 C-124.91620319 416.72850546 -128.86572229 416.81621174 -132.9375 416.8125 C-133.64068359 416.80025391 -134.34386719 416.78800781 -135.06835938 416.77539062 C-139.16682735 416.76386728 -142.31561442 417.17583258 -146 419 Z M-68 419 C-66.92598892 421.91517292 -66.22189824 423.77810176 -64 426 C-57.14258042 427.8107326 -49.74322105 428.23824565 -43.3125 425 C-42.219375 424.34 -41.12625 423.68 -40 423 C-40.33 422.01 -40.66 421.02 -41 420 C-44.55868478 418.81377174 -47.97411851 418.60178757 -51.6875 418.375 C-52.40486328 418.32996338 -53.12222656 418.28492676 -53.86132812 418.23852539 C-58.74402993 417.97188375 -63.20472119 418.10088522 -68 419 Z " fill="#000000" transform="translate(1275,244)"/>
<path d="M0 0 C1.99609375 0.08984375 1.99609375 0.08984375 4 1 C5.16015625 3.00390625 5.16015625 3.00390625 6.0625 5.5625 C6.55169922 6.90634766 6.55169922 6.90634766 7.05078125 8.27734375 C7.36402344 9.17582031 7.67726563 10.07429688 8 11 C8.58012209 12.54287791 9.16308525 14.08469322 9.75 15.625 C10.1625 16.73875 10.575 17.8525 11 19 C11.90363281 19.03738281 12.80726563 19.07476562 13.73828125 19.11328125 C14.91777344 19.17902344 16.09726562 19.24476563 17.3125 19.3125 C18.48425781 19.37050781 19.65601563 19.42851562 20.86328125 19.48828125 C24.0983686 20.01604768 25.08684881 20.42380724 27 23 C24.64338778 27.71322444 21.27928084 30.99934765 17 34 C16.34 34 15.68 34 15 34 C15.2165625 34.85722656 15.433125 35.71445312 15.65625 36.59765625 C18.42179262 47.9543058 18.42179262 47.9543058 18 54 C15.08629339 54.8494021 13.51549466 55.20294391 10.6484375 54.07421875 C9.52308594 53.38779297 9.52308594 53.38779297 8.375 52.6875 C7.61960937 52.23761719 6.86421875 51.78773438 6.0859375 51.32421875 C4.37606971 50.23874088 2.68516583 49.12344389 1 48 C-4.153713 48.20210639 -7.64949768 49.75957282 -12.06640625 52.14453125 C-14.75834917 53.33551206 -17.10586531 53.28941347 -20 53 C-20.26819117 49.24532364 -20.1374188 47.26426692 -18.375 43.875 C-16.69631846 41.20737172 -16.69631846 41.20737172 -17.6015625 39.10546875 C-19.39833314 36.40027496 -21.53858488 34.55188421 -24 32.4375 C-26.81722892 30.00927798 -28.92978755 28.10531867 -31 25 C-31.125 22.3125 -31.125 22.3125 -31 20 C-28.59940183 18.79970092 -27.10639351 18.88540257 -24.4296875 18.90234375 C-23.53378906 18.90556641 -22.63789062 18.90878906 -21.71484375 18.91210938 C-20.77769531 18.92048828 -19.84054687 18.92886719 -18.875 18.9375 C-17.93011719 18.94201172 -16.98523438 18.94652344 -16.01171875 18.95117188 C-13.67441613 18.96297643 -11.33723939 18.97944241 -9 19 C-8.89558594 18.30261719 -8.79117188 17.60523438 -8.68359375 16.88671875 C-7.89559143 13.55909753 -6.61049106 10.85927947 -5.0625 7.8125 C-4.53785156 6.76707031 -4.01320313 5.72164063 -3.47265625 4.64453125 C-2 2 -2 2 0 0 Z M0 8 C-0.84026396 9.76755526 -1.67198722 11.53917263 -2.5 13.3125 C-3.19609375 14.79169922 -3.19609375 14.79169922 -3.90625 16.30078125 C-5.18777472 18.97800126 -5.18777472 18.97800126 -5 22 C-11.6 22.33 -18.2 22.66 -25 23 C-22.55066481 27.89867037 -19.36044368 30.30774877 -15.21484375 33.78125 C-12.98661392 36.01340968 -12.21024532 36.90815699 -12 40 C-12.588562 42.354248 -13.24592899 44.69342986 -14 47 C-9.88422017 45.71282249 -9.88422017 45.71282249 -6 43.875 C-2.98587475 42.5563202 -1.29090998 42.50325887 2 43 C4.46676898 44.43097559 6.74909952 45.99933842 9.046875 47.6875 C10.88447416 49.18592035 10.88447416 49.18592035 13 49 C12.79761719 47.97519531 12.59523438 46.95039063 12.38671875 45.89453125 C12.15216318 44.53410896 11.91917226 43.17341626 11.6875 41.8125 C11.55021484 41.13896484 11.41292969 40.46542969 11.27148438 39.77148438 C10.94921875 37.76953125 10.94921875 37.76953125 11 34 C13.26953125 31.26171875 13.26953125 31.26171875 16 29 C16.99 27.68 17.98 26.36 19 25 C14.71 24.34 10.42 23.68 6 23 C5.25130208 19.97265625 4.50260417 16.9453125 3.75390625 13.91796875 C3.23922588 11.9259157 2.65062825 9.95188476 2 8 C1.34 8 0.68 8 0 8 Z " fill="#000000" transform="translate(922,442)"/>
<path d="M0 0 C1.32 0 2.64 0 4 0 C4.35191406 0.73605469 4.70382812 1.47210938 5.06640625 2.23046875 C8.83293082 9.67500947 11.98612031 14.0212076 19.78125 17.09765625 C26.47388693 18.97386879 34.03669376 19.21707221 40.5 16.5625 C43.92643155 13.05040767 46.44854429 9.17301341 49 5 C49.66 4.01 50.32 3.02 51 2 C51.99 2 52.98 2 54 2 C55 5 55 5 54.03125 7.48828125 C50.07846422 14.77875093 46.52635381 20.08500416 38.75 23.375 C27.7372925 25.21045125 19.62119835 23.24813504 9.6875 18.375 C4.83629335 14.08788715 1.64179439 8.65886249 0.125 2.375 C0.08375 1.59125 0.0425 0.8075 0 0 Z " fill="#000000" transform="translate(1155,371)"/>
<path d="M0 0 C1.32 0.33 2.64 0.66 4 1 C0.96031391 9.64790693 -5.66866424 15.51176696 -13.5625 19.84375 C-21.24207985 23.48662762 -28.55893497 23.93406589 -36.6484375 21.05859375 C-43.72404686 17.83951021 -48.98106189 13.28179053 -52 6 C-52 4.68 -52 3.36 -52 2 C-50.68 2 -49.36 2 -48 2 C-46.7265625 3.57421875 -46.7265625 3.57421875 -45.625 5.6875 C-42.67731237 10.78059942 -39.61856251 13.77800416 -34.1875 16.3125 C-27.12993532 17.83471983 -20.3365457 17.73633656 -14 14 C-8.69711667 9.836314 -4.11462126 5.34145788 0 0 Z " fill="#000000" transform="translate(948,358)"/>
<path d="M0 0 C0.763125 0.20625 1.52625 0.4125 2.3125 0.625 C2.4375 3 2.4375 3 2.3125 5.625 C0.3125 7.625 0.3125 7.625 -2.25 7.8125 C-4.6875 7.625 -4.6875 7.625 -5.6875 6.625 C-5.9375 4.1875 -5.9375 4.1875 -5.6875 1.625 C-2.6875 -0.375 -2.6875 -0.375 0 0 Z " fill="#000000" transform="translate(904.6875,338.375)"/>
<path d="M0 0 C2.625 0.375 2.625 0.375 5 1 C5.33 1.99 5.66 2.98 6 4 C5.01 5.485 5.01 5.485 4 7 C1.375 7.1875 1.375 7.1875 -1 7 C-1.625 4.625 -1.625 4.625 -2 2 C-1.34 1.34 -0.68 0.68 0 0 Z " fill="#000000" transform="translate(937,340)"/>
<path d="M0 0 C0.598125 0.20625 1.19625 0.4125 1.8125 0.625 C1.8125 2.275 1.8125 3.925 1.8125 5.625 C-0.1675 5.955 -2.1475 6.285 -4.1875 6.625 C-4.5175 4.975 -4.8475 3.325 -5.1875 1.625 C-2.1875 -0.375 -2.1875 -0.375 0 0 Z " fill="#000000" transform="translate(1202.1875,355.375)"/>
<path d="M0 0 C2.125 0.375 2.125 0.375 4 1 C4 2.98 4 4.96 4 7 C0.25 8.125 0.25 8.125 -2 7 C-2.125 4.625 -2.125 4.625 -2 2 C-1.34 1.34 -0.68 0.68 0 0 Z " fill="#000000" transform="translate(1166,355)"/>
</svg>
