<?xml version="1.0" encoding="UTF-8"?>
<svg version="1.1" xmlns="http://www.w3.org/2000/svg" width="164" height="103">
<path d="M0 0 C2.92440241 1.49786465 4.00474476 2.4306528 5.5625 5.3125 C6.62344602 9.40472035 6.84041079 11.58993195 5.3125 15.5625 C3.85578434 17.85162461 2.68910475 19.64820063 0.5625 21.3125 C-0.0975 21.3125 -0.7575 21.3125 -1.4375 21.3125 C-0.54330446 24.901826 0.38170184 28.48250706 1.3125 32.0625 C1.69148438 33.58617188 1.69148438 33.58617188 2.078125 35.140625 C2.3359375 36.1203125 2.59375 37.1 2.859375 38.109375 C3.20500488 39.46047363 3.20500488 39.46047363 3.55761719 40.83886719 C4.97348252 44.32418001 7.06948717 46.56599359 10.4375 48.25 C13.86112896 48.35069497 15.69208463 47.14956583 18.5625 45.3125 C20.72327184 43.09770886 22.67157077 40.75997932 24.5625 38.3125 C24.2325 37.9825 23.9025 37.6525 23.5625 37.3125 C23.25 34.4375 23.25 34.4375 23.5625 31.3125 C25.25 29.3125 25.25 29.3125 27.5625 28.3125 C30.25 28.875 30.25 28.875 32.5625 30.3125 C33.79577219 32.77904438 33.69909297 33.87788601 32.875 36.5 C31.24620625 38.7492866 30.20653854 38.77938429 27.5625 39.3125 C27.95984155 41.25405532 28.38113041 43.19072038 28.8125 45.125 C29.04453125 46.20394531 29.2765625 47.28289063 29.515625 48.39453125 C30.69237485 51.67450192 31.50171595 52.71508351 34.5625 54.3125 C42.15282493 55.42962444 49.19822212 50.83385172 55.5625 47.3125 C55.5625 45.9925 55.5625 44.6725 55.5625 43.3125 C57.0625 41.0625 57.0625 41.0625 58.5625 39.3125 C59.8825 39.6425 61.2025 39.9725 62.5625 40.3125 C62.8925 41.9625 63.2225 43.6125 63.5625 45.3125 C62.6034375 45.6528125 62.6034375 45.6528125 61.625 46 C60.944375 46.433125 60.26375 46.86625 59.5625 47.3125 C59.41554687 48.0653125 59.26859375 48.818125 59.1171875 49.59375 C58.48329451 52.70071846 57.38444872 54.49617662 55.625 57.125 C52.99862436 61.11838263 50.4169501 65.12865925 47.90039062 69.19165039 C44.36684843 74.89442494 40.79332034 80.57038447 37.125 86.1875 C36.50753906 87.13367188 35.89007813 88.07984375 35.25390625 89.0546875 C33.5625 91.3125 33.5625 91.3125 30.5625 93.3125 C28.51293945 93.18823242 28.51293945 93.18823242 26.17578125 92.66796875 C25.31919922 92.48556641 24.46261719 92.30316406 23.58007812 92.11523438 C22.68740234 91.91220703 21.79472656 91.70917969 20.875 91.5 C-1.99364531 86.48746298 -24.80824536 87.43837346 -47.51416016 92.99121094 C-51.23177866 93.89270999 -54.60539569 94.53836076 -58.4375 94.3125 C-63.47981053 84.49482479 -68.26469796 74.56118709 -72.9375 64.5625 C-73.47793945 63.41990723 -74.01837891 62.27731445 -74.57519531 61.10009766 C-75.07631836 60.02034668 -75.57744141 58.9405957 -76.09375 57.828125 C-76.54556641 56.86165039 -76.99738281 55.89517578 -77.46289062 54.89941406 C-78.4375 52.3125 -78.4375 52.3125 -78.4375 48.3125 C-74.78130137 49.67126682 -71.56923482 51.33123514 -68.25 53.375 C-63.21149126 56.46458032 -60.5307716 57.82887895 -54.4375 57.3125 C-50.11676724 54.95573667 -48.49946673 52.11427698 -46.9921875 47.609375 C-46.17708762 44.2341727 -45.87337512 40.87381732 -45.6484375 37.4140625 C-45.4375 35.3125 -45.4375 35.3125 -44.4375 33.3125 C-41.30320766 33.60965638 -40.4500542 34.2982518 -38.32421875 36.7109375 C-37.59847656 37.69320312 -36.87273438 38.67546875 -36.125 39.6875 C-32.46429621 44.30838839 -30.22166508 47.00287772 -24.4375 48.3125 C-19.93717901 48.3125 -17.13624689 46.92651733 -13.8125 43.87109375 C-8.36275233 37.69368091 -6.64983945 29.03215254 -4.4375 21.3125 C-5.06914063 21.02375 -5.70078125 20.735 -6.3515625 20.4375 C-8.4375 19.3125 -8.4375 19.3125 -9.8125 17.3125 C-10.76551725 12.73801721 -9.90926044 8.71291507 -8.4375 4.3125 C-5.98145242 1.16568903 -4.08629463 -1.15254464 0 0 Z M-3.4375 4.3125 C-5.66716747 6.13453581 -5.66716747 6.13453581 -5.75 8.75 C-5.38333217 11.75667619 -4.69842041 12.41332685 -2.4375 14.3125 C-2.1075 14.9725 -1.7775 15.6325 -1.4375 16.3125 C-2.4275 16.6425 -3.4175 16.9725 -4.4375 17.3125 C-3.1175 17.3125 -1.7975 17.3125 -0.4375 17.3125 C1.79173777 12.98515609 1.48720553 10.02849818 0.5625 5.3125 C-1.32929203 4.6310177 -1.32929203 4.6310177 -3.4375 4.3125 Z M27.5625 32.3125 C27.5625 33.3025 27.5625 34.2925 27.5625 35.3125 C28.2225 35.3125 28.8825 35.3125 29.5625 35.3125 C29.5625 34.3225 29.5625 33.3325 29.5625 32.3125 C28.9025 32.3125 28.2425 32.3125 27.5625 32.3125 Z M-3.4375 33.3125 C-3.96537109 34.50746094 -3.96537109 34.50746094 -4.50390625 35.7265625 C-8.15747634 43.56790614 -11.45551936 48.58427251 -19.0625 52.75 C-24.08652535 53.93990074 -28.16920292 51.92574311 -32.4375 49.3125 C-35.8023434 45.93948951 -38.59630776 42.12589962 -41.4375 38.3125 C-41.52386719 39.0859375 -41.61023438 39.859375 -41.69921875 40.65625 C-42.78535133 48.70758142 -44.62619209 54.37414849 -50.3125 60.25 C-53.44334679 61.81542339 -55.93593519 62.19380289 -59.4375 62.3125 C-63.0625 61 -63.0625 61 -66.4375 59.3125 C-68.09966961 58.63469885 -69.76557356 57.96586375 -71.4375 57.3125 C-71.07567627 58.06587646 -71.07567627 58.06587646 -70.70654297 58.83447266 C-65.71994549 69.23685171 -60.86872343 79.66018642 -56.4375 90.3125 C-55.51453125 90.05855469 -54.5915625 89.80460937 -53.640625 89.54296875 C-25.26272879 81.95383242 3.30674048 80.35085361 31.5625 89.3125 C31.81306152 88.81024902 32.06362305 88.30799805 32.32177734 87.79052734 C37.94068023 76.61133144 43.94563492 66.2468368 51.5625 56.3125 C50.9025 55.9825 50.2425 55.6525 49.5625 55.3125 C47.89291446 56.04711764 46.22386267 56.78299278 44.55859375 57.52734375 C39.89835591 59.36043143 36.06573102 59.94848236 31.3125 57.9375 C27.72940986 54.5172776 26.23389128 50.91374187 24.5625 46.3125 C24.09199219 46.66183594 23.62148437 47.01117188 23.13671875 47.37109375 C22.20279297 48.05365234 22.20279297 48.05365234 21.25 48.75 C20.63511719 49.20246094 20.02023438 49.65492187 19.38671875 50.12109375 C15.54364372 52.63102498 12.03707017 52.69823881 7.5625 52.3125 C2.4184041 49.50662951 1.14355875 45.63869165 -0.4375 40.3125 C-0.746875 39.28576172 -0.746875 39.28576172 -1.0625 38.23828125 C-1.54045257 36.60195752 -1.99186566 34.9579191 -2.4375 33.3125 C-2.7675 33.3125 -3.0975 33.3125 -3.4375 33.3125 Z " fill="#525F36" transform="translate(92.4375,4.6875)"/>
<path d="M0 0 C0.85368164 0.11762695 1.70736328 0.23525391 2.58691406 0.35644531 C7.32591474 1.10269955 11.10023812 2.2581341 15.3125 4.6875 C15.3125 5.3475 15.3125 6.0075 15.3125 6.6875 C14.76424561 6.60185791 14.21599121 6.51621582 13.65112305 6.42797852 C-12.15528758 2.41798018 -39.58997 -0.9044455 -64.8125 8.13671875 C-66.6875 8.6875 -66.6875 8.6875 -70.6875 8.6875 C-70.6875 8.0275 -70.6875 7.3675 -70.6875 6.6875 C-49.30195822 -3.2253276 -22.94923707 -3.22454421 0 0 Z " fill="#706D31" transform="translate(107.6875,80.3125)"/>
<path d="M0 0 C0.99 0.33 1.98 0.66 3 1 C5.13576503 6.00641695 3.3113878 11.96117003 2 17 C-0.22321643 22.0123425 -3.23541769 26.1639391 -8 29 C-11.62133081 29.88944967 -13.92669389 30.41281004 -17.4375 29.0625 C-18.2109375 28.5365625 -18.2109375 28.5365625 -19 28 C-18.01 27.34 -17.02 26.68 -16 26 C-16 25.67 -16 25.34 -16 25 C-14.7625 24.773125 -13.525 24.54625 -12.25 24.3125 C-9.1152352 23.52050112 -8.05411504 23.05126688 -5.625 20.75 C-2.43407586 15.34997453 -1.70327003 10.32975962 -1.24609375 4.171875 C-1 2 -1 2 0 0 Z " fill="#5C6738" transform="translate(48,38)"/>
<path d="M0 0 C0.33 0.99 0.66 1.98 1 3 C1.66 3 2.32 3 3 3 C3.21914062 3.83144531 3.43828125 4.66289063 3.6640625 5.51953125 C5.45778383 12.15114769 5.45778383 12.15114769 9.6875 17.3125 C14.00004172 18.20755583 17.69915574 17.79326683 22 17 C22 17.99 22 18.98 22 20 C17.47355803 22.64962457 14.24616627 23.74945232 9 23 C4.38686188 20.16114577 2.13739289 17.40888292 0.45703125 12.26953125 C-0.36434593 8.19072662 -0.22889885 4.13713477 0 0 Z " fill="#4F5B36" transform="translate(91,35)"/>
<path d="M0 0 C1.42511572 0.01510723 2.85024732 0.02878473 4.27539062 0.04101562 C7.70476763 0.07346741 11.1335246 0.12489816 14.5625 0.1875 C14.5625 0.5175 14.5625 0.8475 14.5625 1.1875 C13.5415625 1.21328125 12.520625 1.2390625 11.46875 1.265625 C2.21955552 1.59224529 -6.80516292 2.54802095 -15.9375 4.0625 C-17.4215332 4.30468262 -17.4215332 4.30468262 -18.93554688 4.55175781 C-24.53617662 5.52030191 -29.86955153 6.80828934 -35.26367188 8.60595703 C-37.4375 9.1875 -37.4375 9.1875 -41.4375 9.1875 C-41.4375 8.5275 -41.4375 7.8675 -41.4375 7.1875 C-27.96615214 0.94313405 -14.59174088 -0.27479413 0 0 Z " fill="#424A24" transform="translate(78.4375,79.8125)"/>
<path d="M0 0 C2.77867191 1.56745595 3.92139608 2.57020774 5.4375 5.375 C6.25391135 9.25295389 6.69764503 11.5945649 5.4375 15.375 C4.7775 15.375 4.1175 15.375 3.4375 15.375 C2.7775 16.035 2.1175 16.695 1.4375 17.375 C0.7775 13.415 0.1175 9.455 -0.5625 5.375 C-2.2125 5.705 -3.8625 6.035 -5.5625 6.375 C-5.5625 5.715 -5.5625 5.055 -5.5625 4.375 C-6.2225 4.375 -6.8825 4.375 -7.5625 4.375 C-6.5625 1.375 -6.5625 1.375 -4.8125 0.0625 C-2.5625 -0.625 -2.5625 -0.625 0 0 Z " fill="#5E683B" transform="translate(92.5625,4.625)"/>
<path d="M0 0 C0 0.99 0 1.98 0 3 C-0.87325928 3.02505615 -1.74651855 3.0501123 -2.64624023 3.07592773 C-5.87602552 3.17087709 -9.10564154 3.27012029 -12.33520508 3.37231445 C-13.73489199 3.41571434 -15.13463359 3.45738564 -16.53442383 3.49731445 C-18.54261495 3.55489445 -20.55061149 3.61914 -22.55859375 3.68359375 C-23.76829834 3.72025146 -24.97800293 3.75690918 -26.22436523 3.79467773 C-28.90705456 3.68938266 -28.90705456 3.68938266 -30 5 C-31.66617115 5.04063832 -33.33388095 5.042721 -35 5 C-35 4.01 -35 3.02 -35 2 C-23.29459515 -0.20337033 -11.86667354 -0.22082273 0 0 Z " fill="#1B3C35" transform="translate(93,88)"/>
<path d="M0 0 C1.875 0.875 1.875 0.875 3.875 3.875 C4.25 6.375 4.25 6.375 3.875 8.875 C2.1875 10.75 2.1875 10.75 -0.125 11.875 C-2.75 11.75 -2.75 11.75 -5.125 10.875 C-7.125 7.875 -7.125 7.875 -7 5.375 C-5.74576951 1.79148432 -3.96502648 -0.23323685 0 0 Z M-2.125 3.875 C-2.455 4.865 -2.785 5.855 -3.125 6.875 C-2.135 6.875 -1.145 6.875 -0.125 6.875 C-0.455 5.885 -0.785 4.895 -1.125 3.875 C-1.455 3.875 -1.785 3.875 -2.125 3.875 Z " fill="#5A6736" transform="translate(48.125,26.125)"/>
<path d="M0 0 C2.31 0 4.62 0 7 0 C6.01 0.495 6.01 0.495 5 1 C5.350625 2.2375 5.70125 3.475 6.0625 4.75 C6.95532336 7.90114127 7.10545166 9.89210162 6 13 C4 16 4 16 1 18 C1 16.68 1 15.36 1 14 C0.34 14 -0.32 14 -1 14 C-0.45144652 9.428721 0.41744803 5.32564205 2 1 C1.34 0.67 0.68 0.34 0 0 Z " fill="#586538" transform="translate(86,25)"/>
<path d="M0 0 C0.99 0 1.98 0 3 0 C3.66206532 4.41376877 2.81498196 6.70092905 0.25 10.1875 C-1.89834462 12.93803213 -4.04404074 15.12052197 -7 17 C-7.99 17 -8.98 17 -10 17 C-9.8125 14.75 -9.8125 14.75 -9 12 C-8.236875 11.401875 -7.47375 10.80375 -6.6875 10.1875 C-3.16746487 7.32235512 -1.78150996 4.10045868 0 0 Z " fill="#3F5234" transform="translate(84,39)"/>
<path d="M0 0 C0 0.33 0 0.66 0 1 C-3.63 1.66 -7.26 2.32 -11 3 C-10.01 3 -9.02 3 -8 3 C1.66666667 3 11.33333333 3 21 3 C21 3.33 21 3.66 21 4 C19.76866333 4.08302368 19.76866333 4.08302368 18.51245117 4.16772461 C15.41293497 4.37732528 12.31349955 4.58807642 9.21411133 4.79956055 C7.23459634 4.93429443 5.25499439 5.06774876 3.27539062 5.20117188 C-4.15969787 5.70939311 -11.58216319 6.28133358 -19 7 C-18.01 6.67 -17.02 6.34 -16 6 C-16 5.01 -16 4.02 -16 3 C-17.32 2.67 -18.64 2.34 -20 2 C-13.25846717 0.74158054 -6.86515862 -0.26404456 0 0 Z " fill="#636B38" transform="translate(72,88)"/>
<path d="M0 0 C3.62369777 1.35076906 6.82770556 2.98330615 10.125 5 C10.97320312 5.515625 11.82140625 6.03125 12.6953125 6.5625 C14.4830896 7.67758809 16.24684645 8.83123097 18 10 C19.65549531 10.38499891 21.3222433 10.72793135 23 11 C23 11.33 23 11.66 23 12 C13.51026884 13.75665044 13.51026884 13.75665044 8.9375 11.375 C6 9 6 9 5.0625 6.25 C5.041875 5.5075 5.02125 4.765 5 4 C4.01 4.495 4.01 4.495 3 5 C2.34786708 7.02463255 2.34786708 7.02463255 2 9 C0.50178941 5.62902617 0 3.79557881 0 0 Z " fill="#435332" transform="translate(14,53)"/>
<path d="M0 0 C2.4375 0.6875 2.4375 0.6875 5 2 C5.5625 4.1875 5.5625 4.1875 6 7 C6.65186832 8.18694357 7.34277251 9.35293431 8.0625 10.5 C9.85646488 13.45971824 10.42704032 15.47691734 10 19 C9.01 19.33 8.02 19.66 7 20 C3.37172342 13.34261178 0.29455112 7.65832917 0 0 Z " fill="#445635" transform="translate(16,56)"/>
<path d="M0 0 C0 0.66 0 1.32 0 2 C-0.99 2 -1.98 2 -3 2 C-3 2.66 -3 3.32 -3 4 C-2.01 3.67 -1.02 3.34 0 3 C0 3.66 0 4.32 0 5 C-0.66 5 -1.32 5 -2 5 C-2.33 5.66 -2.66 6.32 -3 7 C-8.73590118 9.96298989 -14.5528424 11.76974437 -21 12 C-21.66 11.34 -22.32 10.68 -23 10 C-20.03 9.34 -17.06 8.68 -14 8 C-14.66 7.34 -15.32 6.68 -16 6 C-15.24074219 5.73445313 -14.48148438 5.46890625 -13.69921875 5.1953125 C-12.70535156 4.84210937 -11.71148437 4.48890625 -10.6875 4.125 C-9.70136719 3.77695312 -8.71523437 3.42890625 -7.69921875 3.0703125 C-4.9271957 1.97113114 -2.98653349 0 0 0 Z " fill="#5A643D" transform="translate(148,53)"/>
<path d="M0 0 C2.3125 1.4375 2.3125 1.4375 3.25 3.3125 C3.3256712 5.88532067 2.63418051 7.26061446 1.3125 9.4375 C-1.3275 9.1075 -3.9675 8.7775 -6.6875 8.4375 C-6.9375 5.625 -6.9375 5.625 -6.6875 2.4375 C-4.39290751 -0.28201703 -3.51175881 -0.73501929 0 0 Z M-2.6875 3.4375 C-2.6875 4.4275 -2.6875 5.4175 -2.6875 6.4375 C-2.0275 6.4375 -1.3675 6.4375 -0.6875 6.4375 C-0.6875 5.4475 -0.6875 4.4575 -0.6875 3.4375 C-1.3475 3.4375 -2.0075 3.4375 -2.6875 3.4375 Z " fill="#4C5B2D" transform="translate(122.6875,33.5625)"/>
<path d="M0 0 C0.99 0.33 1.98 0.66 3 1 C4.50120923 4.41544957 3.79993323 7.53852052 3.1875 11.125 C3.01605469 12.17945313 2.84460937 13.23390625 2.66796875 14.3203125 C2 17 2 17 0 19 C0 18.34 0 17.68 0 17 C-0.99 17.33 -1.98 17.66 -3 18 C-2.6919856 15.37440156 -2.37879818 12.74960194 -2.0625 10.125 C-1.97548828 9.37863281 -1.88847656 8.63226563 -1.79882812 7.86328125 C-1.11328125 2.2265625 -1.11328125 2.2265625 0 0 Z " fill="#6A6F3B" transform="translate(48,38)"/>
<path d="M0 0 C1.32 0.33 2.64 0.66 4 1 C4.33 2.65 4.66 4.3 5 6 C4.360625 6.226875 3.72125 6.45375 3.0625 6.6875 C0.72806339 7.85250896 0.72806339 7.85250896 0.25 10.625 C0.1675 11.40875 0.085 12.1925 0 13 C-0.12375 12.360625 -0.2475 11.72125 -0.375 11.0625 C-0.58125 10.381875 -0.7875 9.70125 -1 9 C-1.66 8.67 -2.32 8.34 -3 8 C-3 3.73173127 -2.62386487 3.06117568 0 0 Z " fill="#5B6238" transform="translate(151,44)"/>
<path d="M0 0 C3.63 0.33 7.26 0.66 11 1 C11 1.99 11 2.98 11 4 C11.66 4.33 12.32 4.66 13 5 C9.22505093 6.83354669 7.02886104 7.27227191 3 6 C2.01 5.34 1.02 4.68 0 4 C0 2.68 0 1.36 0 0 Z " fill="#54643B" transform="translate(63,52)"/>
<path d="M0 0 C2.97 0 5.94 0 9 0 C9 0.99 9 1.98 9 3 C5.09971775 5.60018816 1.52565431 5.15085514 -3 5 C-3 4.01 -3 3.02 -3 2 C-2.01 2 -1.02 2 0 2 C0 1.34 0 0.68 0 0 Z " fill="#34482F" transform="translate(47,91)"/>
<path d="M0 0 C0.825 0.309375 1.65 0.61875 2.5 0.9375 C6.39126155 2.11877583 9.96166953 2.58224168 14 3 C12.29171079 5.10633718 11.47851584 5.93801608 8.73828125 6.29296875 C7.93777344 6.25816406 7.13726562 6.22335938 6.3125 6.1875 C5.50425781 6.16042969 4.69601563 6.13335937 3.86328125 6.10546875 C3.24839844 6.07066406 2.63351563 6.03585938 2 6 C1.34 4.02 0.68 2.04 0 0 Z " fill="#354C38" transform="translate(121,57)"/>
<path d="M0 0 C0.99 0 1.98 0 3 0 C3.50423019 5.29441695 2.18923033 7.81413519 -1 12 C-2.125 10.375 -2.125 10.375 -3 8 C-2.25465624 5.13329322 -1.32208367 2.64416734 0 0 Z " fill="#4A5C38" transform="translate(84,39)"/>
<path d="M0 0 C0 0.33 0 0.66 0 1 C-3.63 1.66 -7.26 2.32 -11 3 C-10.01 3.99 -9.02 4.98 -8 6 C-11.63 6.33 -15.26 6.66 -19 7 C-18.01 6.67 -17.02 6.34 -16 6 C-16 5.01 -16 4.02 -16 3 C-17.32 2.67 -18.64 2.34 -20 2 C-13.25846717 0.74158054 -6.86515862 -0.26404456 0 0 Z " fill="#6F7949" transform="translate(72,88)"/>
<path d="M0 0 C1.95582488 2.93373731 3.56224304 5.78216298 5 9 C4 11 4 11 1 13 C0.43983252 11.59054634 -0.09748502 10.1719969 -0.625 8.75 C-0.92664063 7.96109375 -1.22828125 7.1721875 -1.5390625 6.359375 C-2.09752136 3.50082285 -1.53690745 2.41040161 0 0 Z " fill="#566534" transform="translate(26,72)"/>
<path d="M0 0 C0 0.99 0 1.98 0 3 C-3.20380017 5.13586678 -4.01939967 5.23132175 -7.6875 5.125 C-8.49574219 5.10695313 -9.30398437 5.08890625 -10.13671875 5.0703125 C-11.05904297 5.03550781 -11.05904297 5.03550781 -12 5 C-12.33 4.01 -12.66 3.02 -13 2 C-12.06027344 1.90912109 -12.06027344 1.90912109 -11.1015625 1.81640625 C-9.87566406 1.69072266 -9.87566406 1.69072266 -8.625 1.5625 C-7.81289062 1.48128906 -7.00078125 1.40007813 -6.1640625 1.31640625 C-3.85304959 0.97851447 -2.33455672 0 0 0 Z " fill="#3B4E34" transform="translate(113,52)"/>
<path d="M0 0 C2.625 0.375 2.625 0.375 5 1 C5.33 1.99 5.66 2.98 6 4 C4.75 5.5625 4.75 5.5625 3 7 C0.8125 6.6875 0.8125 6.6875 -1 6 C-1.625 4.125 -1.625 4.125 -2 2 C-1.34 1.34 -0.68 0.68 0 0 Z " fill="#545D33" transform="translate(9,47)"/>
<path d="M0 0 C5.28 0.66 10.56 1.32 16 2 C16 2.33 16 2.66 16 3 C4.57142857 5.28571429 4.57142857 5.28571429 0 3 C0 2.01 0 1.02 0 0 Z " fill="#39513E" transform="translate(93,89)"/>
<path d="M0 0 C4.10958767 1.45044271 7.43258745 3.51110752 11 6 C10.01 6.495 10.01 6.495 9 7 C9 7.66 9 8.32 9 9 C8.01 9 7.02 9 6 9 C5.67 7.35 5.34 5.7 5 4 C4.01 4.495 4.01 4.495 3 5 C2.34786708 7.02463255 2.34786708 7.02463255 2 9 C0.50178941 5.62902617 0 3.79557881 0 0 Z " fill="#60693C" transform="translate(14,53)"/>
<path d="M0 0 C0.33 0 0.66 0 1 0 C1.48828125 2.01822917 1.9765625 4.03645833 2.46484375 6.0546875 C2.94846992 8.0585657 2.94846992 8.0585657 4 10 C3 11 2 12 1 13 C-1.5224581 10.37243948 -1.99258956 9.0859611 -2.3125 5.375 C-2 2 -2 2 0 0 Z " fill="#4E5C31" transform="translate(120,48)"/>
<path d="M0 0 C-0.99 0 -1.98 0 -3 0 C-3 0.99 -3 1.98 -3 3 C-2.01 3.33 -1.02 3.66 0 4 C-3.63 4.66 -7.26 5.32 -11 6 C-10.34 5.67 -9.68 5.34 -9 5 C-9 3.68 -9 2.36 -9 1 C-5.57367167 -0.61798838 -3.61944899 -1.34053666 0 0 Z " fill="#5D683D" transform="translate(47,93)"/>
<path d="M0 0 C0.99 0 1.98 0 3 0 C4.125 6.625 4.125 6.625 3 10 C2.34 10 1.68 10 1 10 C0.34 10.66 -0.32 11.32 -1 12 C-0.67 8.04 -0.34 4.08 0 0 Z " fill="#415738" transform="translate(95,10)"/>
<path d="M0 0 C2.475 0.99 2.475 0.99 5 2 C5.33 4.97 5.66 7.94 6 11 C4.68 10.67 3.36 10.34 2 10 C1.34 6.7 0.68 3.4 0 0 Z " fill="#425433" transform="translate(16,56)"/>
<path d="M0 0 C0.99 0 1.98 0 3 0 C3 0.66 3 1.32 3 2 C4.32 2.33 5.64 2.66 7 3 C7 3.33 7 3.66 7 4 C7.99 4.33 8.98 4.66 10 5 C7 7 7 7 4.4375 6.8125 C2 6 2 6 0 3 C0 2.01 0 1.02 0 0 Z " fill="#676F38" transform="translate(41,31)"/>
<path d="M0 0 C-0.25 2.875 -0.25 2.875 -1 6 C-3.0625 7.375 -3.0625 7.375 -5 8 C-5.75 6.25 -5.75 6.25 -6 4 C-2.77777778 0 -2.77777778 0 0 0 Z " fill="#435535" transform="translate(48,55)"/>
<path d="M0 0 C0.66 0 1.32 0 2 0 C2.6875 2.25 2.6875 2.25 3 5 C1.6875 7.3125 1.6875 7.3125 0 9 C-0.66 9 -1.32 9 -2 9 C-1.125 2.25 -1.125 2.25 0 0 Z " fill="#45542D" transform="translate(128,84)"/>
<path d="M0 0 C0.66 0.99 1.32 1.98 2 3 C0.25 6.875 0.25 6.875 -2 8 C-3.67654729 7.72057545 -5.34608154 7.39171753 -7 7 C-7 6.34 -7 5.68 -7 5 C-5.5459375 4.5978125 -5.5459375 4.5978125 -4.0625 4.1875 C-3.051875 3.795625 -2.04125 3.40375 -1 3 C-0.67 2.01 -0.34 1.02 0 0 Z " fill="#686B35" transform="translate(125,90)"/>
<path d="M0 0 C-0.33 0.99 -0.66 1.98 -1 3 C-3.06640625 3.94921875 -3.06640625 3.94921875 -5.5625 4.6875 C-6.38878906 4.93886719 -7.21507812 5.19023438 -8.06640625 5.44921875 C-8.70449219 5.63097656 -9.34257813 5.81273438 -10 6 C-10 5.01 -10 4.02 -10 3 C-8.70990357 2.49596232 -7.41786211 1.99690074 -6.125 1.5 C-5.04605469 1.08234375 -5.04605469 1.08234375 -3.9453125 0.65625 C-2 0 -2 0 0 0 Z " fill="#8B7C32" transform="translate(46,77)"/>
<path d="M0 0 C0.24954005 1.43410368 0.47392642 2.87260072 0.6875 4.3125 C0.81511719 5.11300781 0.94273438 5.91351563 1.07421875 6.73828125 C1 9 1 9 -0.48046875 10.79296875 C-0.98191406 11.19128906 -1.48335938 11.58960938 -2 12 C-3.66514061 6.74166122 -3.66514061 6.74166122 -4 4 C-1.9 0 -1.9 0 0 0 Z " fill="#6E7A56" transform="translate(92,29)"/>
<path d="M0 0 C0.99 0.33 1.98 0.66 3 1 C3 1.66 3 2.32 3 3 C3.99 3.33 4.98 3.66 6 4 C5.01 4.99 4.02 5.98 3 7 C2.01 6.67 1.02 6.34 0 6 C0 4.02 0 2.04 0 0 Z " fill="#3C4D31" transform="translate(33,92)"/>
<path d="M0 0 C0.33 0.99 0.66 1.98 1 3 C-4.12583611 3.10251672 -8.94997778 3.03590199 -14 2 C-14 1.67 -14 1.34 -14 1 C-9.23692563 0.04738513 -4.8333472 -0.08333357 0 0 Z " fill="#8B7D3A" transform="translate(70,80)"/>
<path d="M0 0 C2.97 0.495 2.97 0.495 6 1 C4.68 1.33 3.36 1.66 2 2 C2.33 2.66 2.66 3.32 3 4 C6.02934491 4.65772428 6.02934491 4.65772428 9 5 C9 5.33 9 5.66 9 6 C2.6 6.49230769 2.6 6.49230769 -0.4375 4 C-0.953125 3.34 -1.46875 2.68 -2 2 C-1.34 2 -0.68 2 0 2 C0 1.34 0 0.68 0 0 Z " fill="#6C763C" transform="translate(98,52)"/>
<path d="M0 0 C0.103125 0.639375 0.20625 1.27875 0.3125 1.9375 C0.539375 2.618125 0.76625 3.29875 1 4 C1.99 4.33 2.98 4.66 4 5 C4.6875 7.0625 4.6875 7.0625 5 9 C3.35 8.67 1.7 8.34 0 8 C0 5.36 0 2.72 0 0 Z " fill="#978B42" transform="translate(86,12)"/>
<path d="M0 0 C2.4375 1.1875 2.4375 1.1875 3.4375 3.1875 C0.7975 3.1875 -1.8425 3.1875 -4.5625 3.1875 C-4.5625 2.1975 -4.5625 1.2075 -4.5625 0.1875 C-2.5625 -0.8125 -2.5625 -0.8125 0 0 Z " fill="#465333" transform="translate(92.5625,4.8125)"/>
<path d="M0 0 C-3.44450737 2.29633824 -5.93812283 2.54016485 -10 3 C-10 2.34 -10 1.68 -10 1 C-6.42181037 -1.33958553 -4.07775191 -0.9267618 0 0 Z " fill="#766F2E" transform="translate(47,86)"/>
<path d="M0 0 C0.99 0 1.98 0 3 0 C3 1.65 3 3.3 3 5 C0.69 5.33 -1.62 5.66 -4 6 C-3.525625 5.566875 -3.05125 5.13375 -2.5625 4.6875 C-0.76313043 2.97690387 -0.76313043 2.97690387 0 0 Z " fill="#394C34" transform="translate(49,30)"/>
<path d="M0 0 C1.125 1.75 1.125 1.75 2 4 C1.125 6.25 1.125 6.25 0 8 C-1.32 7.67 -2.64 7.34 -4 7 C-4 6.34 -4 5.68 -4 5 C-3.34 5 -2.68 5 -2 5 C-1.67 4.01 -1.34 3.02 -1 2 C-0.67 1.34 -0.34 0.68 0 0 Z " fill="#70733E" transform="translate(124,35)"/>
<path d="M0 0 C-0.33 0.66 -0.66 1.32 -1 2 C-3.64860427 2.59355614 -6.29197322 2.74209269 -9 3 C-8.67 2.01 -8.34 1.02 -8 0 C-4.71023192 -1.09658936 -3.28696233 -0.79953138 0 0 Z " fill="#496044" transform="translate(123,93)"/>
<path d="M0 0 C2.97 0.33 5.94 0.66 9 1 C9 1.33 9 1.66 9 2 C4.32798795 3.20568053 -0.21496292 3.09382426 -5 3 C-5 2.67 -5 2.34 -5 2 C-3.35 1.67 -1.7 1.34 0 1 C0 0.67 0 0.34 0 0 Z " fill="#828147" transform="translate(108,81)"/>
<path d="M0 0 C0.99 0 1.98 0 3 0 C2.67 1.65 2.34 3.3 2 5 C1.34 4.67 0.68 4.34 0 4 C-0.66 5.32 -1.32 6.64 -2 8 C-1.125 1.125 -1.125 1.125 0 0 Z " fill="#364A2C" transform="translate(140,65)"/>
<path d="M0 0 C0.33 0.99 0.66 1.98 1 3 C1.66 3 2.32 3 3 3 C3 4.98 3 6.96 3 9 C2.01 8.67 1.02 8.34 0 8 C0 5.36 0 2.72 0 0 Z " fill="#39482B" transform="translate(91,35)"/>
<path d="M0 0 C2.31 0 4.62 0 7 0 C7.33 0.99 7.66 1.98 8 3 C5.36 3 2.72 3 0 3 C0 2.01 0 1.02 0 0 Z " fill="#355242" transform="translate(44,93)"/>
<path d="M0 0 C2.64 0 5.28 0 8 0 C7.67 0.99 7.34 1.98 7 3 C5.02 3 3.04 3 1 3 C0.67 2.01 0.34 1.02 0 0 Z " fill="#1F3B2D" transform="translate(100,54)"/>
<path d="M0 0 C0.99 0 1.98 0 3 0 C2.34 2.97 1.68 5.94 1 9 C0.67 9 0.34 9 0 9 C0 6.03 0 3.06 0 0 Z " fill="#233E28" transform="translate(84,9)"/>
<path d="M0 0 C2.475 0.99 2.475 0.99 5 2 C4.67 3.65 4.34 5.3 4 7 C3.01 6.67 2.02 6.34 1 6 C0.67 4.02 0.34 2.04 0 0 Z " fill="#20413B" transform="translate(16,56)"/>
</svg>
