<?xml version="1.0" encoding="UTF-8"?>
<svg version="1.1" xmlns="http://www.w3.org/2000/svg" width="164" height="103">
<path d="M0 0 C3.6875 0.5 3.6875 0.5 6.625 2.875 C9.17037415 6.4317811 9.3370588 9.804914 9.1171875 14.0859375 C8.45373686 17.81332383 7.25026334 19.71757123 4.6875 22.5 C3.6975 22.5 2.7075 22.5 1.6875 22.5 C2.582199 25.92280638 3.50702351 29.33676172 4.4375 32.75 C4.69015625 33.71808594 4.9428125 34.68617187 5.203125 35.68359375 C6.91259181 42.56646135 6.91259181 42.56646135 11.6875 47.5 C13.98409473 47.91668731 13.98409473 47.91668731 16.3125 47.5 C17.08851562 47.4175 17.86453125 47.335 18.6640625 47.25 C20.85577049 46.67339311 20.85577049 46.67339311 21.890625 44.5546875 C22.15359375 43.87664063 22.4165625 43.19859375 22.6875 42.5 C23.244375 41.571875 23.244375 41.571875 23.8125 40.625 C24.88969654 38.41086705 24.88969654 38.41086705 24.625 35.4375 C24.6875 32.5 24.6875 32.5 25.8125 30.625 C28.52968824 28.99468706 30.58402746 29.16984335 33.6875 29.5 C35.6875 31.5 35.6875 31.5 35.9375 35 C35.6875 38.5 35.6875 38.5 33.6875 40.5 C32.6975 40.5 31.7075 40.5 30.6875 40.5 C31.08532879 42.27516029 31.50653661 44.04509163 31.9375 45.8125 C32.16953125 46.79863281 32.4015625 47.78476562 32.640625 48.80078125 C33.84545584 51.90726675 34.74088931 52.98123877 37.6875 54.5 C43.33494678 54.48920182 48.84808174 51.71693228 53.83984375 49.3046875 C55.6875 48.5 55.6875 48.5 57.6875 48.5 C57.64625 47.55125 57.605 46.6025 57.5625 45.625 C57.6875 42.5 57.6875 42.5 59.6875 40.5 C62.25 40.3125 62.25 40.3125 64.6875 40.5 C65.6875 41.5 65.6875 41.5 65.75 44.5625 C65.729375 45.531875 65.70875 46.50125 65.6875 47.5 C64.3675 47.83 63.0475 48.16 61.6875 48.5 C61.60628906 49.95792969 61.60628906 49.95792969 61.5234375 51.4453125 C60.79107644 56.49581631 58.09807263 60.19944258 55.3125 64.375 C54.77955322 65.19419922 54.24660645 66.01339844 53.69750977 66.85742188 C52.58882181 68.56012576 51.47523837 70.25965145 50.35693359 71.95605469 C48.73391201 74.42927564 47.13781941 76.91763187 45.55078125 79.4140625 C44.57572146 80.94283632 43.60046946 82.47148755 42.625 84 C42.1727002 84.71140137 41.72040039 85.42280273 41.25439453 86.15576172 C40.82884277 86.81592285 40.40329102 87.47608398 39.96484375 88.15625 C39.59609131 88.73181641 39.22733887 89.30738281 38.84741211 89.90039062 C37.56765079 91.66528142 36.37345666 93.11020739 34.6875 94.5 C29.06127448 94.92495959 23.94120214 94.160186 18.4375 93.0625 C11.5283413 91.7686811 4.71958592 90.82995125 -2.3125 90.5 C-3.06789063 90.45875 -3.82328125 90.4175 -4.6015625 90.375 C-17.3102427 90.02562048 -30.29684271 91.97740239 -42.625 94.9140625 C-47.539521 95.69497156 -52.34786012 95.61109841 -57.3125 95.5 C-59.37814639 91.39366391 -61.44101583 87.28594842 -63.50146484 83.17700195 C-64.2009221 81.78307667 -64.90110075 80.38951311 -65.60205078 78.99633789 C-76.92635129 56.48505008 -76.92635129 56.48505008 -76.3125 50.5 C-77.281875 50.520625 -78.25125 50.54125 -79.25 50.5625 C-82.3125 50.5 -82.3125 50.5 -83.3125 49.5 C-83.4375 47 -83.4375 47 -83.3125 44.5 C-82.3125 43.5 -82.3125 43.5 -79.3125 43.375 C-76.3125 43.5 -76.3125 43.5 -75.3125 44.5 C-75.27186168 46.16617115 -75.269779 47.83388095 -75.3125 49.5 C-74.508125 49.726875 -73.70375 49.95375 -72.875 50.1875 C-69.89256001 51.28629368 -67.53135542 52.47075046 -64.8125 54.0625 C-61.28734246 56.05575183 -58.45626935 57.5 -54.3125 57.5 C-51.04014386 56.20627781 -49.62468283 54.95093075 -47.625 52.0625 C-46.0488684 47.78442852 -45.38074017 43.61285175 -44.7421875 39.109375 C-44.3125 36.5 -44.3125 36.5 -43.3125 34.5 C-44.116875 34.355625 -44.92125 34.21125 -45.75 34.0625 C-48.3125 33.5 -48.3125 33.5 -49.3125 32.5 C-49.77235401 26.2919708 -49.77235401 26.2919708 -48.1875 23.5625 C-45.39087528 21.97774599 -43.4631804 22.04052577 -40.3125 22.5 C-37.9226216 24.65089056 -37.37944107 25.937695 -37 29.125 C-37.3125 31.5 -37.3125 31.5 -39.3125 33.5 C-37.35766895 35.64911854 -35.39886605 37.79435975 -33.4375 39.9375 C-32.88191406 40.54916016 -32.32632813 41.16082031 -31.75390625 41.79101562 C-31.21894531 42.37431641 -30.68398438 42.95761719 -30.1328125 43.55859375 C-29.64055176 44.09798584 -29.14829102 44.63737793 -28.64111328 45.19311523 C-26.32152523 47.47476809 -24.96451408 47.54128646 -21.625 47.9375 C-17.33289304 47.83641777 -14.98297501 46.55526822 -11.9140625 43.60546875 C-7.33467111 37.58524446 -5.12960941 29.76843765 -3.3125 22.5 C-3.951875 22.190625 -4.59125 21.88125 -5.25 21.5625 C-7.3125 20.5 -7.3125 20.5 -8.3125 19.5 C-8.86911337 13.21669143 -8.9138759 7.90206386 -5.3125 2.5 C-3.3125 0.5 -3.3125 0.5 0 0 Z M-3.3125 7.5 C-2.96805119 9.97266765 -2.96805119 9.97266765 -2.3125 12.5 C-1.6525 12.83 -0.9925 13.16 -0.3125 13.5 C0.3125 16.0625 0.3125 16.0625 0.6875 18.5 C2.85367415 15.25073878 2.90085669 14.9014758 2.3125 11.3125 C2.10625 10.054375 1.9 8.79625 1.6875 7.5 C0.0375 7.5 -1.6125 7.5 -3.3125 7.5 Z M-44.3125 26.5 C-43.3125 29.5 -43.3125 29.5 -43.3125 29.5 Z M29.6875 33.5 C29.6875 34.49 29.6875 35.48 29.6875 36.5 C30.3475 36.5 31.0075 36.5 31.6875 36.5 C31.6875 35.51 31.6875 34.52 31.6875 33.5 C31.0275 33.5 30.3675 33.5 29.6875 33.5 Z M-1.3125 38.5 C-1.68375 39.16 -2.055 39.82 -2.4375 40.5 C-5.4162786 45.26604575 -8.84867047 50.67872349 -14.3125 52.5 C-14.3125 53.16 -14.3125 53.82 -14.3125 54.5 C-19.81185334 55.108535 -24.03529204 55.24488118 -28.625 51.875 C-31.94268041 49.05430006 -34.62797372 45.91666982 -37.3125 42.5 C-37.6425 42.5 -37.9725 42.5 -38.3125 42.5 C-38.48265625 43.22445312 -38.6528125 43.94890625 -38.828125 44.6953125 C-40.57025964 51.6453177 -42.61158009 56.48132481 -47.4375 61.875 C-52.80106144 64.90657821 -59.47964947 64.05542681 -65.3125 62.5 C-63.25911139 69.01470776 -60.81715317 75.28730029 -58.125 81.5625 C-57.75697266 82.42810547 -57.38894531 83.29371094 -57.00976562 84.18554688 C-56.11378273 86.29168848 -55.21358689 88.39603702 -54.3125 90.5 C-49.0325 89.51 -43.7525 88.52 -38.3125 87.5 C-38.3125 86.84 -38.3125 86.18 -38.3125 85.5 C-33.23077399 85.30398282 -28.14880787 85.12596786 -23.06591797 84.96289062 C-21.345704 84.90536907 -19.62563245 84.84337083 -17.90576172 84.77636719 C-2.70973201 84.18951057 11.87039825 85.13657965 26.8125 88.125 C27.49441406 88.2590625 28.17632812 88.393125 28.87890625 88.53125 C30.48308625 88.84756718 32.08554026 89.17262403 33.6875 89.5 C33.6875 88.51 33.6875 87.52 33.6875 86.5 C34.3475 86.5 35.0075 86.5 35.6875 86.5 C36.0175 84.52 36.3475 82.54 36.6875 80.5 C37.3475 80.5 38.0075 80.5 38.6875 80.5 C40.3035552 78.08926077 41.79406134 75.6922665 43.25 73.1875 C43.66185547 72.49720703 44.07371094 71.80691406 44.49804688 71.09570312 C46.19420058 68.22251313 47.62726596 65.68070213 48.6875 62.5 C49.6775 62.005 49.6775 62.005 50.6875 61.5 C50.6875 60.84 50.6875 60.18 50.6875 59.5 C49.2025 59.7475 49.2025 59.7475 47.6875 60 C42.61964662 60.72103605 37.59897474 61.13715825 32.6875 59.5 C28.74119068 56.3907866 27.80005898 53.32108893 26.6875 48.5 C23.56552522 49.8089572 23.56552522 49.8089572 21.6875 52.5 C17.64789624 54.63861375 14.209347 55.05531454 9.6875 54.5 C3.20747223 50.81527833 1.74600946 45.41417001 -0.3125 38.5 C-0.6425 38.5 -0.9725 38.5 -1.3125 38.5 Z " fill="#EFBB27" transform="translate(90.3125,3.5)"/>
<path d="M0 0 C3 0.125 3 0.125 4 1.125 C4.04063832 2.79117115 4.042721 4.45888095 4 6.125 C4.804375 6.351875 5.60875 6.57875 6.4375 6.8125 C9.41993999 7.91129368 11.78114458 9.09575046 14.5 10.6875 C18.02515754 12.68075183 20.85623065 14.125 25 14.125 C29.136943 12.30878112 31.92072542 9.38023313 35 6.125 C35 6.785 35 7.445 35 8.125 C36.32 8.125 37.64 8.125 39 8.125 C37.9567319 13.47174903 35.43589557 16.39617411 31.359375 19.7734375 C26.70188428 22.44147026 21.7692422 21.765505 16.703125 20.59375 C16.14109375 20.4390625 15.5790625 20.284375 15 20.125 C15.21914063 20.67285156 15.43828125 21.22070312 15.6640625 21.78515625 C16.34725225 23.49313062 17.02943873 25.20150645 17.7109375 26.91015625 C18.6675876 29.29598361 19.63147122 31.67824523 20.6015625 34.05859375 C21.01027588 35.06684204 21.01027588 35.06684204 21.42724609 36.09545898 C21.97171259 37.4385302 22.51887461 38.78051213 23.06884766 40.12133789 C25 44.89954281 25 44.89954281 25 47.125 C25.53109375 46.80789062 26.0621875 46.49078125 26.609375 46.1640625 C29.54535848 44.8879651 32.06174329 44.70792979 35.25 44.5 C36.86648437 44.38785156 36.86648437 44.38785156 38.515625 44.2734375 C39.33546875 44.22445312 40.1553125 44.17546875 41 44.125 C41 43.465 41 42.805 41 42.125 C48.04198949 40.81886777 55.11120355 40.66821867 62.25 40.4375 C62.96864227 40.41409546 63.68728455 40.39069092 64.42770386 40.36657715 C80.80880624 39.86650248 96.00970941 41.58732509 112 45.125 C111.67 46.445 111.34 47.765 111 49.125 C112.485 50.115 112.485 50.115 114 51.125 C108.35333961 51.27059775 103.27704971 50.78984255 97.75 49.6875 C90.8408413 48.3936811 84.03208592 47.45495125 77 47.125 C76.24460937 47.08375 75.48921875 47.0425 74.7109375 47 C62.0022573 46.65062048 49.01565729 48.60240239 36.6875 51.5390625 C31.772979 52.31997156 26.96463988 52.23609841 22 52.125 C19.93435361 48.01866391 17.87148417 43.91094842 15.81103516 39.80200195 C15.1115779 38.40807667 14.41139925 37.01451311 13.71044922 35.62133789 C2.38614871 13.11005008 2.38614871 13.11005008 3 7.125 C1.5459375 7.1559375 1.5459375 7.1559375 0.0625 7.1875 C-3 7.125 -3 7.125 -4 6.125 C-4.125 3.625 -4.125 3.625 -4 1.125 C-3 0.125 -3 0.125 0 0 Z " fill="#F3BE27" transform="translate(11,46.875)"/>
<path d="M0 0 C3.6875 0.5 3.6875 0.5 6.625 2.875 C9.17037415 6.4317811 9.3370588 9.804914 9.1171875 14.0859375 C8.45373686 17.81332383 7.25026334 19.71757123 4.6875 22.5 C3.6975 22.5 2.7075 22.5 1.6875 22.5 C1.91566406 23.29664062 2.14382812 24.09328125 2.37890625 24.9140625 C2.66636719 25.97367188 2.95382813 27.03328125 3.25 28.125 C3.68505859 29.69121094 3.68505859 29.69121094 4.12890625 31.2890625 C4.72059337 34.69022902 4.44601802 37.15448342 3.6875 40.5 C2.0375 40.17 0.3875 39.84 -1.3125 39.5 C-1.61542969 40.01949219 -1.91835937 40.53898437 -2.23046875 41.07421875 C-4.84010919 45.41826637 -7.39123261 49.1978801 -11.3125 52.5 C-12.3025 52.5 -13.2925 52.5 -14.3125 52.5 C-14.3125 53.16 -14.3125 53.82 -14.3125 54.5 C-17.59326649 56.14038325 -20.78027472 56.15181662 -24.3125 55.5 C-29.72550538 52.62961733 -33.64307696 48.31611774 -37.3125 43.5 C-37.42207031 44.06589844 -37.53164063 44.63179687 -37.64453125 45.21484375 C-37.88236328 46.31505859 -37.88236328 46.31505859 -38.125 47.4375 C-38.27582031 48.16839844 -38.42664062 48.89929687 -38.58203125 49.65234375 C-38.82308594 50.26207031 -39.06414063 50.87179688 -39.3125 51.5 C-42.3125 52.5 -42.3125 52.5 -44.5 51.5625 C-45.3971875 51.0365625 -45.3971875 51.0365625 -46.3125 50.5 C-46.00427379 48.2077546 -45.69079126 45.91621545 -45.375 43.625 C-45.20097656 42.34882812 -45.02695312 41.07265625 -44.84765625 39.7578125 C-44.3125 36.5 -44.3125 36.5 -43.3125 34.5 C-44.116875 34.355625 -44.92125 34.21125 -45.75 34.0625 C-48.3125 33.5 -48.3125 33.5 -49.3125 32.5 C-49.77235401 26.2919708 -49.77235401 26.2919708 -48.1875 23.5625 C-45.39087528 21.97774599 -43.4631804 22.04052577 -40.3125 22.5 C-37.9226216 24.65089056 -37.37944107 25.937695 -37 29.125 C-37.3125 31.5 -37.3125 31.5 -39.3125 33.5 C-37.35766895 35.64911854 -35.39886605 37.79435975 -33.4375 39.9375 C-32.88191406 40.54916016 -32.32632813 41.16082031 -31.75390625 41.79101562 C-31.21894531 42.37431641 -30.68398438 42.95761719 -30.1328125 43.55859375 C-29.39442139 44.36768188 -29.39442139 44.36768188 -28.64111328 45.19311523 C-26.32152523 47.47476809 -24.96451408 47.54128646 -21.625 47.9375 C-17.33289304 47.83641777 -14.98297501 46.55526822 -11.9140625 43.60546875 C-7.33467111 37.58524446 -5.12960941 29.76843765 -3.3125 22.5 C-3.951875 22.190625 -4.59125 21.88125 -5.25 21.5625 C-7.3125 20.5 -7.3125 20.5 -8.3125 19.5 C-8.86911337 13.21669143 -8.9138759 7.90206386 -5.3125 2.5 C-3.3125 0.5 -3.3125 0.5 0 0 Z M-3.3125 7.5 C-2.96805119 9.97266765 -2.96805119 9.97266765 -2.3125 12.5 C-1.6525 12.83 -0.9925 13.16 -0.3125 13.5 C0.3125 16.0625 0.3125 16.0625 0.6875 18.5 C2.85367415 15.25073878 2.90085669 14.9014758 2.3125 11.3125 C2.10625 10.054375 1.9 8.79625 1.6875 7.5 C0.0375 7.5 -1.6125 7.5 -3.3125 7.5 Z M-44.3125 26.5 C-43.3125 29.5 -43.3125 29.5 -43.3125 29.5 Z " fill="#F5BF27" transform="translate(90.3125,3.5)"/>
<path d="M0 0 C1.73576294 0.00519653 1.73576294 0.00519653 3.5065918 0.01049805 C11.1965827 0.10585246 18.75183605 0.61035253 26.375 1.625 C27.26888428 1.74254639 28.16276855 1.86009277 29.08374023 1.98120117 C33.92399975 2.7123088 37.77096479 3.81318831 42.0625 6.3125 C42.0625 7.3025 42.0625 8.2925 42.0625 9.3125 C35.81100142 8.9191938 29.57299692 8.4975625 23.34765625 7.80078125 C4.38549942 5.67860143 -14.1592417 4.98866267 -32.67578125 10.40625 C-36.6739132 11.51710822 -39.81933422 11.45699705 -43.9375 11.3125 C-43.921875 9.4765625 -43.921875 9.4765625 -42.9375 7.3125 C-40.30488794 6.20435399 -37.92758455 5.4093247 -35.1875 4.6875 C-34.49011719 4.48382813 -33.79273438 4.28015625 -33.07421875 4.0703125 C-22.19799386 1.03508695 -11.2623546 -0.05566785 0 0 Z " fill="#F2BD29" transform="translate(80.9375,77.6875)"/>
<path d="M0 0 C2.3631167 2.12680503 2.92843783 3.41319022 3.3125 6.5625 C3 9 3 9 1 12 C0.72643157 13.93137682 0.72643157 13.93137682 0.8046875 16.01171875 C0.81113281 16.76904297 0.81757812 17.52636719 0.82421875 18.30664062 C0.84097656 19.09232422 0.85773437 19.87800781 0.875 20.6875 C0.88853516 21.88342773 0.88853516 21.88342773 0.90234375 23.10351562 C0.92588415 25.069139 0.96175453 27.03460775 1 29 C-2 30 -2 30 -4.1875 29.0625 C-5.0846875 28.5365625 -5.0846875 28.5365625 -6 28 C-5.69177379 25.7077546 -5.37829126 23.41621545 -5.0625 21.125 C-4.88847656 19.84882812 -4.71445312 18.57265625 -4.53515625 17.2578125 C-4 14 -4 14 -3 12 C-3.804375 11.855625 -4.60875 11.71125 -5.4375 11.5625 C-8 11 -8 11 -9 10 C-9.45985401 3.7919708 -9.45985401 3.7919708 -7.875 1.0625 C-5.07837528 -0.52225401 -3.1506804 -0.45947423 0 0 Z M-4 4 C-3 7 -3 7 -3 7 Z " fill="#F7C027" transform="translate(50,26)"/>
<path d="M0 0 C1.73868744 0.15266612 3.48247501 0.24932596 5.2265625 0.31640625 C6.2578125 0.35830078 7.2890625 0.40019531 8.3515625 0.44335938 C9.43179688 0.48267578 10.51203125 0.52199219 11.625 0.5625 C13.25695312 0.62727539 13.25695312 0.62727539 14.921875 0.69335938 C17.6144517 0.7996453 20.30712253 0.90168057 23 1 C23 1.33 23 1.66 23 2 C22.12432373 2.07516846 22.12432373 2.07516846 21.23095703 2.15185547 C18.52843666 2.38715882 15.82675227 2.63104124 13.125 2.875 C12.2071875 2.95363281 11.289375 3.03226562 10.34375 3.11328125 C0.41262815 4.02246846 -9.10802073 6.16947587 -18.7421875 8.67578125 C-23.61802653 9.87668234 -27.97743361 10.16929999 -33 10 C-32.984375 8.1640625 -32.984375 8.1640625 -32 6 C-29.36497197 4.89083704 -26.99341498 4.0937447 -24.25 3.375 C-23.4880835 3.16407715 -22.72616699 2.9531543 -21.94116211 2.73583984 C-4.09922337 -2.04961169 -4.09922337 -2.04961169 0 0 Z " fill="#E3B226" transform="translate(70,79)"/>
<path d="M0 0 C3.48384348 2.78707479 5.93024981 4.88499584 8.6875 8.1875 C10.99686532 11.03081617 10.99686532 11.03081617 14 13 C15.70702735 13.06996014 17.41668003 13.08440154 19.125 13.0625 C20.03507812 13.05347656 20.94515625 13.04445313 21.8828125 13.03515625 C22.58148438 13.02355469 23.28015625 13.01195312 24 13 C24.33 15.31 24.66 17.62 25 20 C21.71923351 21.64038325 18.53222528 21.65181662 15 21 C9.58699462 18.12961733 5.66942304 13.81611774 2 9 C1.34 10.32 0.68 11.64 0 13 C0 8.71 0 4.42 0 0 Z " fill="#F7C027" transform="translate(51,38)"/>
<path d="M0 0 C0 5.28 0 10.56 0 16 C-3 17 -3 17 -5.1875 16.0625 C-5.785625 15.711875 -6.38375 15.36125 -7 15 C-6.71935082 12.68613705 -6.42518311 10.37390992 -6.125 8.0625 C-5.96257813 6.77472656 -5.80015625 5.48695312 -5.6328125 4.16015625 C-5.42398438 3.11730469 -5.21515625 2.07445312 -5 1 C-3 0 -3 0 0 0 Z " fill="#A98F34" transform="translate(51,39)"/>
<path d="M0 0 C0.66 0.33 1.32 0.66 2 1 C3.73868744 1.15266612 5.48247501 1.24932596 7.2265625 1.31640625 C8.2578125 1.35830078 9.2890625 1.40019531 10.3515625 1.44335938 C11.43179688 1.48267578 12.51203125 1.52199219 13.625 1.5625 C15.25695312 1.62727539 15.25695312 1.62727539 16.921875 1.69335938 C19.6144517 1.7996453 22.30712253 1.90168057 25 2 C25 2.33 25 2.66 25 3 C24.38479492 3.05534912 23.76958984 3.11069824 23.13574219 3.16772461 C20.34019004 3.42107482 17.54510238 3.67923694 14.75 3.9375 C13.78191406 4.02451172 12.81382813 4.11152344 11.81640625 4.20117188 C10.88183594 4.28818359 9.94726562 4.37519531 8.984375 4.46484375 C7.69611816 4.58267212 7.69611816 4.58267212 6.38183594 4.70288086 C4.02415083 4.94414409 4.02415083 4.94414409 1.87695312 5.5546875 C-0.96571376 6.22911835 -3.39981555 5.58916452 -6.25 5.0625 C-7.32765625 4.86785156 -8.4053125 4.67320313 -9.515625 4.47265625 C-10.74539062 4.23869141 -10.74539062 4.23869141 -12 4 C-12 3.67 -12 3.34 -12 3 C-6.06 2.505 -6.06 2.505 0 2 C0 1.34 0 0.68 0 0 Z " fill="#68642D" transform="translate(68,78)"/>
<path d="M0 0 C1.42705634 5.30723432 2.4002792 9.53891111 1 15 C0.01 14.67 -0.98 14.34 -2 14 C-3.0546875 11.85546875 -3.0546875 11.85546875 -3.875 9.1875 C-4.16117187 8.31480469 -4.44734375 7.44210938 -4.7421875 6.54296875 C-5 4 -5 4 -3.6953125 1.67578125 C-2 0 -2 0 0 0 Z " fill="#6C7853" transform="translate(93,29)"/>
<path d="M0 0 C1.33359073 6.42548263 1.33359073 6.42548263 -0.125 8.9375 C-2.53579338 10.30361625 -4.27294446 10.22111261 -7 10 C-4.54716981 0 -4.54716981 0 0 0 Z " fill="#A98C2E" transform="translate(81,46)"/>
<path d="M0 0 C0 1.32 0 2.64 0 4 C-2.75078884 4.91692961 -4.35948913 5.10886083 -7.1875 5.0625 C-9.0746875 5.0315625 -9.0746875 5.0315625 -11 5 C-10.875 3.125 -10.875 3.125 -10 1 C-6.36961463 -0.69417984 -3.80522763 -1.46354909 0 0 Z " fill="#F9C127" transform="translate(48,84)"/>
<path d="M0 0 C0.99 0 1.98 0 3 0 C3.1546875 1.423125 3.1546875 1.423125 3.3125 2.875 C3.68539295 6.29107501 3.68539295 6.29107501 7 8 C7 9.32 7 10.64 7 12 C2.25 11.25 2.25 11.25 0 9 C-0.1953125 6.8359375 -0.1953125 6.8359375 -0.125 4.375 C-0.10695313 3.55773437 -0.08890625 2.74046875 -0.0703125 1.8984375 C-0.04710938 1.27195312 -0.02390625 0.64546875 0 0 Z " fill="#8E8540" transform="translate(84,9)"/>
<path d="M0 0 C-0.1875 1.875 -0.1875 1.875 -1 4 C-4.29826907 5.78284814 -6.1774751 6 -10 6 C-10 4.68 -10 3.36 -10 2 C-6.49223216 0.39644899 -3.85645121 -0.22036864 0 0 Z " fill="#FAC227" transform="translate(46,77)"/>
<path d="M0 0 C1.32 0 2.64 0 4 0 C4 3.3 4 6.6 4 10 C2.68 10 1.36 10 0 10 C0 6.7 0 3.4 0 0 Z " fill="#DDAE2B" transform="translate(95,10)"/>
<path d="M0 0 C1.98362069 2.91708924 1.9876191 4.12380904 1.625 7.75 C1.41875 8.8225 1.2125 9.895 1 11 C0.01 10.67 -0.98 10.34 -2 10 C-2.25 3.375 -2.25 3.375 0 0 Z " fill="#3F4C2A" transform="translate(93,33)"/>
<path d="M0 0 C0.66 0.66 1.32 1.32 2 2 C1.625 4.625 1.625 4.625 1 7 C-0.65 6.67 -2.3 6.34 -4 6 C-4 4 -4 4 -2 1.875 C-1.34 1.25625 -0.68 0.6375 0 0 Z " fill="#7F7B3A" transform="translate(124,36)"/>
<path d="M0 0 C1.98 0 3.96 0 6 0 C6.33 1.32 6.66 2.64 7 4 C4.69 4 2.38 4 0 4 C0 2.68 0 1.36 0 0 Z " fill="#DEAF28" transform="translate(88,4)"/>
<path d="M0 0 C1.32 0 2.64 0 4 0 C4 1.65 4 3.3 4 5 C2.02 5 0.04 5 -2 5 C-1.34 3.35 -0.68 1.7 0 0 Z " fill="#405234" transform="translate(49,30)"/>
<path d="M0 0 C0.66 0.33 1.32 0.66 2 1 C1.67 2.98 1.34 4.96 1 7 C-1.31 7 -3.62 7 -6 7 C-5.071875 6.6596875 -5.071875 6.6596875 -4.125 6.3125 C-1.38589791 4.62070165 -0.94975528 3.00755839 0 0 Z " fill="#8D7E32" transform="translate(124,90)"/>
<path d="M0 0 C2.31 0 4.62 0 7 0 C7 0.99 7 1.98 7 3 C4.69 3 2.38 3 0 3 C0 2.01 0 1.02 0 0 Z " fill="#B69437" transform="translate(44,93)"/>
<path d="M0 0 C0.99 0 1.98 0 3 0 C3.268125 0.61875 3.53625 1.2375 3.8125 1.875 C4.95556848 4.2995233 4.95556848 4.2995233 8 6 C3.50347222 6.36458333 3.50347222 6.36458333 1.1875 4.6875 C0 3 0 3 0 0 Z " fill="#DDB02C" transform="translate(41,31)"/>
<path d="M0 0 C0.99 0 1.98 0 3 0 C3 1.32 3 2.64 3 4 C3.66 4.33 4.32 4.66 5 5 C3.35 5.33 1.7 5.66 0 6 C0 4.02 0 2.04 0 0 Z " fill="#8A752F" transform="translate(33,92)"/>
<path d="M0 0 C3.96 0.33 7.92 0.66 12 1 C12 1.33 12 1.66 12 2 C6.06 2.495 6.06 2.495 0 3 C0 2.01 0 1.02 0 0 Z " fill="#F1BB26" transform="translate(56,82)"/>
<path d="M0 0 C0.99 0 1.98 0 3 0 C2.25 6.75 2.25 6.75 0 9 C0 6.03 0 3.06 0 0 Z " fill="#284229" transform="translate(84,9)"/>
<path d="M0 0 C2.64 0.33 5.28 0.66 8 1 C4.81237635 3.12508244 2.73487777 3.5020163 -1 4 C-0.67 2.68 -0.34 1.36 0 0 Z " fill="#6F682B" transform="translate(38,85)"/>
</svg>
