<svg width="54" height="54" viewBox="0 0 54 54" fill="none" xmlns="http://www.w3.org/2000/svg">
<rect x="0.5" y="0.5" width="53" height="53" rx="26.5" stroke="#2A4038"/>
<path d="M35.25 20.125V24.25C35.25 24.4323 35.1776 24.6072 35.0486 24.7361C34.9197 24.865 34.7448 24.9375 34.5625 24.9375H30.4375C30.2552 24.9375 30.0803 24.865 29.9514 24.7361C29.8224 24.6072 29.75 24.4323 29.75 24.25C29.75 24.0676 29.8224 23.8928 29.9514 23.7638C30.0803 23.6349 30.2552 23.5625 30.4375 23.5625H32.903L31.6458 22.3052C30.368 21.0216 28.6332 20.2975 26.8221 20.2917H26.7834C24.9875 20.2875 23.2621 20.9904 21.9804 22.2485C21.8491 22.3711 21.675 22.4374 21.4955 22.4332C21.3159 22.4291 21.1451 22.3549 21.0196 22.2264C20.894 22.098 20.8237 21.9255 20.8237 21.7459C20.8238 21.5663 20.8941 21.3938 21.0196 21.2654C22.573 19.7472 24.6623 18.9028 26.8343 18.9155C29.0063 18.9283 31.0857 19.797 32.6212 21.3333L33.875 22.5905V20.125C33.875 19.9426 33.9474 19.7678 34.0764 19.6388C34.2053 19.5099 34.3802 19.4375 34.5625 19.4375C34.7448 19.4375 34.9197 19.5099 35.0486 19.6388C35.1776 19.7678 35.25 19.9426 35.25 20.125ZM32.0196 31.7515C30.7252 33.0158 28.9846 33.7189 27.1753 33.7083C25.3659 33.6977 23.6337 32.9742 22.3542 31.6947L21.097 30.4375H23.5625C23.7448 30.4375 23.9197 30.365 24.0486 30.2361C24.1776 30.1072 24.25 29.9323 24.25 29.75C24.25 29.5676 24.1776 29.3928 24.0486 29.2638C23.9197 29.1349 23.7448 29.0625 23.5625 29.0625H19.4375C19.2552 29.0625 19.0803 29.1349 18.9514 29.2638C18.8224 29.3928 18.75 29.5676 18.75 29.75V33.875C18.75 34.0573 18.8224 34.2322 18.9514 34.3611C19.0803 34.49 19.2552 34.5625 19.4375 34.5625C19.6198 34.5625 19.7947 34.49 19.9236 34.3611C20.0526 34.2322 20.125 34.0573 20.125 33.875V31.4094L21.3823 32.6667C22.9156 34.2077 24.998 35.0769 27.1719 35.0833H27.2174C29.3728 35.0888 31.4436 34.245 32.9813 32.7346C33.1068 32.6061 33.1771 32.4337 33.1771 32.254C33.1771 32.0744 33.1068 31.902 32.9813 31.7735C32.8558 31.645 32.6849 31.5708 32.5054 31.5667C32.3258 31.5626 32.1518 31.6289 32.0205 31.7515H32.0196Z" fill="#2A4038"/>
</svg>
