<?xml version="1.0" encoding="UTF-8"?>
<svg version="1.1" xmlns="http://www.w3.org/2000/svg" width="226" height="393">
<path d="M0 0 C2.73672169 2.41509842 3.15628814 4.93231219 4.078125 8.42578125 C4.58085937 10.26076172 4.58085937 10.26076172 5.09375 12.1328125 C5.72715738 15.13475917 5.88918246 17.57697171 5.828125 20.61328125 C6.43809326 20.48163574 7.04806152 20.34999023 7.67651367 20.21435547 C10.45325682 19.6239183 13.23413813 19.05593163 16.015625 18.48828125 C16.97533203 18.28074219 17.93503906 18.07320312 18.92382812 17.859375 C19.85517578 17.67246094 20.78652344 17.48554687 21.74609375 17.29296875 C22.59969482 17.11491699 23.4532959 16.93686523 24.33276367 16.75341797 C27.31156406 16.58613185 29.16123915 17.33935771 31.828125 18.61328125 C30.92517199 27.64281132 25.4766632 35.05165912 20.828125 42.61328125 C21.37339844 42.74863281 21.91867188 42.88398437 22.48046875 43.0234375 C32.51223939 45.88720792 41.06057275 52.84758169 46.390625 61.80078125 C46.76316406 62.47496094 47.13570312 63.14914063 47.51953125 63.84375 C49.64292954 66.71509157 51.90333087 67.43234327 55.34375 68.10546875 C56.69726562 68.29496094 56.69726562 68.29496094 58.078125 68.48828125 C64.30492502 69.56215452 69.47945648 71.12226919 73.890625 75.80078125 C75.26894862 79.93575211 74.51009756 83.37435378 73.828125 87.61328125 C73.60504999 89.382318 73.39658586 91.15326147 73.203125 92.92578125 C73.10773438 93.72628906 73.01234375 94.52679688 72.9140625 95.3515625 C72.82301228 97.74783869 72.89515452 99.39807442 73.828125 101.61328125 C75.49153127 102.69106233 75.49153127 102.69106233 77.640625 103.23828125 C78.45015625 103.480625 79.2596875 103.72296875 80.09375 103.97265625 C83.01709469 104.65755415 85.91659383 105.08067292 88.890625 105.48828125 C95.45696794 106.47784506 100.14901488 108.93417113 104.828125 113.61328125 C105.25773621 117.47978212 105.4348073 119.72659174 103.203125 122.98828125 C98.51403054 126.19660904 93.33833432 125.72348544 87.828125 125.61328125 C87.50199219 126.30035156 87.17585937 126.98742187 86.83984375 127.6953125 C86.40285156 128.59636719 85.96585938 129.49742187 85.515625 130.42578125 C85.08636719 131.31910156 84.65710938 132.21242187 84.21484375 133.1328125 C82.92357885 135.44253986 81.87638269 136.96315037 79.828125 138.61328125 C73.84478917 140.28861528 69.35952795 139.01101386 63.828125 136.61328125 C63.498125 136.28328125 63.168125 135.95328125 62.828125 135.61328125 C60.49515067 135.57235188 58.16107275 135.57086402 55.828125 135.61328125 C55.39113281 136.53560547 55.39113281 136.53560547 54.9453125 137.4765625 C53.02703291 141.25883075 51.41941765 144.11824554 48.140625 146.86328125 C43.21397808 147.97874848 39.36169569 146.69542377 34.828125 144.61328125 C33.47561003 143.29940956 32.13867123 141.96901873 30.828125 140.61328125 C27.37937829 139.3704223 27.37937829 139.3704223 23.828125 139.61328125 C21.59431185 142.04583179 21.59431185 142.04583179 19.828125 144.61328125 C27.28045606 150.34884494 34.79516686 155.70820062 42.828125 160.61328125 C43.66085938 161.12632812 44.49359375 161.639375 45.3515625 162.16796875 C51.40227797 165.85184284 57.58558128 169.26651827 63.828125 172.61328125 C63.786875 171.66453125 63.745625 170.71578125 63.703125 169.73828125 C63.828125 166.61328125 63.828125 166.61328125 65.828125 164.61328125 C67.765625 164.73828125 67.765625 164.73828125 69.828125 165.61328125 C71.578125 167.67578125 71.578125 167.67578125 72.828125 169.61328125 C73.55 168.78828125 74.271875 167.96328125 75.015625 167.11328125 C77.828125 164.61328125 77.828125 164.61328125 80.640625 164.30078125 C81.7234375 164.45546875 81.7234375 164.45546875 82.828125 164.61328125 C83.818125 168.07828125 83.818125 168.07828125 84.828125 171.61328125 C83.6834375 172.01546875 83.6834375 172.01546875 82.515625 172.42578125 C79.52760994 173.5528022 79.52760994 173.5528022 76.828125 176.61328125 C81.778125 177.27328125 86.728125 177.93328125 91.828125 178.61328125 C91.828125 180.26328125 91.828125 181.91328125 91.828125 183.61328125 C89.65682141 185.78458484 84.83230587 184.84521099 81.828125 184.86328125 C80.58869141 184.89421875 80.58869141 184.89421875 79.32421875 184.92578125 C70.7575281 184.97940686 64.00800074 182.68890625 56.90234375 177.984375 C54.7088238 176.53442113 52.46875323 175.19752561 50.203125 173.86328125 C38.59076769 166.91020311 27.56453768 159.51083106 17.08984375 150.92578125 C16.10330811 150.11753906 15.11677246 149.30929688 14.1003418 148.4765625 C13.35051025 147.86167969 12.60067871 147.24679688 11.828125 146.61328125 C12.76209149 151.03070256 13.70095817 155.44706929 14.640625 159.86328125 C14.90166016 161.09820312 15.16269531 162.333125 15.43164062 163.60546875 C16.87042241 170.35530924 18.41639234 177.05809928 20.12036133 183.74560547 C21.29081373 188.4879766 22.26643585 193.2699953 23.265625 198.05078125 C24.83565145 205.47076927 26.66922598 212.59681687 29.046875 219.796875 C30.30767546 224.34206067 30.63979935 228.91455634 30.828125 233.61328125 C27.28799275 235.97336942 25.81690545 235.84791769 21.62890625 235.80859375 C20.42041016 235.80214844 19.21191406 235.79570312 17.96679688 235.7890625 C16.0728418 235.76392578 16.0728418 235.76392578 14.140625 235.73828125 C12.86638672 235.72925781 11.59214844 235.72023438 10.27929688 235.7109375 C7.12871873 235.68733766 3.97851517 235.65441319 0.828125 235.61328125 C2.43152206 244.36942121 4.10503687 253.09818789 6 261.796875 C7.02555233 266.52312325 8.02141654 271.25535694 9.015625 275.98828125 C9.19472412 276.84010986 9.37382324 277.69193848 9.55834961 278.56958008 C9.98183874 280.58409866 10.40501635 282.59868272 10.828125 284.61328125 C14.40119559 281.56343247 17.96200583 278.50694306 21.453125 275.36328125 C26.51381986 270.93026948 31.84663367 266.85369821 37.22509766 262.81787109 C38.73816425 261.68088197 40.24242582 260.53220258 41.74609375 259.3828125 C42.61878906 258.73699219 43.49148437 258.09117187 44.390625 257.42578125 C45.53724609 256.56919922 45.53724609 256.56919922 46.70703125 255.6953125 C48.828125 254.61328125 48.828125 254.61328125 50.9375 254.60546875 C53.74853775 256.10391449 54.29919438 258.02860422 55.515625 260.92578125 C55.93199219 261.89128906 56.34835938 262.85679687 56.77734375 263.8515625 C58.74346944 269.01903781 58.91975293 273.11560563 58.828125 278.61328125 C51.69982286 279.2029386 47.38543169 278.87562197 41.5390625 274.67578125 C39.77424172 273.37904916 39.77424172 273.37904916 37.078125 273.55078125 C34.37845464 274.82562559 32.93396929 276.49613547 30.828125 278.61328125 C29.1127857 280.02607251 27.38250726 281.42084855 25.640625 282.80078125 C20.95939981 286.55701134 16.87471643 290.56827115 12.8984375 295.05859375 C10.828125 296.61328125 10.828125 296.61328125 8.0703125 296.35546875 C6.96042969 295.98808594 6.96042969 295.98808594 5.828125 295.61328125 C3.37322076 288.89839611 1.79192706 282.19070289 0.453125 275.17578125 C0.24469971 274.1091626 0.03627441 273.04254395 -0.1784668 271.94360352 C-0.849275 268.50135759 -1.51106774 265.05745999 -2.171875 261.61328125 C-2.64950479 259.1418817 -3.12737075 256.67052777 -3.60546875 254.19921875 C-4.80159905 248.00530046 -5.98972386 241.80988187 -7.171875 235.61328125 C-7.99800293 235.53287598 -8.82413086 235.4524707 -9.67529297 235.36962891 C-12.78817185 235.0642226 -15.90055825 234.75427455 -19.01269531 234.44140625 C-21.00291638 234.24267078 -22.99364232 234.0490122 -24.984375 233.85546875 C-32.1458855 233.13208385 -39.15301955 232.22569304 -46.171875 230.61328125 C-46.28394287 231.29213379 -46.39601074 231.97098633 -46.51147461 232.67041016 C-48.83897254 246.52463041 -52.82433314 259.96247795 -56.66796875 273.45239258 C-58.62070064 280.3942065 -60.18668471 287.27166118 -61.4921875 294.36328125 C-64.28737652 307.72878277 -64.28737652 307.72878277 -68.171875 311.61328125 C-73.12811521 312.56116219 -78.16048287 313.03312009 -83.171875 313.61328125 C-84.67621094 313.83757812 -84.67621094 313.83757812 -86.2109375 314.06640625 C-90.00393033 314.59352912 -92.59593926 314.78606197 -96.296875 313.67578125 C-98.171875 311.61328125 -98.171875 311.61328125 -98.859375 307.73828125 C-98.60841876 304.31900246 -98.16241585 303.60177687 -95.859375 300.80078125 C-88.14189721 295.43840232 -79.19337202 295.44223391 -70.171875 295.61328125 C-70.00582764 294.87279541 -69.83978027 294.13230957 -69.66870117 293.36938477 C-68.9036771 289.97042764 -68.13157907 286.57311404 -67.359375 283.17578125 C-67.09833984 282.01111328 -66.83730469 280.84644531 -66.56835938 279.64648438 C-65.25956631 273.91041599 -63.82890355 268.33942351 -61.8840332 262.7878418 C-60.53756187 258.67641904 -59.63399437 254.45289538 -58.671875 250.23828125 C-56.98325581 242.98505353 -55.21002667 235.77755412 -53.171875 228.61328125 C-53.7712085 228.51023682 -54.37054199 228.40719238 -54.98803711 228.30102539 C-61.47719471 227.10514213 -67.5349018 225.28960813 -73.734375 223.05078125 C-74.63478516 222.73431641 -75.53519531 222.41785156 -76.46289062 222.09179688 C-83.02655701 219.75859924 -83.02655701 219.75859924 -84.171875 218.61328125 C-84.6840583 215.18043365 -84.29353092 213.80410879 -82.40625 210.84375 C-81.17648438 209.33748047 -81.17648438 209.33748047 -79.921875 207.80078125 C-79.00135102 206.65204473 -78.08213875 205.5022562 -77.1640625 204.3515625 C-76.67647461 203.74650879 -76.18888672 203.14145508 -75.68652344 202.51806641 C-73.0699991 199.22758883 -70.56158118 195.85681232 -68.046875 192.48828125 C-67.53552002 191.80612549 -67.02416504 191.12396973 -66.49731445 190.42114258 C-63.66430162 186.63604045 -60.86976039 182.82685398 -58.109375 178.98828125 C-53.33246686 172.37332389 -48.24523108 166.00160646 -43.171875 159.61328125 C-44.08066406 159.82984375 -44.08066406 159.82984375 -45.0078125 160.05078125 C-56.06900902 162.50126171 -66.70092882 162.78536808 -76.87890625 157.1015625 C-82.14788719 153.58627536 -86.46742541 149.75058398 -90.171875 144.61328125 C-91.285625 143.09734375 -91.285625 143.09734375 -92.421875 141.55078125 C-94.32927694 138.10039969 -94.61427029 134.75248238 -95.046875 130.86328125 C-95.76822286 124.59156239 -97.52822792 120.29683856 -100.9296875 115.015625 C-102.3248654 112.31740359 -102.41740367 110.60766347 -102.171875 107.61328125 C-100.296875 106.98828125 -100.296875 106.98828125 -98.171875 106.61328125 C-97.511875 107.27328125 -96.851875 107.93328125 -96.171875 108.61328125 C-95.511875 106.30328125 -94.851875 103.99328125 -94.171875 101.61328125 C-92.50575595 101.57056025 -90.83804615 101.57264293 -89.171875 101.61328125 C-87.58914899 103.19600726 -87.82451753 104.99362128 -87.609375 107.17578125 C-87.48369141 108.41521484 -87.48369141 108.41521484 -87.35546875 109.6796875 C-87.29488281 110.31777344 -87.23429687 110.95585937 -87.171875 111.61328125 C-83.87115437 109.41361558 -83.87115437 109.41361558 -81.171875 106.61328125 C-80.98368497 103.08190115 -80.98368497 103.08190115 -81.21875 100.69140625 C-81.16362757 98.24764503 -80.54509674 97.13115082 -79.296875 95.05078125 C-75.11766119 87.54887094 -75.32323873 78.07420701 -74.796875 69.67578125 C-73.66457592 57.25701713 -63.77614456 46.14286682 -54.58984375 38.37109375 C-50.37674568 35.30825994 -45.83515213 32.91441239 -41.171875 30.61328125 C-42.42637845 24.72676507 -43.88108382 18.96427714 -45.5859375 13.19140625 C-46.18021396 10.57658984 -46.27758266 8.28480206 -46.171875 5.61328125 C-44.51171875 4.91015625 -44.51171875 4.91015625 -42.171875 4.61328125 C-39.55078125 5.94140625 -39.55078125 5.94140625 -36.734375 7.86328125 C-35.80753906 8.4871875 -34.88070312 9.11109375 -33.92578125 9.75390625 C-32.1592444 10.94663184 -30.39591886 12.14413568 -28.63671875 13.34765625 C-25.67743906 14.86715961 -24.44462142 15.29997358 -21.171875 14.61328125 C-18.6242923 12.90698262 -16.41793421 10.88126559 -14.171875 8.80078125 C-3.73587976 -0.66520161 -3.73587976 -0.66520161 0 0 Z M-9.421875 13.86328125 C-10.22753906 14.49878906 -11.03320312 15.13429688 -11.86328125 15.7890625 C-13.20449568 16.84887153 -14.54566526 17.90873733 -15.88671875 18.96875 C-18.22900051 20.68973686 -20.12793642 21.60449353 -22.984375 22.17578125 C-27.63334755 21.35537433 -31.18082233 19.04782338 -35.171875 16.61328125 C-35.831875 16.28328125 -36.491875 15.95328125 -37.171875 15.61328125 C-36.69734347 20.45350286 -35.79251922 23.54531073 -33.171875 27.61328125 C-32.16511719 27.48308594 -31.15835938 27.35289063 -30.12109375 27.21875 C-15.69609649 25.67922737 -0.9542394 27.73001224 10.91796875 36.671875 C12.80996236 37.87002596 12.80996236 37.87002596 14.90625 37.01953125 C17.07730977 35.43095093 18.2317797 33.96143057 19.640625 31.67578125 C20.08019531 30.98613281 20.51976562 30.29648438 20.97265625 29.5859375 C22.15114039 27.46971578 22.15114039 27.46971578 20.828125 24.61328125 C20.18746094 24.75765625 19.54679687 24.90203125 18.88671875 25.05078125 C8.28388566 27.32620296 8.28388566 27.32620296 3.828125 26.61328125 C-0.41055839 22.13911545 -1.64285992 16.47450572 -3.171875 10.61328125 C-6.06997057 10.61328125 -7.19090875 12.05726095 -9.421875 13.86328125 Z M-41.171875 38.61328125 C-41.501875 39.27328125 -41.831875 39.93328125 -42.171875 40.61328125 C-38.68721489 42.93638799 -35.77896517 43.19447421 -31.734375 43.61328125 C-22.89286954 44.53409378 -22.89286954 44.53409378 -20.171875 46.61328125 C-19.484375 48.671875 -19.484375 48.671875 -19.171875 51.05078125 C-18.80702298 53.81909595 -18.50249795 55.22941512 -16.66796875 57.359375 C-12.93843823 59.23289503 -9.35680808 59.1455679 -5.234375 59.23828125 C4.52799197 59.55345048 4.52799197 59.55345048 8.828125 60.61328125 C9.034375 61.50015625 9.240625 62.38703125 9.453125 63.30078125 C11.11849771 67.31281551 13.07897826 69.54428051 16.828125 71.61328125 C20.44675232 72.85765103 24.09171207 73.79552539 27.828125 74.61328125 C26.18138422 65.62678156 23.22443069 58.9676417 17.828125 51.61328125 C17.36535156 50.95457031 16.90257812 50.29585937 16.42578125 49.6171875 C10.78606756 42.27738621 1.75511469 36.92868898 -7.171875 34.61328125 C-10.76567344 34.184265 -14.30545279 34.13773006 -17.921875 34.17578125 C-18.88891357 34.1804541 -19.85595215 34.18512695 -20.85229492 34.18994141 C-28.07449244 34.33902764 -34.72197456 35.07165255 -41.171875 38.61328125 Z M-54.546875 48.36328125 C-62.9167721 57.09228284 -66.38241479 66.52565976 -66.234375 78.42578125 C-66.22986328 79.11865234 -66.22535156 79.81152344 -66.22070312 80.52539062 C-66.20900656 82.22139193 -66.19107424 83.91734828 -66.171875 85.61328125 C-65.511875 85.61328125 -64.851875 85.61328125 -64.171875 85.61328125 C-64.50445312 86.68642578 -64.50445312 86.68642578 -64.84375 87.78125 C-65.38352981 92.44006384 -62.99401404 95.0861926 -60.44140625 98.83203125 C-53.0327551 107.91113559 -39.86352591 115.04530474 -28.171875 116.61328125 C-9.59224373 117.8532495 5.33695789 115.04574012 19.828125 102.61328125 C24.43987669 98.41369094 26.5045286 93.80475909 26.828125 87.61328125 C26.48066573 83.66333569 26.48066573 83.66333569 23.828125 80.61328125 C20.88055595 79.44999732 17.90799867 78.62855831 14.85546875 77.78125 C9.60981447 75.75744273 6.3072476 71.57152645 3.828125 66.61328125 C0.14871147 66.10119792 -3.50515058 65.77522519 -7.20703125 65.49023438 C-13.46515694 64.91991258 -18.38986968 63.6631799 -23.546875 59.86328125 C-25.70089618 56.88079039 -25.74415055 54.21958545 -26.171875 50.61328125 C-27.96044922 50.34064453 -27.96044922 50.34064453 -29.78515625 50.0625 C-31.35166582 49.80923199 -32.91806662 49.55529053 -34.484375 49.30078125 C-35.66290039 49.12385742 -35.66290039 49.12385742 -36.86523438 48.94335938 C-37.62255859 48.81767578 -38.37988281 48.69199219 -39.16015625 48.5625 C-39.85665283 48.45252686 -40.55314941 48.34255371 -41.27075195 48.22924805 C-43.171875 47.61328125 -43.171875 47.61328125 -44.67260742 46.05395508 C-48.48758962 42.38806842 -51.60692493 45.45427802 -54.546875 48.36328125 Z M26.828125 52.61328125 C27.31023437 53.60585937 27.79234375 54.5984375 28.2890625 55.62109375 C32.14030043 63.81994687 34.6231558 70.69091648 35.1484375 79.8203125 C35.57096395 82.81761241 35.57096395 82.81761241 38.2578125 84.5 C40.66715721 85.74576488 40.66715721 85.74576488 42.828125 85.61328125 C44.55718478 93.47108759 44.55718478 93.47108759 41.953125 97.55078125 C38.98843391 99.50747737 37.73847303 99.93880366 34.390625 100.48828125 C29.73960644 101.30679932 28.24693441 102.99737816 25.48046875 106.67578125 C20.39907648 112.6341041 12.83133227 116.37105566 5.828125 119.61328125 C6.71368129 129.96505075 6.71368129 129.96505075 11.828125 138.61328125 C15.02537982 138.95741147 15.02537982 138.95741147 17.265625 136.30078125 C18.11125 135.41390625 18.956875 134.52703125 19.828125 133.61328125 C21.765625 131.67578125 21.765625 131.67578125 23.828125 130.61328125 C28.81178112 131.42457411 32.5521291 134.30241073 36.58203125 137.17578125 C38.92197758 138.6733469 41.22414382 139.66138655 43.828125 140.61328125 C46.02019519 138.73436395 46.99495133 137.26512195 48.265625 134.61328125 C49.92253037 131.43202294 50.60903073 130.13811538 53.828125 128.61328125 C59.43130562 127.81599073 63.82450249 128.75113878 68.96484375 130.9453125 C71.6132826 131.89475284 74.05022525 131.82162373 76.828125 131.61328125 C77.11945313 130.9378125 77.41078125 130.26234375 77.7109375 129.56640625 C82.17441475 119.85343059 82.17441475 119.85343059 87.828125 117.61328125 C91.23390922 117.60817513 94.48095159 118.00470427 97.828125 118.61328125 C97.498125 117.62328125 97.168125 116.63328125 96.828125 115.61328125 C95.03368091 114.79666007 95.03368091 114.79666007 92.8203125 114.3671875 C91.99789062 114.16931641 91.17546875 113.97144531 90.328125 113.76757812 C89.461875 113.57228516 88.595625 113.37699219 87.703125 113.17578125 C78.63953986 111.11776536 71.44503237 108.77973841 65.9296875 100.81640625 C63.19876124 95.35455373 64.52011423 90.12329755 66.328125 84.55078125 C66.81461184 83.23321273 67.3096959 81.91861167 67.828125 80.61328125 C64.40037762 77.54313602 60.76689743 76.6228612 56.390625 75.61328125 C50.37575541 74.2175003 45.63091026 73.06294827 41.8359375 67.90625 C41.21460938 66.88144531 40.59328125 65.85664062 39.953125 64.80078125 C36.70275057 59.72207121 33.71624379 56.13272678 28.828125 52.61328125 C28.168125 52.61328125 27.508125 52.61328125 26.828125 52.61328125 Z M34.828125 89.61328125 C34.498125 90.93328125 34.168125 92.25328125 33.828125 93.61328125 C35.148125 93.28328125 36.468125 92.95328125 37.828125 92.61328125 C37.498125 91.62328125 37.168125 90.63328125 36.828125 89.61328125 C36.168125 89.61328125 35.508125 89.61328125 34.828125 89.61328125 Z M-71.171875 95.61328125 C-72.491875 97.92328125 -73.811875 100.23328125 -75.171875 102.61328125 C-73.80863757 104.65325315 -73.80863757 104.65325315 -72.171875 106.61328125 C-71.511875 106.61328125 -70.851875 106.61328125 -70.171875 106.61328125 C-69.50520833 107.94661458 -68.83854167 109.27994792 -68.171875 110.61328125 C-67.8109375 111.17789063 -67.45 111.7425 -67.078125 112.32421875 C-65.81940839 115.50356328 -66.27705637 118.09731738 -66.546875 121.48828125 C-66.75426505 126.46943704 -66.75426505 126.46943704 -64.57421875 130.72265625 C-62.51021722 132.2195396 -60.41873313 133.41411539 -58.171875 134.61328125 C-57.32625 135.41765625 -56.480625 136.22203125 -55.609375 137.05078125 C-53.15395633 138.95082641 -53.15395633 138.95082641 -49.609375 138.48828125 C-46.3443112 137.84872903 -46.3443112 137.84872903 -44.47265625 136.52734375 C-41.60246552 135.38706424 -39.21376836 135.69877172 -36.17944336 135.94555664 C-28.75809234 136.56527104 -28.75809234 136.56527104 -22.27734375 133.4296875 C-18.79837625 129.44303083 -18.79837625 129.44303083 -17.171875 124.61328125 C-18.27144531 124.443125 -19.37101562 124.27296875 -20.50390625 124.09765625 C-37.6408793 121.33600896 -51.93618118 116.5334894 -64.171875 103.61328125 C-66.01172581 101.01685628 -67.56950913 98.36734759 -69.171875 95.61328125 C-69.831875 95.61328125 -70.491875 95.61328125 -71.171875 95.61328125 Z M-82.19140625 116.62109375 C-86.10308184 120.55591535 -88.13997009 123.66708203 -88.234375 129.42578125 C-86.65664601 137.40723378 -82.77013944 144.09972357 -76.39453125 149.140625 C-68.80088177 154.17191824 -61.21604782 155.9021039 -52.171875 154.61328125 C-44.16216046 152.43218865 -37.40875706 149.09646155 -31.171875 143.61328125 C-34.74345783 141.23222603 -35.95497079 141.2154601 -40.171875 141.61328125 C-41.45402994 142.10558547 -42.72461264 142.62871313 -43.984375 143.17578125 C-48.59333169 144.98080991 -52.46998829 145.35266164 -57.171875 143.61328125 C-59.77229733 141.71578558 -62.03492461 139.6868125 -64.32421875 137.42578125 C-67.21719315 134.58785287 -69.35193981 134.4048139 -73.296875 134.05078125 C-74.20695312 133.96699219 -75.11703125 133.88320312 -76.0546875 133.796875 C-76.75335938 133.73628906 -77.45203125 133.67570312 -78.171875 133.61328125 C-78.32421875 131.25 -78.32421875 131.25 -78.171875 128.61328125 C-75.734375 126.42578125 -75.734375 126.42578125 -73.171875 124.61328125 C-71.92916829 122.12786782 -72.21821815 120.84912746 -72.546875 118.11328125 C-72.63710937 117.31921875 -72.72734375 116.52515625 -72.8203125 115.70703125 C-73.07534404 113.56223549 -73.07534404 113.56223549 -74.171875 111.61328125 C-77.64594142 111.61328125 -79.71519093 114.37490936 -82.19140625 116.62109375 Z M-9.171875 124.61328125 C-11.23216061 126.85548888 -12.94473154 129.29714893 -14.671875 131.80078125 C-15.13207031 132.44853516 -15.59226563 133.09628906 -16.06640625 133.76367188 C-16.9867183 135.06118225 -17.90085893 136.36309331 -18.80859375 137.66943359 C-19.7333234 138.98796824 -20.67407089 140.29538578 -21.62890625 141.59228516 C-24.26235489 144.76697627 -24.26235489 144.76697627 -25.171875 148.61328125 C-25.831875 148.61328125 -26.491875 148.61328125 -27.171875 148.61328125 C-28.55739857 150.36136421 -28.55739857 150.36136421 -29.921875 152.61328125 C-32.45807177 156.56749936 -35.16395925 160.29554203 -38.0703125 163.984375 C-39.3586047 165.56166753 -39.3586047 165.56166753 -39.171875 167.61328125 C-40.161875 167.94328125 -41.151875 168.27328125 -42.171875 168.61328125 C-43.4379953 170.16046931 -43.4379953 170.16046931 -44.609375 172.17578125 C-47.53932445 176.75291622 -50.71140851 181.09186567 -53.984375 185.42578125 C-54.76458008 186.46025391 -54.76458008 186.46025391 -55.56054688 187.515625 C-56.60178157 188.89445256 -57.64376391 190.27271588 -58.68652344 191.65039062 C-62.19880001 196.29186065 -65.68862745 200.94999473 -69.171875 205.61328125 C-69.99558594 206.69609375 -69.99558594 206.69609375 -70.8359375 207.80078125 C-73.55596579 211.31235809 -73.55596579 211.31235809 -74.171875 215.61328125 C-63.40617525 219.80714822 -52.69098562 222.48516608 -41.296875 224.42578125 C-40.08620361 224.63227295 -38.87553223 224.83876465 -37.62817383 225.05151367 C-23.49095388 227.35121448 -9.70493529 227.74660855 4.578125 227.67578125 C6.3541654 227.67075411 8.13020718 227.66619336 9.90625 227.66210938 C14.21357648 227.65120482 18.52083505 227.63400777 22.828125 227.61328125 C21.40926262 218.4196193 21.40926262 218.4196193 19.078125 209.42578125 C14.24960472 193.07343191 10.62308916 176.40960977 7.56469727 159.64355469 C6.61888021 154.49982521 5.56302455 149.43289011 4.2578125 144.3671875 C3.05744996 139.69138775 2.21738057 135.15478907 1.640625 130.36328125 C1.48207031 129.079375 1.32351562 127.79546875 1.16015625 126.47265625 C0.99580078 125.05726563 0.99580078 125.05726563 0.828125 123.61328125 C-3.2390366 122.45123508 -5.50505406 122.4233743 -9.171875 124.61328125 Z M44.828125 266.61328125 C45.158125 267.60328125 45.488125 268.59328125 45.828125 269.61328125 C48.83659918 270.83848389 48.83659918 270.83848389 51.828125 271.61328125 C51.168125 269.30328125 50.508125 266.99328125 49.828125 264.61328125 C47.50454989 264.42838118 47.50454989 264.42838118 44.828125 266.61328125 Z M-89.171875 305.61328125 C-85.38474307 306.87565856 -82.91535567 306.28886998 -78.984375 305.67578125 C-77.71207031 305.48113281 -76.43976563 305.28648437 -75.12890625 305.0859375 C-73.66517578 304.85197266 -73.66517578 304.85197266 -72.171875 304.61328125 C-72.171875 303.95328125 -72.171875 303.29328125 -72.171875 302.61328125 C-78.63080214 302.2095983 -83.23296078 303.02175505 -89.171875 305.61328125 Z " fill="#0B1010" transform="translate(113.171875,49.38671875)"/>
<path d="M0 0 C1.14649412 3.43948236 0.54269303 5.0853394 -0.39453125 8.48828125 C-1.36886411 12.53019111 -1.87322768 16.63774122 -2.4375 20.75390625 C-3.38161597 26.20224214 -5.10902669 31.35796158 -6.85253906 36.59521484 C-9.23442749 43.83249121 -10.77629243 50.7158475 -11.640625 58.3046875 C-12 61 -12 61 -13 63 C-13.66 63 -14.32 63 -15 63 C-15.33 66.3 -15.66 69.6 -16 73 C-23.26 73.99 -30.52 74.98 -38 76 C-37.67 75.01 -37.34 74.02 -37 73 C-28.585 71.515 -28.585 71.515 -20 70 C-19.505 68.515 -19.505 68.515 -19 67 C-19.66 67 -20.32 67 -21 67 C-21 66.34 -21 65.68 -21 65 C-25.62 65.33 -30.24 65.66 -35 66 C-34.67 65.01 -34.34 64.02 -34 63 C-30.32612505 62.14701624 -26.9552607 61.89210529 -23.1875 61.9375 C-22.21167969 61.94652344 -21.23585938 61.95554687 -20.23046875 61.96484375 C-19.12638672 61.98224609 -19.12638672 61.98224609 -18 62 C-17.91363281 61.13761719 -17.82726562 60.27523437 -17.73828125 59.38671875 C-16.38656165 47.64287969 -13.74046178 36.22138534 -10 25 C-9.34 25 -8.68 25 -8 25 C-8.0825 24.360625 -8.165 23.72125 -8.25 23.0625 C-7.94767455 19.35901329 -6.66350801 16.81684315 -5.0859375 13.48828125 C-3.59340373 10.06833876 -2.60543579 6.5604603 -1.61328125 2.96875 C-1 1 -1 1 0 0 Z " fill="#0C1212" transform="translate(62,285)"/>
<path d="M0 0 C2.125 0.375 2.125 0.375 4 1 C3.67319904 8.35302171 1.97694144 12.37705561 -2.74609375 18.125 C-6.46903162 21.22207136 -10.05183372 20.72119421 -14.72265625 20.58984375 C-19.85442759 19.66624724 -22.85888046 17.05624886 -26 13 C-27.85089889 9.81669507 -28.20498261 7.6896869 -28 4 C-27.01 3.67 -26.02 3.34 -25 3 C-22.89950329 4.89044704 -21.59458034 6.64082463 -20.0625 9.0625 C-17.68436586 12.51874134 -17.68436586 12.51874134 -14 14 C-10.14533632 13.68533358 -8.25125017 13.16750011 -5 11 C-4.06314892 8.8858856 -4.06314892 8.8858856 -3.4375 6.5 C-2.20273349 2.20273349 -2.20273349 2.20273349 0 0 Z " fill="#090E0E" transform="translate(90,131)"/>
<path d="M0 0 C0.66 0 1.32 0 2 0 C0.87548273 2.9719385 -0.22293791 5.33440687 -2 8 C-2.66 8 -3.32 8 -4 8 C-4.22816406 8.67804688 -4.45632812 9.35609375 -4.69140625 10.0546875 C-6.34433658 13.77501428 -8.5460102 16.84662293 -10.9375 20.125 C-11.60168945 21.05505859 -11.60168945 21.05505859 -12.27929688 22.00390625 C-15.59177733 26.59497454 -15.59177733 26.59497454 -17.46508789 28.45361328 C-19.16608314 30.16732473 -20.5435361 31.97298212 -21.96875 33.921875 C-22.53513184 34.69362061 -23.10151367 35.46536621 -23.68505859 36.26049805 C-24.28398926 37.08203369 -24.88291992 37.90356934 -25.5 38.75 C-26.11568848 39.59022705 -26.73137695 40.4304541 -27.36572266 41.29614258 C-28.62933747 43.02101757 -29.89186672 44.74668834 -31.15332031 46.47314453 C-33.40196955 49.55002444 -35.65688706 52.62227267 -37.91210938 55.69433594 C-39.94315938 58.46160768 -41.97168216 61.23072524 -44 64 C-44.33 63.34 -44.66 62.68 -45 62 C-41.46582417 54.99343463 -36.41977821 48.94288105 -31.40234375 42.96484375 C-27.84618751 38.57602654 -24.60906325 33.97706957 -21.359375 29.359375 C-20.97587891 28.81603516 -20.59238281 28.27269531 -20.19726562 27.71289062 C-19.34209872 26.48942998 -18.49826393 25.25801659 -17.66210938 24.02148438 C-16.48968739 22.31349041 -15.24970164 20.65229009 -14 19 C-13.34 19 -12.68 19 -12 19 C-11.773125 18.32582031 -11.54625 17.65164062 -11.3125 16.95703125 C-9.6363107 13.18061666 -7.40895459 10.02906415 -5 6.6875 C-4.54882812 6.04232422 -4.09765625 5.39714844 -3.6328125 4.73242188 C-2.47579063 3.11498745 -1.24333423 1.55206756 0 0 Z " fill="#030606" transform="translate(90,190)"/>
<path d="M0 0 C0.33 0.66 0.66 1.32 1 2 C0.41983864 3.73173793 -0.23940474 5.43734883 -0.9375 7.125 C-2.84711702 12.09523608 -3.29287713 15.72821159 -3 21 C-3.33 21.33 -3.66 21.66 -4 22 C-4.13342155 24.01911286 -4.23125321 26.04061548 -4.3125 28.0625 C-4.65490997 33.29566572 -5.50541572 36.66032299 -8.17578125 41.1015625 C-9.2059433 43.47435281 -9.0005138 45.06891001 -8.75 47.625 C-8.609375 49.87890625 -8.609375 49.87890625 -9 52 C-11.35935043 54.54204349 -13.99673499 56.29055228 -17 58 C-17.33 57.34 -17.66 56.68 -18 56 C-17.01 55.34 -16.02 54.68 -15 54 C-13.2822958 52.67301475 -13.2822958 52.67301475 -12 51 C-11.81180997 47.4686199 -11.81180997 47.4686199 -12.046875 45.078125 C-11.99175257 42.63436378 -11.37322174 41.51786957 -10.125 39.4375 C-5.94578619 31.93558969 -6.15136373 22.46092576 -5.625 14.0625 C-5.21190075 8.94465929 -3.7565334 3.7565334 0 0 Z " fill="#030707" transform="translate(44,105)"/>
<path d="M0 0 C0.66 0.33 1.32 0.66 2 1 C0.90536178 2.17561146 -0.20107186 3.3402489 -1.3125 4.5 C-2.23482422 5.47453125 -2.23482422 5.47453125 -3.17578125 6.46875 C-5 8 -5 8 -8 8 C-8 8.66 -8 9.32 -8 10 C-9.7325 10.928125 -9.7325 10.928125 -11.5 11.875 C-12.1496875 12.22304687 -12.799375 12.57109375 -13.46875 12.9296875 C-21.21279378 16.20417515 -28.57119052 16.33622517 -36.875 16.3125 C-38.55529297 16.33666992 -38.55529297 16.33666992 -40.26953125 16.36132812 C-47.08924577 16.36530695 -53.76694329 16.04366416 -60 13 C-60.66 12.01 -61.32 11.02 -62 10 C-61.40832031 10.20496094 -60.81664063 10.40992188 -60.20703125 10.62109375 C-59.41683594 10.89050781 -58.62664062 11.15992188 -57.8125 11.4375 C-56.64654297 11.83775391 -56.64654297 11.83775391 -55.45703125 12.24609375 C-41.12131676 16.6448106 -25.37779899 14.78975338 -11.953125 8.59375 C-9.0816416 7.04406055 -6.66525302 5.35240016 -4.125 3.3125 C-3.34382813 2.68988281 -2.56265625 2.06726563 -1.7578125 1.42578125 C-1.17773438 0.95527344 -0.59765625 0.48476562 0 0 Z " fill="#020505" transform="translate(133,151)"/>
<path d="M0 0 C0.71542969 0.31195313 1.43085938 0.62390625 2.16796875 0.9453125 C4.93743433 1.97669968 7.39518405 2.4612562 10.3125 2.875 C16.51099742 3.95409064 21.671338 5.53020697 26.0625 10.1875 C28.34641734 17.03925202 25.47569365 25.13730819 24 32 C23.34 32 22.68 32 22 32 C21.79056907 26.86894226 22.57382437 22.90247874 24 18 C24.2007368 14.52056205 24.10370412 12.31111236 23 9 C20.22590311 8.16360383 17.57963432 7.5057654 14.75 6.9375 C4.29247442 4.74194868 4.29247442 4.74194868 1 3 C0.67 2.01 0.34 1.02 0 0 Z " fill="#030607" transform="translate(161,115)"/>
<path d="M0 0 C2.06012354 3.09018531 2.63759021 5.11402985 3.4375 8.69921875 C3.69273437 9.82650391 3.94796875 10.95378906 4.2109375 12.11523438 C4.47132813 13.29408203 4.73171875 14.47292969 5 15.6875 C5.52022425 18.00404312 6.04104384 20.32045263 6.5625 22.63671875 C6.80959717 23.73781982 7.05669434 24.8389209 7.3112793 25.97338867 C8.81494407 32.58130508 10.5787684 39.08695164 12.51171875 45.58203125 C13 48 13 48 12 51 C8.01998553 42.47967776 5.90913218 34.57360946 4.5703125 25.265625 C4.06271843 22.35912745 3.36568883 19.73107802 2.4375 16.9375 C0.62490907 11.38071871 0.28949474 5.80985997 0 0 Z " fill="#030606" transform="translate(130,224)"/>
<path d="M0 0 C3.34904486 0.41863061 5.97010421 1.4053897 8.9375 2.9375 C16.93440864 7.06300801 24.32137561 9.05146541 33.03515625 6.48046875 C36.07016713 5.73830903 38.88917319 5.87038222 42 6 C42 6.99 42 7.98 42 9 C40 10.6875 40 10.6875 38 12 C38.33 10.68 38.66 9.36 39 8 C38.46632812 8.144375 37.93265625 8.28875 37.3828125 8.4375 C26.70260837 11.0983121 16.13922232 10.97313242 6.3046875 5.5 C4.12100598 4.07615751 2.01118697 2.65860852 0 1 C0 0.67 0 0.34 0 0 Z " fill="#030607" transform="translate(30,201)"/>
<path d="M0 0 C5.81143421 5.81143421 6.56854213 19.47616029 7.98925781 27.49291992 C8.5864252 30.85843221 9.25452662 34.14925816 10.1875 37.4375 C11.16056285 41.70400633 11.18132375 45.64822993 11 50 C8.75306575 46.62959863 8.32686868 44.31475201 7.59765625 40.34765625 C7.41280922 39.36459755 7.41280922 39.36459755 7.22422791 38.36167908 C6.83045502 36.26310709 6.44583491 34.1630016 6.0625 32.0625 C5.5580603 29.32333127 5.0488764 26.58509951 4.53515625 23.84765625 C4.41048981 23.1800528 4.28582336 22.51244934 4.15737915 21.82461548 C3.16917248 16.63790112 1.93356538 11.54461613 0.54858398 6.45092773 C0 4 0 4 0 0 Z " fill="#020505" transform="translate(115,184)"/>
<path d="M0 0 C3.37530615 0.58093505 4.92424501 1.65144544 7.3125 4.0625 C9.98559237 6.43351584 10.82259905 6.97148913 14.5 7.5625 C18.06833125 7.15519401 18.06833125 7.15519401 21.3125 5.4375 C26.1356755 3.55727904 29.9866192 4.01015516 35 5 C35.66 5.33 36.32 5.66 37 6 C35.51218185 9.78717347 33.38011591 11.77407001 30 14 C29.01 13.67 28.02 13.34 27 13 C29.31 11.35 31.62 9.7 34 8 C31.14477297 6.57238649 29.19169638 6.76357805 26 7 C24.71659791 7.48904375 23.44594244 8.01240241 22.1875 8.5625 C17.57549065 10.36872419 13.7053535 10.73480205 9 9 C5.67057128 6.63701639 2.75027863 4.01685409 0 1 C0 0.67 0 0.34 0 0 Z " fill="#030607" transform="translate(47,185)"/>
<path d="M0 0 C0.66 0 1.32 0 2 0 C2.10957031 0.97839844 2.21914062 1.95679688 2.33203125 2.96484375 C3.20032126 10.28368824 4.33071563 17.08412686 7 24 C11.58393632 23.15280791 13.899906 20.40158449 17 17.125 C24.1841788 9.63851665 24.1841788 9.63851665 27 8 C27.99 8.33 28.98 8.66 30 9 C29.31035156 9.54527344 28.62070313 10.09054687 27.91015625 10.65234375 C22.17190109 15.25711641 16.95203835 19.93248902 12.0703125 25.4453125 C10 27 10 27 7.2421875 26.7421875 C6.50226563 26.49726563 5.76234375 26.25234375 5 26 C1.91572662 17.58834533 -0.21390647 9.01698035 0 0 Z " fill="#030606" transform="translate(114,319)"/>
<path d="M0 0 C0.33 0 0.66 0 1 0 C1 2.64 1 5.28 1 8 C-2 9 -2 9 -5.9375 8.875 C-12.86646116 8.77260156 -19.47387734 10.82462578 -26 13 C-26.33 15.97 -26.66 18.94 -27 22 C-27.66 22 -28.32 22 -29 22 C-29.297262 19.07692365 -29.48273004 16.85394242 -29 14 C-24.58208607 8.62686143 -18.71535379 7.11333497 -12 6 C-8.31495629 5.79020791 -4.68494569 5.80755603 -1 6 C-0.67 4.02 -0.34 2.04 0 0 Z " fill="#030707" transform="translate(44,339)"/>
<path d="M0 0 C2.91387197 0.2913872 3.82565583 0.79452294 5.75 3.0625 C6.1625 3.701875 6.575 4.34125 7 5 C7.721875 4.175 8.44375 3.35 9.1875 2.5 C12 0 12 0 14.8125 -0.3125 C15.534375 -0.209375 16.25625 -0.10625 17 0 C17.66 2.31 18.32 4.62 19 7 C17.02 7.66 15.04 8.32 13 9 C13.309375 8.401875 13.61875 7.80375 13.9375 7.1875 C15.10209704 4.91043228 15.10209704 4.91043228 16 2 C13.25129164 3.5270602 11.07604429 4.92171912 8.875 7.1875 C7 9 7 9 4 9 C3.9175 8.05125 3.835 7.1025 3.75 6.125 C3.34925077 2.89538209 3.34925077 2.89538209 0.9375 1.625 C0.298125 1.41875 -0.34125 1.2125 -1 1 C-0.67 0.67 -0.34 0.34 0 0 Z M-2 2 C-1.67 2 -1.34 2 -1 2 C-1 4.31 -1 6.62 -1 9 C-1.99 9 -2.98 9 -4 9 C-3.34 8.67 -2.68 8.34 -2 8 C-2 6.02 -2 4.04 -2 2 Z " fill="#020404" transform="translate(179,214)"/>
<path d="M0 0 C2.58283025 0.63359164 5.12858521 1.3227945 7.6875 2.0546875 C12.16218076 3.17335769 16.41019357 3.22840985 21 3.125 C21.77472656 3.11597656 22.54945313 3.10695312 23.34765625 3.09765625 C25.23190843 3.07439388 27.11599832 3.0385364 29 3 C29.33 2.34 29.66 1.68 30 1 C29.01 1.33 28.02 1.66 27 2 C24.8125 1.0625 24.8125 1.0625 23 0 C25.64 0 28.28 0 31 0 C31.042721 1.66611905 31.04063832 3.33382885 31 5 C28.82869641 7.17130359 24.00418087 6.23192974 21 6.25 C20.17371094 6.270625 19.34742188 6.29125 18.49609375 6.3125 C12.68715509 6.34886268 7.22652303 5.71182202 2 3 C1.34 2.01 0.68 1.02 0 0 Z " fill="#030808" transform="translate(174,228)"/>
<path d="M0 0 C1.32 0.33 2.64 0.66 4 1 C3.7284883 7.10901322 2.98125815 11.10873999 -1 16 C-1.57105469 16.70511719 -2.14210938 17.41023438 -2.73046875 18.13671875 C-5.74894809 20.61488509 -7.63545666 20.53545453 -11.5 20.5 C-12.6240625 20.5103125 -13.748125 20.520625 -14.90625 20.53125 C-18.54493251 19.90642573 -19.71463922 18.82309273 -22 16 C-20.35 16.33 -18.7 16.66 -17 17 C-17 17.66 -17 18.32 -17 19 C-10.97930006 18.73241334 -6.69294156 18.13425804 -2 14 C0.21228828 10.41456728 1.38835701 7.15917236 2 3 C1.01 3 0.02 3 -1 3 C-1.33 4.65 -1.66 6.3 -2 8 C-2.6875 6.25 -2.6875 6.25 -3 4 C-1.5625 1.75 -1.5625 1.75 0 0 Z " fill="#030606" transform="translate(90,131)"/>
<path d="M0 0 C0.33 0 0.66 0 1 0 C1.34338883 3.6914299 1.27811415 5.54677695 -0.6875 8.75 C-4.04469038 12.01645551 -6.96725106 12.77869665 -11.5 13.75 C-15.84872437 15.30311585 -17.23882932 17.36688069 -20 21 C-21.63072616 22.37705764 -23.2866438 23.72722111 -25 25 C-25.66 24.67 -26.32 24.34 -27 24 C-25.948125 22.9790625 -25.948125 22.9790625 -24.875 21.9375 C-22.75313383 19.83960971 -20.87392931 17.63306531 -19 15.3125 C-16.04094628 11.84274665 -13.61083071 10.35462071 -9.015625 9.73046875 C-6.7901298 9.36090659 -5.02104479 9.01489695 -3 8 C-1.42814404 5.46004732 -0.64812644 2.90306637 0 0 Z " fill="#030607" transform="translate(157,138)"/>
<path d="M0 0 C0.66 0 1.32 0 2 0 C3.81826458 4.08519185 4.7497654 8.18921379 5.5625 12.5625 C6.44230216 17.36378884 6.44230216 17.36378884 7.5859375 22.10546875 C8.14811294 24.67768658 8.09379523 27.12120059 8.0625 29.75 C8.05347656 30.73484375 8.04445313 31.7196875 8.03515625 32.734375 C8.02355469 33.48203125 8.01195313 34.2296875 8 35 C2.43603157 25.13768685 1.89540152 11.10355784 0 0 Z " fill="#030606" transform="translate(106,284)"/>
<path d="M0 0 C2.62901288 1.52206009 4.84365964 2.84365964 7 5 C7.42961121 8.86650087 7.6066823 11.11331049 5.375 14.375 C0.64046392 17.61441943 -4.45669512 17 -10 17 C-10.66 17.33 -11.32 17.66 -12 18 C-11.34 16.68 -10.68 15.36 -10 14 C-8.98679688 14.03480469 -8.98679688 14.03480469 -7.953125 14.0703125 C-7.06109375 14.08835938 -6.1690625 14.10640625 -5.25 14.125 C-4.36828125 14.14820313 -3.4865625 14.17140625 -2.578125 14.1953125 C0.1135858 13.99139502 1.69904974 13.36551721 4 12 C3.896875 10.72125 3.79375 9.4425 3.6875 8.125 C3.62949219 7.40570313 3.57148438 6.68640625 3.51171875 5.9453125 C3.12606964 3.60480784 3.12606964 3.60480784 0 2 C0 1.34 0 0.68 0 0 Z " fill="#030707" transform="translate(211,158)"/>
<path d="M0 0 C0.66 0.33 1.32 0.66 2 1 C-3.20681849 10.32795994 -3.20681849 10.32795994 -8 12 C-12.43896429 11.8590805 -15.07388582 11.48235114 -19 9.4375 C-22.9482902 7.54561095 -25.65948278 7.77549049 -30 8 C-29.67 7.01 -29.34 6.02 -29 5 C-27.741875 5.12375 -26.48375 5.2475 -25.1875 5.375 C-24.12595703 5.47941406 -24.12595703 5.47941406 -23.04296875 5.5859375 C-21 6 -21 6 -18 8 C-15.16596357 8.39342518 -15.16596357 8.39342518 -12.0625 8.375 C-11.02222656 8.40335938 -9.98195312 8.43171875 -8.91015625 8.4609375 C-5.32679658 7.89337181 -4.23746265 6.78782703 -2 4 C-0.76487921 1.86690808 -0.76487921 1.86690808 0 0 Z " fill="#030606" transform="translate(198,177)"/>
<path d="M0 0 C1.9375 0.75 1.9375 0.75 4 2 C5.34895877 5.34687609 4.75806884 7.27091472 3.5 10.5625 C1.62551497 16.25380976 2.07729671 21.15250688 3 27 C-0.02403396 24.0704671 -1.31380278 21.90477144 -1.4375 17.75 C-1.23168149 12.85151956 0.20161474 8.52807717 2 4 C1.01 3.01 0.02 2.02 -1 1 C-0.67 0.67 -0.34 0.34 0 0 Z " fill="#030707" transform="translate(178,126)"/>
<path d="M0 0 C0.66 0.33 1.32 0.66 2 1 C1.48050781 1.44730469 0.96101563 1.89460938 0.42578125 2.35546875 C-2.64449824 5.01713433 -5.66085584 7.65237724 -8.5 10.5625 C-11.20583773 13.20069179 -14.07083416 15.36616467 -17.1328125 17.5703125 C-19.03663298 18.94426124 -19.03663298 18.94426124 -20.5546875 20.6796875 C-22 22 -22 22 -25 22 C-23.88879494 19.77758988 -22.836908 18.89173444 -20.9375 17.3125 C-18.29868522 15.0982603 -15.6984943 12.85234263 -13.125 10.5625 C-8.89726314 6.8487233 -4.47551176 3.40843372 0 0 Z " fill="#030606" transform="translate(148,314)"/>
<path d="M0 0 C3.10853024 2.53384398 3.77382205 4.96925146 4.6875 8.8125 C5.06455078 10.33810547 5.06455078 10.33810547 5.44921875 11.89453125 C6.008958 15.05050789 6.2858926 17.80526366 6 21 C3.375 23.1875 3.375 23.1875 0 25 C-1.60875 25.8971875 -1.60875 25.8971875 -3.25 26.8125 C-4.1575 27.204375 -5.065 27.59625 -6 28 C-6.66 27.67 -7.32 27.34 -8 27 C-6.56542672 26.0165504 -5.12722594 25.03839079 -3.6875 24.0625 C-2.88699219 23.51722656 -2.08648437 22.97195312 -1.26171875 22.41015625 C1 21 1 21 4 20 C3.07976573 15.68273071 2.12506359 11.42382662 0.875 7.1875 C0 4 0 4 0 0 Z " fill="#030606" transform="translate(68,60)"/>
<path d="M0 0 C4.0933386 6.14000791 5.01155311 13.79845836 6 21 C6.62256028 23.01416562 7.27566653 25.02015519 8 27 C7.34 27.33 6.68 27.66 6 28 C4.14338047 22.61580338 2.40236435 17.20050741 0.75 11.75 C0.39421875 10.58984375 0.0384375 9.4296875 -0.328125 8.234375 C-0.996656 5.01609787 -0.9146613 3.11922957 0 0 Z " fill="#030606" transform="translate(131,251)"/>
<path d="M0 0 C-1 3 -1 3 -4.25 4.625 C-12.1703084 7.52911308 -19.73700852 7.69497261 -28 6 C-28 5.34 -28 4.68 -28 4 C-26.96101563 4.04640625 -25.92203125 4.0928125 -24.8515625 4.140625 C-17.15442089 4.37706228 -10.90147377 4.33156686 -3.8203125 0.875 C-2 0 -2 0 0 0 Z " fill="#050909" transform="translate(73,199)"/>
<path d="M0 0 C0.66 0.33 1.32 0.66 2 1 C1.57847656 1.80824219 1.15695313 2.61648437 0.72265625 3.44921875 C0.17480469 4.51785156 -0.37304688 5.58648437 -0.9375 6.6875 C-1.48277344 7.74324219 -2.02804688 8.79898438 -2.58984375 9.88671875 C-4.94982714 15.0969868 -5.23239514 20.15742496 -5.5625 25.8125 C-5.60568359 26.50537109 -5.64886719 27.19824219 -5.69335938 27.91210938 C-5.79861453 29.60788686 -5.89972863 31.30392052 -6 33 C-5.34 33 -4.68 33 -4 33 C-4.66 34.32 -5.32 35.64 -6 37 C-9.36560545 26.5292275 -7.93558176 14.51254341 -3 4.69921875 C-2.05743501 3.09759464 -1.03085156 1.54627734 0 0 Z " fill="#030608" transform="translate(53,102)"/>
<path d="M0 0 C2.2734375 1.53125 2.2734375 1.53125 4 3 C3.19175781 2.94199219 2.38351563 2.88398438 1.55078125 2.82421875 C-5.17720338 2.391614 -5.17720338 2.391614 -11.0625 5.1875 C-12.82419715 7.74480231 -14.51817604 10.27032428 -16 13 C-16.99 12.67 -17.98 12.34 -19 12 C-18.34 12 -17.68 12 -17 12 C-16.79375 10.948125 -16.5875 9.89625 -16.375 8.8125 C-15.35135934 5.33918135 -13.82114844 3.09258716 -10.84765625 0.87890625 C-7.37593893 -0.77254491 -3.71866797 -0.81134574 0 0 Z " fill="#030707" transform="translate(176,177)"/>
<path d="M0 0 C2.92105634 1.44889049 3.49405149 3.40236279 4.7734375 6.34765625 C5.21300781 7.32476562 5.65257812 8.301875 6.10546875 9.30859375 C6.9609375 11.97265625 6.9609375 11.97265625 5.9609375 14.97265625 C5.3009375 12.99265625 4.6409375 11.01265625 3.9609375 8.97265625 C3.3009375 8.97265625 2.6409375 8.97265625 1.9609375 8.97265625 C1.3009375 7.32265625 0.6409375 5.67265625 -0.0390625 3.97265625 C-5.06598313 4.42964903 -8.18802511 6.96507373 -12.0390625 9.97265625 C-12.6990625 9.64265625 -13.3590625 9.31265625 -14.0390625 8.97265625 C-12.38714759 7.6210895 -10.71612158 6.29289425 -9.0390625 4.97265625 C-8.4615625 4.50601562 -7.8840625 4.039375 -7.2890625 3.55859375 C-6.6909375 3.09710938 -6.0928125 2.635625 -5.4765625 2.16015625 C-4.91839844 1.72058594 -4.36023438 1.28101563 -3.78515625 0.828125 C-2.0390625 -0.02734375 -2.0390625 -0.02734375 0 0 Z " fill="#020506" transform="translate(164.0390625,304.02734375)"/>
<path d="M0 0 C-0.54339792 4.56454251 -1.79463821 7.9728176 -4 12 C-5 10 -5 10 -4.44140625 7.8359375 C-3.62760417 5.55729167 -2.81380208 3.27864583 -2 1 C-7.94 1.33 -13.88 1.66 -20 2 C-16.59775689 0.29887844 -14.21816382 -0.54016237 -10.5625 -1.25 C-9.63566406 -1.44078125 -8.70882812 -1.6315625 -7.75390625 -1.828125 C-4.62183269 -2.02360193 -2.79535004 -1.35962579 0 0 Z " fill="#020505" transform="translate(145,68)"/>
<path d="M0 0 C6.64723195 3.77378874 13.29299128 7.55071037 19.875 11.4375 C21.07769531 12.14712891 21.07769531 12.14712891 22.3046875 12.87109375 C22.86414063 13.24363281 23.42359375 13.61617187 24 14 C24 14.33 24 14.66 24 15 C22.35 15 20.7 15 19 15 C19 14.34 19 13.68 19 13 C18.01 13 17.02 13 16 13 C16 12.34 16 11.68 16 11 C15.13117188 10.74476563 14.26234375 10.48953125 13.3671875 10.2265625 C9.90695481 8.96610651 7.19438587 7.39630289 4.125 5.375 C3.15820312 4.74335938 2.19140625 4.11171875 1.1953125 3.4609375 C0.47085938 2.97882813 -0.25359375 2.49671875 -1 2 C-0.67 1.34 -0.34 0.68 0 0 Z " fill="#030606" transform="translate(149,206)"/>
<path d="M0 0 C5.21979128 -0.1799928 9.07262981 0.02905192 14 2 C14.12375 3.051875 14.2475 4.10375 14.375 5.1875 C14.91140782 8.45958771 15.63880035 11.00536076 17 14 C14.5 12.4375 14.5 12.4375 12 10 C11.6875 6.25 11.6875 6.25 12 3 C7.71 2.67 3.42 2.34 -1 2 C-0.67 1.34 -0.34 0.68 0 0 Z " fill="#040808" transform="translate(75,97)"/>
<path d="M0 0 C2.475 0.495 2.475 0.495 5 1 C5 1.66 5 2.32 5 3 C10.37486498 5.06277224 10.37486498 5.06277224 16 5 C18.20142332 2.5609294 18.20142332 2.5609294 20 0 C20.66 0 21.32 0 22 0 C21.09433015 3.35097846 20.23918752 4.80864998 17.5 7 C12.44036985 8.44560861 8.6752563 7.26557797 4 5 C1.375 2.3125 1.375 2.3125 0 0 Z " fill="#040708" transform="translate(144,189)"/>
<path d="M0 0 C0.99 0 1.98 0 3 0 C2.6173991 5.64336328 2.22146091 8.89915226 -2 13 C-4.25 14.3125 -4.25 14.3125 -6 15 C-4 10 -2 5 0 0 Z " fill="#0C1212" transform="translate(89,134)"/>
<path d="M0 0 C2.625 0.375 2.625 0.375 5 1 C5.6875 2.8125 5.6875 2.8125 6 5 C4.5625 6.75 4.5625 6.75 3 8 C1.0625 7.25 1.0625 7.25 -1 6 C-1.875 4 -1.875 4 -2 2 C-1.34 1.34 -0.68 0.68 0 0 Z " fill="#050808" transform="translate(94,120)"/>
<path d="M0 0 C1.95299875 0.9635941 3.88783641 1.93730594 5.7890625 3 C11.03295987 5.85625048 16.1215158 7.08449836 22 8 C22 8.66 22 9.32 22 10 C15.39675926 9.50164221 8.8554384 8.21623434 3 5 C1.17578125 2.359375 1.17578125 2.359375 0 0 Z " fill="#030607" transform="translate(155,117)"/>
<path d="M0 0 C4 5 4 5 5.78125 7.4375 C8.21026148 10.2428372 10.58646497 11.8917823 13.75 13.8125 C15.22726563 14.71935547 15.22726563 14.71935547 16.734375 15.64453125 C17.48203125 16.09183594 18.2296875 16.53914063 19 17 C18.01 17.33 17.02 17.66 16 18 C14 16.625 14 16.625 12 15 C11.01 14.67 10.02 14.34 9 14 C9 13.34 9 12.68 9 12 C8.1028125 11.566875 8.1028125 11.566875 7.1875 11.125 C5 10 5 10 2 8 C2 6.68 2 5.36 2 4 C1.34 4 0.68 4 0 4 C0 2.68 0 1.36 0 0 Z " fill="#030606" transform="translate(49,142)"/>
<path d="M0 0 C0.99 0.33 1.98 0.66 3 1 C3 1.66 3 2.32 3 3 C3.66 3 4.32 3 5 3 C5.70005949 5.07914664 6.38462244 7.16351586 7.0625 9.25 C7.44535156 10.41015625 7.82820312 11.5703125 8.22265625 12.765625 C8.95211763 15.80077085 9.11889082 17.15703213 8 20 C6.02 19.34 4.04 18.68 2 18 C2.99 17.67 3.98 17.34 5 17 C5.66 17.33 6.32 17.66 7 18 C6.02216461 15.37449704 5.0427937 12.74958495 4.0625 10.125 C3.78470703 9.37863281 3.50691406 8.63226563 3.22070312 7.86328125 C1.74900806 3.87275485 1.74900806 3.87275485 0 0 Z " fill="#020505" transform="translate(134,106)"/>
<path d="M0 0 C3.375 1.5 3.375 1.5 6 3 C6 3.66 6 4.32 6 5 C1.25 4.25 1.25 4.25 -1 2 C-6.2493914 2 -9.40177688 5.60916726 -13 9 C-13 8.01 -13 7.02 -13 6 C-12.34 6 -11.68 6 -11 6 C-10.731875 5.38125 -10.46375 4.7625 -10.1875 4.125 C-7.71388676 -0.3014658 -4.65658516 -0.45652796 0 0 Z " fill="#030707" transform="translate(68,93)"/>
<path d="M0 0 C2.0625 0.4375 2.0625 0.4375 4 1 C4 2.32 4 3.64 4 5 C4.66 5 5.32 5 6 5 C6.33 8.3 6.66 11.6 7 15 C4.49484216 12.49484216 3.94900914 10.38931835 3 7 C3 5.68 3 4.36 3 3 C1.02 3.99 -0.96 4.98 -3 6 C-1.125 1.125 -1.125 1.125 0 0 Z " fill="#050808" transform="translate(107,57)"/>
<path d="M0 0 C-1.45537568 0.83848804 -2.91440373 1.67063934 -4.375 2.5 C-5.59316406 3.19609375 -5.59316406 3.19609375 -6.8359375 3.90625 C-9 5 -9 5 -11 5 C-10.34 7.97 -9.68 10.94 -9 14 C-9.99 14.495 -9.99 14.495 -11 15 C-12.76716392 11.46567215 -12.92778819 7.82301375 -12 4 C-8.5180686 0.3195737 -4.94912168 -1.76117393 0 0 Z " fill="#030708" transform="translate(130,164)"/>
<path d="M0 0 C0.99 0.495 0.99 0.495 2 1 C2.49077014 4.55353938 2.76784131 8.10365048 3.046875 11.6796875 C3.68075989 15.27574833 3.68075989 15.27574833 7.078125 16.9453125 C8.04234375 17.29335937 9.0065625 17.64140625 10 18 C10 18.66 10 19.32 10 20 C9.443125 19.71125 8.88625 19.4225 8.3125 19.125 C5.92885257 17.96538773 3.46115961 16.98446384 1 16 C0.67 10.72 0.34 5.44 0 0 Z " fill="#020606" transform="translate(146,117)"/>
<path d="M0 0 C0.33 0.66 0.66 1.32 1 2 C-1 5 -1 5 -3.625 5.6875 C-4.800625 5.8421875 -4.800625 5.8421875 -6 6 C-2.25 1.125 -2.25 1.125 0 0 Z M-7 6 C-6.67 6.99 -6.34 7.98 -6 9 C-8.10889262 12.82724957 -9.79609368 15.49860488 -14 17 C-12.22054913 12.95579349 -9.60470327 9.53921513 -7 6 Z " fill="#020505" transform="translate(59,88)"/>
<path d="M0 0 C2.54806228 1.30234295 3.89677284 2.39744836 5.8125 4.4375 C5.05324219 4.35371094 4.29398438 4.26992187 3.51171875 4.18359375 C2.51785156 4.08175781 1.52398437 3.97992188 0.5 3.875 C-0.48613281 3.77058594 -1.47226563 3.66617188 -2.48828125 3.55859375 C-5.28680347 3.27147473 -5.28680347 3.27147473 -8.1875 4.4375 C-9.39632096 6.43766466 -9.39632096 6.43766466 -10.1875 8.4375 C-11.1775 8.4375 -12.1675 8.4375 -13.1875 8.4375 C-9.776477 3.71454507 -6.27314849 -1.1070262 0 0 Z " fill="#020505" transform="translate(140.1875,179.5625)"/>
<path d="M0 0 C1.9453125 -0.29296875 1.9453125 -0.29296875 4.125 -0.1875 C5.40375 -0.125625 6.6825 -0.06375 8 0 C9.17571451 3.67410785 9.07366746 7.16929183 9 11 C8.34 10.67 7.68 10.34 7 10 C6.59270772 7.67843403 6.25561323 5.3431213 6 3 C3.36 3 0.72 3 -2 3 C-1.34 2.01 -0.68 1.02 0 0 Z " fill="#040808" transform="translate(107,170)"/>
<path d="M0 0 C0.99 0.33 1.98 0.66 3 1 C4.6875 4.5625 4.6875 4.5625 6 8 C5.34 8 4.68 8 4 8 C3.34 6.35 2.68 4.7 2 3 C1.34 3 0.68 3 0 3 C1.1094072 6.48670834 2.26337666 9.77484237 4 13 C-0.69978858 10.10782241 -0.69978858 10.10782241 -1.5546875 6.953125 C-1.78597215 4.97669255 -1.90062818 2.98743631 -2 1 C-1.34 0.67 -0.68 0.34 0 0 Z " fill="#010203" transform="translate(64,134)"/>
<path d="M0 0 C1.093125 0.0825 2.18625 0.165 3.3125 0.25 C3.6425 0.91 3.9725 1.57 4.3125 2.25 C3.405 2.146875 2.4975 2.04375 1.5625 1.9375 C-1.88478131 1.91048792 -1.88478131 1.91048792 -4.0625 4.75 C-4.59875 5.575 -5.135 6.4 -5.6875 7.25 C-3.3775 8.9 -1.0675 10.55 1.3125 12.25 C0.3225 12.58 -0.6675 12.91 -1.6875 13.25 C-3.9511564 11.84554165 -5.7083685 10.0532087 -7.6875 8.25 C-6.76338711 3.07496779 -5.52955936 0.37488538 0 0 Z " fill="#020507" transform="translate(138.6875,186.75)"/>
<path d="M0 0 C1.65 0 3.3 0 5 0 C5.38218767 1.65614657 5.71395102 3.32457024 6 5 C5 6 5 6 1.9375 6.0625 C0.4834375 6.0315625 0.4834375 6.0315625 -1 6 C-0.67 4.02 -0.34 2.04 0 0 Z " fill="#060808" transform="translate(59,121)"/>
<path d="M0 0 C0.33 0 0.66 0 1 0 C1.38445177 6.27937897 0.7194917 10.34345727 -2 16 C-2.69140522 18.77888613 -2.69140522 18.77888613 -3 21 C-3.33 21 -3.66 21 -4 21 C-3.54034292 13.69303751 -2.11670277 7.00242552 0 0 Z " fill="#020505" transform="translate(57,289)"/>
<path d="M0 0 C5.61 0.33 11.22 0.66 17 1 C17 1.66 17 2.32 17 3 C13.52140783 3.86964804 11.41372156 3.97534902 8 3 C5.33813335 2.61533719 2.67181089 2.31171127 0 2 C0 1.34 0 0.68 0 0 Z " fill="#030708" transform="translate(71,184)"/>
<path d="M0 0 C0.33 0.99 0.66 1.98 1 3 C2.80252869 3.70194993 2.80252869 3.70194993 5 4 C9.8377448 4.91629837 14.36526549 6.35647713 19 8 C19 8.33 19 8.66 19 9 C14.9111838 9.18585528 12.57205733 8.89108917 9 7 C6.34988703 6.24282487 3.68549953 5.62661656 1 5 C0.67 3.35 0.34 1.7 0 0 Z " fill="#020505" transform="translate(38,262)"/>
<path d="M0 0 C0.94875 0.350625 1.8975 0.70125 2.875 1.0625 C2.875 3.0425 2.875 5.0225 2.875 7.0625 C1.375 5.6875 1.375 5.6875 -0.125 4.0625 C-0.125 3.4025 -0.125 2.7425 -0.125 2.0625 C-1.115 2.0625 -2.105 2.0625 -3.125 2.0625 C-2.795 4.0425 -2.465 6.0225 -2.125 8.0625 C-3.625 6.875 -3.625 6.875 -5.125 5.0625 C-5.3125 2.375 -5.3125 2.375 -5.125 0.0625 C-3.125 -0.9375 -3.125 -0.9375 0 0 Z " fill="#010404" transform="translate(16.125,156.9375)"/>
<path d="M0 0 C6.12096691 1.05486051 10.75506674 2.65217026 16 6 C13.24257963 7.08069919 12.09874188 7.03310018 9.23828125 6.07421875 C7.79001953 5.38779297 7.79001953 5.38779297 6.3125 4.6875 C5.33925781 4.23761719 4.36601563 3.78773437 3.36328125 3.32421875 C1 2 1 2 0 0 Z " fill="#040808" transform="translate(107,78)"/>
<path d="M0 0 C3.22983662 0.11042944 6.45856526 0.24092659 9.6875 0.375 C10.59951172 0.4059375 11.51152344 0.436875 12.45117188 0.46875 C17.01203631 0.66776954 20.86190275 0.85690122 25 3 C25 3.66 25 4.32 25 5 C22.83125748 4.49396008 21.00032373 4.00016187 19 3 C17.6265365 2.84995027 16.2471474 2.75161994 14.8671875 2.68359375 C14.06152344 2.64169922 13.25585938 2.59980469 12.42578125 2.55664062 C11.58402344 2.51732422 10.74226563 2.47800781 9.875 2.4375 C9.02550781 2.39431641 8.17601563 2.35113281 7.30078125 2.30664062 C5.20071777 2.20045764 3.10038052 2.09971503 1 2 C0.67 1.34 0.34 0.68 0 0 Z " fill="#010304" transform="translate(97,107)"/>
<path d="M0 0 C1.875 0.25 1.875 0.25 4 1 C6.11103658 3.95545121 6.19785783 6.43855901 6 10 C4.35 9.67 2.7 9.34 1 9 C1.66 8.67 2.32 8.34 3 8 C3.66 8.33 4.32 8.66 5 9 C4.67 8.401875 4.34 7.80375 4 7.1875 C3 5 3 5 3 2 C1.02 2.66 -0.96 3.32 -3 4 C-2.01 2.68 -1.02 1.36 0 0 Z " fill="#030707" transform="translate(160,312)"/>
<path d="M0 0 C1.66611905 -0.042721 3.33382885 -0.04063832 5 0 C6.81115956 1.81115956 6.38199448 4.61278227 6.5625 7.0625 C6.64628906 8.16722656 6.73007812 9.27195313 6.81640625 10.41015625 C6.87699219 11.26480469 6.93757813 12.11945313 7 13 C6.01 13.495 6.01 13.495 5 14 C4.67 10.37 4.34 6.74 4 3 C3.01 2.67 2.02 2.34 1 2 C0.67 3.32 0.34 4.64 0 6 C-1 3 -1 3 0 0 Z " fill="#000203" transform="translate(19,151)"/>
<path d="M0 0 C0.99 0.33 1.98 0.66 3 1 C2.07021792 9.05811138 2.07021792 9.05811138 0 12 C-2.125 13.25 -2.125 13.25 -4 14 C-3.69320312 13.43667969 -3.38640625 12.87335938 -3.0703125 12.29296875 C-1.97823448 9.95337096 -1.400343 7.83498027 -0.875 5.3125 C-0.70742187 4.52488281 -0.53984375 3.73726562 -0.3671875 2.92578125 C0.03121587 1.16302846 0.03121587 1.16302846 0 0 Z " fill="#020605" transform="translate(139,136)"/>
<path d="M0 0 C-3.2102122 3.2102122 -6.37460314 2.98974759 -10.8125 3.0625 C-11.864375 3.041875 -12.91625 3.02125 -14 3 C-14.33 2.34 -14.66 1.68 -15 1 C-9.91913204 0.15318867 -5.15171623 -0.09038099 0 0 Z " fill="#030505" transform="translate(131,74)"/>
<path d="M0 0 C2.96175123 0.61277612 4.38058783 1.25372522 7 3 C7 3.66 7 4.32 7 5 C7.639375 5.103125 8.27875 5.20625 8.9375 5.3125 C9.618125 5.539375 10.29875 5.76625 11 6 C11.33 6.99 11.66 7.98 12 9 C7.20850869 6.78854247 2.95891216 4.43836824 0 0 Z " fill="#030708" transform="translate(135,203)"/>
<path d="M0 0 C1.65 0 3.3 0 5 0 C5.33 1.65 5.66 3.3 6 5 C3.69 5.33 1.38 5.66 -1 6 C-1.33 5.34 -1.66 4.68 -2 4 C-1.0625 1.875 -1.0625 1.875 0 0 Z M1 1 C0.67 2.32 0.34 3.64 0 5 C1.32 4.67 2.64 4.34 4 4 C3.67 3.01 3.34 2.02 3 1 C2.34 1 1.68 1 1 1 Z " fill="#040808" transform="translate(147,138)"/>
<path d="M0 0 C5.61 0 11.22 0 17 0 C13.52533507 1.73733247 11.65395027 2.39208707 7.9375 2.8125 C6.65166016 2.97685547 6.65166016 2.97685547 5.33984375 3.14453125 C3 3 3 3 0 0 Z " fill="#010404" transform="translate(17,361)"/>
<path d="M0 0 C1.2065625 0.0309375 1.2065625 0.0309375 2.4375 0.0625 C0.4375 2.0625 0.4375 2.0625 -2.5625 3.0625 C0.0029594 5.6279594 1.91436668 5.60296087 5.4375 6.0625 C5.4375 6.3925 5.4375 6.7225 5.4375 7.0625 C-0.6171875 7.2578125 -0.6171875 7.2578125 -2.5625 7.0625 C-3.2225 6.4025 -3.8825 5.7425 -4.5625 5.0625 C-3.80953264 0.09291543 -3.80953264 0.09291543 0 0 Z " fill="#040607" transform="translate(74.5625,85.9375)"/>
<path d="M0 0 C2.98479194 4.47718792 4 8.63824093 4 14 C3.34 14 2.68 14 2 14 C0.66416101 9.15758367 -0.25328119 5.06562383 0 0 Z " fill="#050709" transform="translate(114,51)"/>
<path d="M0 0 C3.37462715 0.54723683 5.08235 1.0549 8 3 C9.65549531 3.38499891 11.3222433 3.72793135 13 4 C13 4.66 13 5.32 13 6 C7.57689095 5.56615128 4.29855944 4.35497322 0 1 C0 0.67 0 0.34 0 0 Z " fill="#030506" transform="translate(153,322)"/>
<path d="M0 0 C0.33 0 0.66 0 1 0 C1.5304408 2.26860837 2.04905434 4.53998489 2.5625 6.8125 C2.85253906 8.07707031 3.14257812 9.34164063 3.44140625 10.64453125 C4 14 4 14 3 17 C-0.03901852 11.17521449 -0.3540919 6.51791392 0 0 Z " fill="#030506" transform="translate(119,315)"/>
<path d="M0 0 C2.42581871 2.42581871 2.96355664 4.07433869 3.09765625 7.48046875 C3.08605469 8.37378906 3.07445312 9.26710937 3.0625 10.1875 C3.05347656 11.08855469 3.04445312 11.98960937 3.03515625 12.91796875 C3.02355469 13.60503906 3.01195312 14.29210937 3 15 C2.67 15 2.34 15 2 15 C1.47217261 12.68889138 0.95246631 10.37647528 0.4375 8.0625 C0.28603516 7.40314453 0.13457031 6.74378906 -0.02148438 6.06445312 C-0.39173308 4.3854183 -0.70072071 2.69312549 -1 1 C-0.67 0.67 -0.34 0.34 0 0 Z " fill="#020505" transform="translate(127,236)"/>
<path d="M0 0 C0.66 0 1.32 0 2 0 C2 0.66 2 1.32 2 2 C4.97 2.495 4.97 2.495 8 3 C7.67 3.66 7.34 4.32 7 5 C6.01 5 5.02 5 4 5 C4.33 6.32 4.66 7.64 5 9 C1.7457985 6.16569547 0.4793247 4.31392226 0 0 Z " fill="#040909" transform="translate(137,98)"/>
<path d="M0 0 C0 3.56172735 -0.74670717 4.36534757 -2.875 7.125 C-3.40867187 7.82882813 -3.94234375 8.53265625 -4.4921875 9.2578125 C-6 11 -6 11 -8 12 C-6.49087042 7.01987239 -3.44338151 3.75740058 0 0 Z " fill="#010404" transform="translate(46,241)"/>
<path d="M0 0 C0 0.99 0 1.98 0 3 C-0.66 3.66 -1.32 4.32 -2 5 C-2.16687448 7.58354218 -2.16687448 7.58354218 -2 10 C-2.99 9.67 -3.98 9.34 -5 9 C-5.3125 6.75 -5.3125 6.75 -5 4 C-2.5 1.6875 -2.5 1.6875 0 0 Z " fill="#030607" transform="translate(39,174)"/>
<path d="M0 0 C2.64 0 5.28 0 8 0 C8 1.65 8 3.3 8 5 C6.68 5.33 5.36 5.66 4 6 C4.66 4.68 5.32 3.36 6 2 C3.03 1.505 3.03 1.505 0 1 C0 0.67 0 0.34 0 0 Z " fill="#020405" transform="translate(89,173)"/>
<path d="M0 0 C5.06122449 2.53061224 5.06122449 2.53061224 7 6 C6.67 7.32 6.34 8.64 6 10 C4.02 6.7 2.04 3.4 0 0 Z " fill="#020605" transform="translate(148,107)"/>
<path d="M0 0 C2.45823172 3.68734758 3.01242616 6.69699971 4 11 C2.68 10.67 1.36 10.34 0 10 C0 6.7 0 3.4 0 0 Z " fill="#030606" transform="translate(93,96)"/>
<path d="M0 0 C0.66 0 1.32 0 2 0 C2.33 3.3 2.66 6.6 3 10 C2.34 9.67 1.68 9.34 1 9 C0.5859375 6.93359375 0.5859375 6.93359375 0.375 4.4375 C0.30023438 3.61121094 0.22546875 2.78492188 0.1484375 1.93359375 C0.09945312 1.29550781 0.05046875 0.65742188 0 0 Z " fill="#040708" transform="translate(126,209)"/>
<path d="M0 0 C0.66 0.66 1.32 1.32 2 2 C-2.455 4.97 -2.455 4.97 -7 8 C-4.9957983 3.9915966 -3.50944037 2.58590343 0 0 Z " fill="#040809" transform="translate(37,159)"/>
<path d="M0 0 C3.73487777 0.4979837 5.81237635 0.87491756 9 3 C9 3.66 9 4.32 9 5 C5.54074837 3.7508258 2.85306797 2.32472205 0 0 Z " fill="#020607" transform="translate(159,220)"/>
<path d="M0 0 C2.66666667 1.33333333 5.33333333 2.66666667 8 4 C8 4.66 8 5.32 8 6 C5.69 5.34 3.38 4.68 1 4 C0.67 2.68 0.34 1.36 0 0 Z " fill="#040606" transform="translate(148,185)"/>
<path d="M0 0 C4.31392226 0.4793247 6.16569547 1.7457985 9 5 C4.98525763 5 3.18024863 3.33218233 0 1 C0 0.67 0 0.34 0 0 Z " fill="#030808" transform="translate(116,88)"/>
<path d="M0 0 C0.99 0.33 1.98 0.66 3 1 C-1.18586481 4.18923033 -3.70558305 5.50423019 -9 5 C-9 4.67 -9 4.34 -9 4 C-7.88625 3.71125 -6.7725 3.4225 -5.625 3.125 C-1.99708908 2.30758671 -1.99708908 2.30758671 0 0 Z " fill="#030706" transform="translate(96,67)"/>
<path d="M0 0 C5.61 0 11.22 0 17 0 C17 0.33 17 0.66 17 1 C11.39 1 5.78 1 0 1 C0 0.67 0 0.34 0 0 Z " fill="#000000" transform="translate(123,286)"/>
<path d="M0 0 C0.66 0.33 1.32 0.66 2 1 C1.67 1.33 1.34 1.66 1 2 C3.97 2.495 3.97 2.495 7 3 C7 3.33 7 3.66 7 4 C4.69 4.66 2.38 5.32 0 6 C-0.38218767 4.34385343 -0.71395102 2.67542976 -1 1 C-0.67 0.67 -0.34 0.34 0 0 Z " fill="#030606" transform="translate(189,224)"/>
<path d="M0 0 C0.99 0.495 0.99 0.495 2 1 C2.4140625 3.06640625 2.4140625 3.06640625 2.625 5.5625 C2.69976562 6.38878906 2.77453125 7.21507812 2.8515625 8.06640625 C2.92503906 9.02353516 2.92503906 9.02353516 3 10 C1.51171875 8.73046875 1.51171875 8.73046875 0 7 C-0.1875 3.3125 -0.1875 3.3125 0 0 Z " fill="#030606" transform="translate(123,194)"/>
<path d="M0 0 C0.66 0 1.32 0 2 0 C0.73058503 3.91402949 -0.51167694 5.79072873 -4 8 C-2.87548273 5.0280615 -1.77706209 2.66559313 0 0 Z " fill="#030608" transform="translate(96,182)"/>
<path d="M0 0 C0.99 0.33 1.98 0.66 3 1 C1.68 3.64 0.36 6.28 -1 9 C-1.33 9 -1.66 9 -2 9 C-2.25 3.375 -2.25 3.375 0 0 Z " fill="#020607" transform="translate(26,169)"/>
<path d="M0 0 C2.64 0 5.28 0 8 0 C8 0.33 8 0.66 8 1 C5.36 1 2.72 1 0 1 C0 0.67 0 0.34 0 0 Z " fill="#000000" transform="translate(71,182)"/>
<path d="M0 0 C2.31 0 4.62 0 7 0 C7 0.33 7 0.66 7 1 C4.69 1 2.38 1 0 1 C0 0.67 0 0.34 0 0 Z " fill="#000000" transform="translate(51,202)"/>
<path d="M0 0 C1.98 0 3.96 0 6 0 C6 0.33 6 0.66 6 1 C4.02 1 2.04 1 0 1 C0 0.67 0 0.34 0 0 Z " fill="#000000" transform="translate(59,196)"/>
<path d="M0 0 C0.33 0 0.66 0 1 0 C1 1.98 1 3.96 1 6 C0.67 6 0.34 6 0 6 C0 4.02 0 2.04 0 0 Z " fill="#000000" transform="translate(189,128)"/>
<path d="M0 0 C0.33 0 0.66 0 1 0 C1 1.65 1 3.3 1 5 C0.67 5 0.34 5 0 5 C0 3.35 0 1.7 0 0 Z " fill="#000000" transform="translate(159,139)"/>
<path d="M0 0 C0.33 0 0.66 0 1 0 C1 1.65 1 3.3 1 5 C0.67 5 0.34 5 0 5 C0 3.35 0 1.7 0 0 Z " fill="#000000" transform="translate(60,135)"/>
<path d="M0 0 C1 4 1 4 1 4 Z " fill="#000000" transform="translate(173,320)"/>
<path d="M0 0 C0 3 0 3 0 3 Z " fill="#000000" transform="translate(84,203)"/>
<path d="M0 0 C1 4 1 4 1 4 Z " fill="#000000" transform="translate(121,172)"/>
<path d="M0 0 C0 3 0 3 0 3 Z " fill="#000000" transform="translate(136,144)"/>
<path d="M0 0 C0.99 0.495 0.99 0.495 2 1 C1.67 1.66 1.34 2.32 1 3 C0.67 2.01 0.34 1.02 0 0 Z " fill="#000000" transform="translate(144,107)"/>
<path d="M0 0 C4 1 4 1 4 1 Z " fill="#000000" transform="translate(82,101)"/>
<path d="M0 0 C0.99 0.495 0.99 0.495 2 1 C1.01 1.495 1.01 1.495 0 2 C0 1.34 0 0.68 0 0 Z " fill="#000000" transform="translate(15,350)"/>
<path d="M0 0 C3 1 3 1 3 1 Z " fill="#000000" transform="translate(32,343)"/>
<path d="" fill="#000000" transform="translate(0,0)"/>
<path d="" fill="#000000" transform="translate(0,0)"/>
<path d="" fill="#000000" transform="translate(0,0)"/>
<path d="" fill="#000000" transform="translate(0,0)"/>
<path d="M0 0 C0.66 0.66 1.32 1.32 2 2 C1.34 2 0.68 2 0 2 C0 1.34 0 0.68 0 0 Z " fill="#000000" transform="translate(40,262)"/>
<path d="" fill="#000000" transform="translate(0,0)"/>
<path d="M0 0 C3 1 3 1 3 1 Z " fill="#000000" transform="translate(180,234)"/>
<path d="" fill="#000000" transform="translate(0,0)"/>
<path d="M0 0 C0.33 0.66 0.66 1.32 1 2 C0.34 1.67 -0.32 1.34 -1 1 C-0.67 0.67 -0.34 0.34 0 0 Z " fill="#000000" transform="translate(136,190)"/>
<path d="" fill="#000000" transform="translate(0,0)"/>
<path d="" fill="#000000" transform="translate(0,0)"/>
<path d="" fill="#000000" transform="translate(0,0)"/>
<path d="" fill="#000000" transform="translate(0,0)"/>
<path d="M0 0 C3 1 3 1 3 1 Z " fill="#000000" transform="translate(105,86)"/>
<path d="M0 0 C3 1 3 1 3 1 Z " fill="#000000" transform="translate(88,63)"/>
<path d="M0 0 C2 1 2 1 2 1 Z " fill="#000000" transform="translate(28,344)"/>
<path d="M0 0 C2 1 2 1 2 1 Z " fill="#000000" transform="translate(40,343)"/>
<path d="" fill="#000000" transform="translate(0,0)"/>
<path d="" fill="#000000" transform="translate(0,0)"/>
<path d="M0 0 C2 1 2 1 2 1 Z " fill="#000000" transform="translate(151,323)"/>
<path d="M0 0 C2 1 2 1 2 1 Z " fill="#000000" transform="translate(156,306)"/>
<path d="" fill="#000000" transform="translate(0,0)"/>
<path d="" fill="#000000" transform="translate(0,0)"/>
<path d="M0 0 C2 1 2 1 2 1 Z " fill="#000000" transform="translate(53,278)"/>
<path d="M0 0 C2 1 2 1 2 1 Z " fill="#000000" transform="translate(76,272)"/>
<path d="M0 0 C2 1 2 1 2 1 Z " fill="#000000" transform="translate(185,235)"/>
<path d="" fill="#000000" transform="translate(0,0)"/>
<path d="" fill="#000000" transform="translate(0,0)"/>
<path d="M0 0 C2 1 2 1 2 1 Z " fill="#000000" transform="translate(159,211)"/>
<path d="" fill="#000000" transform="translate(0,0)"/>
<path d="" fill="#000000" transform="translate(0,0)"/>
<path d="" fill="#000000" transform="translate(0,0)"/>
<path d="" fill="#000000" transform="translate(0,0)"/>
<path d="" fill="#000000" transform="translate(0,0)"/>
<path d="" fill="#000000" transform="translate(0,0)"/>
<path d="" fill="#000000" transform="translate(0,0)"/>
<path d="" fill="#000000" transform="translate(0,0)"/>
<path d="M0 0 C2 1 2 1 2 1 Z " fill="#000000" transform="translate(90,129)"/>
<path d="" fill="#000000" transform="translate(0,0)"/>
<path d="M0 0 C2 1 2 1 2 1 Z " fill="#000000" transform="translate(98,116)"/>
<path d="M0 0 C2 1 2 1 2 1 Z " fill="#000000" transform="translate(164,115)"/>
<path d="M0 0 C2 1 2 1 2 1 Z " fill="#000000" transform="translate(95,115)"/>
<path d="" fill="#000000" transform="translate(0,0)"/>
<path d="M0 0 C2 1 2 1 2 1 Z " fill="#000000" transform="translate(101,106)"/>
<path d="" fill="#000000" transform="translate(0,0)"/>
<path d="M0 0 C2 1 2 1 2 1 Z " fill="#000000" transform="translate(75,100)"/>
<path d="M0 0 C2 1 2 1 2 1 Z " fill="#000000" transform="translate(81,86)"/>
<path d="M0 0 C2 1 2 1 2 1 Z " fill="#000000" transform="translate(85,62)"/>
<path d="M0 0 C2 1 2 1 2 1 Z " fill="#000000" transform="translate(76,56)"/>
<path d="" fill="#000000" transform="translate(0,0)"/>
<path d="M0 0 C2 1 2 1 2 1 Z " fill="#000000" transform="translate(113,48)"/>
<path d="M0 0 C2 1 2 1 2 1 Z " fill="#000000" transform="translate(111,47)"/>
<path d="" fill="#000000" transform="translate(0,0)"/>
<path d="" fill="#000000" transform="translate(0,0)"/>
<path d="" fill="#000000" transform="translate(0,0)"/>
<path d="" fill="#000000" transform="translate(0,0)"/>
<path d="" fill="#000000" transform="translate(0,0)"/>
<path d="" fill="#000000" transform="translate(0,0)"/>
<path d="" fill="#000000" transform="translate(0,0)"/>
<path d="" fill="#000000" transform="translate(0,0)"/>
<path d="" fill="#000000" transform="translate(0,0)"/>
<path d="" fill="#000000" transform="translate(0,0)"/>
<path d="" fill="#000000" transform="translate(0,0)"/>
<path d="" fill="#000000" transform="translate(0,0)"/>
<path d="" fill="#000000" transform="translate(0,0)"/>
<path d="" fill="#000000" transform="translate(0,0)"/>
<path d="" fill="#000000" transform="translate(0,0)"/>
<path d="" fill="#000000" transform="translate(0,0)"/>
<path d="" fill="#000000" transform="translate(0,0)"/>
<path d="" fill="#000000" transform="translate(0,0)"/>
<path d="" fill="#000000" transform="translate(0,0)"/>
<path d="" fill="#000000" transform="translate(0,0)"/>
<path d="" fill="#000000" transform="translate(0,0)"/>
<path d="" fill="#000000" transform="translate(0,0)"/>
<path d="" fill="#000000" transform="translate(0,0)"/>
<path d="" fill="#000000" transform="translate(0,0)"/>
<path d="" fill="#000000" transform="translate(0,0)"/>
<path d="" fill="#000000" transform="translate(0,0)"/>
<path d="" fill="#000000" transform="translate(0,0)"/>
<path d="" fill="#000000" transform="translate(0,0)"/>
<path d="" fill="#000000" transform="translate(0,0)"/>
<path d="" fill="#000000" transform="translate(0,0)"/>
<path d="" fill="#000000" transform="translate(0,0)"/>
<path d="" fill="#000000" transform="translate(0,0)"/>
<path d="" fill="#000000" transform="translate(0,0)"/>
<path d="" fill="#000000" transform="translate(0,0)"/>
<path d="" fill="#000000" transform="translate(0,0)"/>
<path d="" fill="#000000" transform="translate(0,0)"/>
<path d="" fill="#000000" transform="translate(0,0)"/>
<path d="" fill="#000000" transform="translate(0,0)"/>
<path d="" fill="#000000" transform="translate(0,0)"/>
<path d="" fill="#000000" transform="translate(0,0)"/>
<path d="" fill="#000000" transform="translate(0,0)"/>
<path d="" fill="#000000" transform="translate(0,0)"/>
<path d="" fill="#000000" transform="translate(0,0)"/>
<path d="" fill="#000000" transform="translate(0,0)"/>
<path d="" fill="#000000" transform="translate(0,0)"/>
<path d="" fill="#000000" transform="translate(0,0)"/>
<path d="" fill="#000000" transform="translate(0,0)"/>
<path d="" fill="#000000" transform="translate(0,0)"/>
<path d="" fill="#000000" transform="translate(0,0)"/>
<path d="" fill="#000000" transform="translate(0,0)"/>
<path d="" fill="#000000" transform="translate(0,0)"/>
<path d="" fill="#000000" transform="translate(0,0)"/>
<path d="" fill="#000000" transform="translate(0,0)"/>
<path d="" fill="#000000" transform="translate(0,0)"/>
<path d="" fill="#000000" transform="translate(0,0)"/>
<path d="" fill="#000000" transform="translate(0,0)"/>
<path d="" fill="#000000" transform="translate(0,0)"/>
<path d="" fill="#000000" transform="translate(0,0)"/>
<path d="" fill="#000000" transform="translate(0,0)"/>
<path d="" fill="#000000" transform="translate(0,0)"/>
<path d="" fill="#000000" transform="translate(0,0)"/>
<path d="" fill="#000000" transform="translate(0,0)"/>
<path d="" fill="#000000" transform="translate(0,0)"/>
<path d="" fill="#000000" transform="translate(0,0)"/>
<path d="" fill="#000000" transform="translate(0,0)"/>
<path d="" fill="#000000" transform="translate(0,0)"/>
<path d="" fill="#000000" transform="translate(0,0)"/>
<path d="" fill="#000000" transform="translate(0,0)"/>
<path d="" fill="#000000" transform="translate(0,0)"/>
<path d="" fill="#000000" transform="translate(0,0)"/>
<path d="" fill="#000000" transform="translate(0,0)"/>
<path d="" fill="#000000" transform="translate(0,0)"/>
<path d="" fill="#000000" transform="translate(0,0)"/>
<path d="" fill="#000000" transform="translate(0,0)"/>
<path d="" fill="#000000" transform="translate(0,0)"/>
<path d="" fill="#000000" transform="translate(0,0)"/>
<path d="" fill="#000000" transform="translate(0,0)"/>
<path d="" fill="#000000" transform="translate(0,0)"/>
<path d="" fill="#000000" transform="translate(0,0)"/>
<path d="" fill="#000000" transform="translate(0,0)"/>
<path d="" fill="#000000" transform="translate(0,0)"/>
<path d="" fill="#000000" transform="translate(0,0)"/>
<path d="" fill="#000000" transform="translate(0,0)"/>
<path d="" fill="#000000" transform="translate(0,0)"/>
<path d="" fill="#000000" transform="translate(0,0)"/>
<path d="" fill="#000000" transform="translate(0,0)"/>
<path d="" fill="#000000" transform="translate(0,0)"/>
<path d="" fill="#000000" transform="translate(0,0)"/>
<path d="" fill="#000000" transform="translate(0,0)"/>
<path d="" fill="#000000" transform="translate(0,0)"/>
<path d="" fill="#000000" transform="translate(0,0)"/>
<path d="" fill="#000000" transform="translate(0,0)"/>
<path d="" fill="#000000" transform="translate(0,0)"/>
<path d="" fill="#000000" transform="translate(0,0)"/>
<path d="" fill="#000000" transform="translate(0,0)"/>
<path d="" fill="#000000" transform="translate(0,0)"/>
<path d="" fill="#000000" transform="translate(0,0)"/>
<path d="" fill="#000000" transform="translate(0,0)"/>
<path d="" fill="#000000" transform="translate(0,0)"/>
<path d="" fill="#000000" transform="translate(0,0)"/>
<path d="" fill="#000000" transform="translate(0,0)"/>
<path d="" fill="#000000" transform="translate(0,0)"/>
<path d="" fill="#000000" transform="translate(0,0)"/>
<path d="" fill="#000000" transform="translate(0,0)"/>
<path d="" fill="#000000" transform="translate(0,0)"/>
<path d="" fill="#000000" transform="translate(0,0)"/>
<path d="" fill="#000000" transform="translate(0,0)"/>
<path d="" fill="#000000" transform="translate(0,0)"/>
<path d="" fill="#000000" transform="translate(0,0)"/>
<path d="" fill="#000000" transform="translate(0,0)"/>
<path d="" fill="#000000" transform="translate(0,0)"/>
<path d="" fill="#000000" transform="translate(0,0)"/>
<path d="" fill="#000000" transform="translate(0,0)"/>
<path d="" fill="#000000" transform="translate(0,0)"/>
<path d="" fill="#000000" transform="translate(0,0)"/>
<path d="" fill="#000000" transform="translate(0,0)"/>
<path d="" fill="#000000" transform="translate(0,0)"/>
<path d="" fill="#000000" transform="translate(0,0)"/>
<path d="" fill="#000000" transform="translate(0,0)"/>
<path d="" fill="#000000" transform="translate(0,0)"/>
<path d="" fill="#000000" transform="translate(0,0)"/>
<path d="" fill="#000000" transform="translate(0,0)"/>
<path d="" fill="#000000" transform="translate(0,0)"/>
<path d="" fill="#000000" transform="translate(0,0)"/>
<path d="" fill="#000000" transform="translate(0,0)"/>
<path d="" fill="#000000" transform="translate(0,0)"/>
<path d="" fill="#000000" transform="translate(0,0)"/>
<path d="" fill="#000000" transform="translate(0,0)"/>
<path d="" fill="#000000" transform="translate(0,0)"/>
<path d="" fill="#000000" transform="translate(0,0)"/>
<path d="" fill="#000000" transform="translate(0,0)"/>
<path d="" fill="#000000" transform="translate(0,0)"/>
<path d="" fill="#000000" transform="translate(0,0)"/>
<path d="" fill="#000000" transform="translate(0,0)"/>
<path d="" fill="#000000" transform="translate(0,0)"/>
<path d="" fill="#000000" transform="translate(0,0)"/>
<path d="" fill="#000000" transform="translate(0,0)"/>
<path d="" fill="#000000" transform="translate(0,0)"/>
<path d="" fill="#000000" transform="translate(0,0)"/>
<path d="" fill="#000000" transform="translate(0,0)"/>
<path d="" fill="#000000" transform="translate(0,0)"/>
<path d="" fill="#000000" transform="translate(0,0)"/>
<path d="" fill="#000000" transform="translate(0,0)"/>
<path d="" fill="#000000" transform="translate(0,0)"/>
</svg>
