<?xml version="1.0" encoding="UTF-8"?>
<svg version="1.1" xmlns="http://www.w3.org/2000/svg" width="192" height="250">
<path d="M0 0 C5.76632249 0.6269807 10.72841969 2.73688064 16.0625 4.875 C33.04284387 11.7473856 33.04284387 11.7473856 51 11 C51.51304688 10.48695312 52.02609375 9.97390625 52.5546875 9.4453125 C53.03164062 8.96835938 53.50859375 8.49140625 54 8 C55.32 8 56.64 8 58 8 C58 8.99 58 9.98 58 11 C60.71224618 9.38731308 63.37352812 7.75098126 66 6 C66.99 6.495 66.99 6.495 68 7 C67.67 8.65 67.34 10.3 67 12 C67.99 12.495 67.99 12.495 69 13 C69.33 12.01 69.66 11.02 70 10 C71.32 10.33 72.64 10.66 74 11 C73.67 12.32 73.34 13.64 73 15 C73.66 15 74.32 15 75 15 C75.33 14.34 75.66 13.68 76 13 C78.375 13.1875 78.375 13.1875 81 14 C82.3125 16.5625 82.3125 16.5625 83 19 C84.65 18.67 86.3 18.34 88 18 C88.433125 19.11375 88.86625 20.2275 89.3125 21.375 C90.69911119 25.17512334 90.69911119 25.17512334 94 27 C94 26.34 94 25.68 94 25 C95.32 25 96.64 25 98 25 C98.17015625 25.60328125 98.3403125 26.2065625 98.515625 26.828125 C98.87914062 28.02695312 98.87914062 28.02695312 99.25 29.25 C99.48203125 30.03890625 99.7140625 30.8278125 99.953125 31.640625 C102.54195103 37.47514338 107.27563767 39.2958363 112.875 41.5 C113.6273291 41.80188232 114.3796582 42.10376465 115.15478516 42.41479492 C125.49520554 46.47873942 136.01315896 49.29591853 147 51 C147.33 52.32 147.66 53.64 148 55 C143.45807139 56.34673465 139.7294267 55.55851369 135.25 54.4375 C134.51789307 54.26057617 133.78578613 54.08365234 133.03149414 53.90136719 C124.8262629 51.83630101 116.91344492 48.97125591 109 46 C114.15929031 48.70275807 119.10667542 50.86272559 124.6875 52.5 C125.36941406 52.7064917 126.05132812 52.9129834 126.75390625 53.12573242 C128.14938578 53.54804006 129.54570632 53.96757908 130.94287109 54.38427734 C134.13500683 55.33972077 137.31672649 56.32794655 140.5 57.3125 C142.33321986 57.87536969 144.16650667 58.43802174 146 59 C146 60.32 146 61.64 146 63 C139.28040365 62.44286461 133.24284681 61.12079273 126.8125 59.125 C125.94947266 58.86847656 125.08644531 58.61195312 124.19726562 58.34765625 C119.55088912 56.93276884 115.28203702 55.34075346 111 53 C111 53.99 111 54.98 111 56 C111.81984375 56.25910156 112.6396875 56.51820312 113.484375 56.78515625 C117.48738258 58.16841776 121.35159846 59.78755593 125.25 61.4375 C131.40628557 64.01376083 137.52605067 66.32981651 144 68 C143.67 69.32 143.34 70.64 143 72 C136.69702879 71.48194757 131.57173235 69.91601892 125.75 67.5 C124.18313695 66.8625018 122.61545522 66.22701127 121.046875 65.59375 C120.36463867 65.31208984 119.68240234 65.03042969 118.97949219 64.74023438 C117.00553576 64.00207011 115.05264761 63.47042231 113 63 C113.495 63.598125 113.99 64.19625 114.5 64.8125 C116 67 116 67 116 70 C122.36539272 72.11293829 128.31006781 73.46048934 135 74 C135.33 75.32 135.66 76.64 136 78 C139.63 78.66 143.26 79.32 147 80 C147.33 81.32 147.66 82.64 148 84 C144.04 85.98 144.04 85.98 140 88 C142.61514317 90.12038635 145.19637616 92.13091744 148 94 C148 94.99 148 95.98 148 97 C145.69 96.67 143.38 96.34 141 96 C141 96.66 141 97.32 141 98 C141 99.66666667 141 101.33333333 141 103 C139.68 103 138.36 103 137 103 C135.21030974 105.42672567 135.21030974 105.42672567 134 108 C133.01 107.67 132.02 107.34 131 107 C131 102.05 131 97.1 131 92 C127.07124468 93.75956714 123.14257624 95.51932592 119.21411133 97.27954102 C117.88277908 97.87600224 116.55140031 98.47235963 115.2199707 99.06860352 C107.13591448 102.68892097 99.05859588 106.32324593 91 110 C91.0825 111.03125 91.165 112.0625 91.25 113.125 C90.95486439 117.6996019 89.92527181 119.52129839 87 123 C82.3358406 126.38151556 78.42650074 127.1371908 72.75 127.0625 C71.41195312 127.04896484 71.41195312 127.04896484 70.046875 127.03515625 C69.37140625 127.02355469 68.6959375 127.01195312 68 127 C68.29769287 128.22517334 68.59538574 129.45034668 68.90209961 130.71264648 C70.01284282 135.29040542 71.11624848 139.8699075 72.2175293 144.44995117 C72.69374173 146.42601476 73.17190078 148.40161034 73.65209961 150.37670898 C74.34490153 153.22777233 75.03051483 156.08048636 75.71484375 158.93359375 C75.92842026 159.80584091 76.14199677 160.67808807 76.36204529 161.57676697 C79.86292988 176.27414024 79.86292988 176.27414024 78 180 C69.81911794 179.4533512 61.98214061 177.82876132 54 176 C54.01160156 177.02738281 54.02320312 178.05476562 54.03515625 179.11328125 C54.09734334 187.15096317 53.8891078 194.99802981 53 203 C49.04 203.33 45.08 203.66 41 204 C41 204.99 41 205.98 41 207 C41.9075 206.67 42.815 206.34 43.75 206 C47 205 47 205 51 205 C51.33808686 207.06172613 51.67027361 209.1244203 52 211.1875 C52.185625 212.33605469 52.37125 213.48460937 52.5625 214.66796875 C52.93592044 217.51196549 53.03409878 220.1420956 53 223 C61.62035251 220.61425405 69.79028089 217.37609553 78.04882812 213.96484375 C79.03173828 213.56910156 80.01464844 213.17335937 81.02734375 212.765625 C81.91156006 212.40243164 82.79577637 212.03923828 83.70678711 211.66503906 C86 211 86 211 89 212 C89 219.59 89 227.18 89 235 C87.68 235 86.36 235 85 235 C84 234 84 234 83.90234375 230.40234375 C83.9090178 228.91403133 83.92097817 227.42573568 83.9375 225.9375 C83.94201172 225.17888672 83.94652344 224.42027344 83.95117188 223.63867188 C83.9629932 221.75908129 83.98092922 219.87953101 84 218 C81.8743313 218.78990106 79.74947942 219.5819093 77.625 220.375 C76.93688232 220.63104004 76.24876465 220.88708008 75.53979492 221.15087891 C70.78276711 222.93009632 66.04894621 224.76161408 61.32421875 226.625 C60.16776855 227.0782666 59.01131836 227.5315332 57.81982422 227.99853516 C55.50235021 228.90803804 53.18750218 229.82426394 50.87548828 230.74755859 C49.79895996 231.16859863 48.72243164 231.58963867 47.61328125 232.0234375 C46.65204346 232.40419434 45.69080566 232.78495117 44.70043945 233.17724609 C41.97473525 234.00769752 39.82987397 234.1626623 37 234 C36.93941406 232.87980469 36.87882812 231.75960937 36.81640625 230.60546875 C36.73198576 229.13280016 36.64733851 227.66014456 36.5625 226.1875 C36.52318359 225.44951172 36.48386719 224.71152344 36.44335938 223.95117188 C36.25618965 220.76928658 36.01279207 218.03837622 35 215 C34.05157227 215.36875244 33.10314453 215.73750488 32.12597656 216.11743164 C28.60416205 217.48338198 25.07691625 218.83478906 21.54785156 220.18188477 C20.02159149 220.76679977 18.49683029 221.35564166 16.97363281 221.94848633 C14.78312843 222.80026981 12.58761101 223.63775698 10.390625 224.47265625 C9.37165131 224.87412621 9.37165131 224.87412621 8.33209229 225.28370667 C2.46916692 227.48403251 2.46916692 227.48403251 -1 226 C-1.13534286 216.94706663 -0.75741925 208.02140429 0 199 C-3.63 198.34 -7.26 197.68 -11 197 C-12.01340103 191.93299483 -11.80801084 190.34600443 -10.34765625 185.60546875 C-9.98349609 184.40341797 -9.61933594 183.20136719 -9.24414062 181.96289062 C-8.85419922 180.71701172 -8.46425781 179.47113281 -8.0625 178.1875 C-7.6714746 176.90982652 -7.28148934 175.63183423 -6.89257812 174.35351562 C-5.9386169 171.23253137 -4.97064548 168.1158357 -4 165 C-9.28 164.01 -14.56 163.02 -20 162 C-19.1487253 157.74362648 -18.832379 156.31132233 -16.55078125 153.0234375 C-16.03878174 152.27900391 -15.52678223 151.53457031 -14.99926758 150.76757812 C-14.44263428 149.97802734 -13.88600098 149.18847656 -13.3125 148.375 C-12.74104248 147.55193359 -12.16958496 146.72886719 -11.58081055 145.88085938 C-5.65351952 137.39560976 0.49392804 129.07034018 6.6940918 120.78320312 C7.83923533 119.21952236 8.92490412 117.61264382 10 116 C9.31292969 115.81824219 8.62585937 115.63648437 7.91796875 115.44921875 C7.01691406 115.19785156 6.11585937 114.94648437 5.1875 114.6875 C4.29417969 114.44386719 3.40085938 114.20023437 2.48046875 113.94921875 C-0.12767163 112.95114298 -1.34484323 112.22789356 -3 110 C-4.66120711 104.6694177 -4.04917209 99.81858096 -2.27734375 94.62890625 C-1 93 -1 93 5 91 C0.71 80.77 -3.58 70.54 -8 60 C-12.62 60 -17.24 60 -22 60 C-22.33 58.68 -22.66 57.36 -23 56 C-20.69 55.34 -18.38 54.68 -16 54 C-17.98 52.68 -19.96 51.36 -22 50 C-21.67 48.68 -21.34 47.36 -21 46 C-17.51460083 46.64544429 -14.97180943 48.10134397 -12 50 C-12.33 47.69 -12.66 45.38 -13 43 C-11.68 43 -10.36 43 -9 43 C-8.67 44.65 -8.34 46.3 -8 48 C-7.34 48 -6.68 48 -6 48 C-5.67 46.02 -5.34 44.04 -5 42 C-6.10794922 41.67128906 -6.10794922 41.67128906 -7.23828125 41.3359375 C-15.86014553 38.6409202 -23.48401622 35.01065585 -31 30 C-30.67 28.35 -30.34 26.7 -30 25 C-29.33355469 25.38671875 -28.66710937 25.7734375 -27.98046875 26.171875 C-18.0042187 31.8088051 -8.293637 36.19003997 3.3125 36.0625 C4.38113281 36.05347656 5.44976562 36.04445312 6.55078125 36.03515625 C7.76314453 36.01775391 7.76314453 36.01775391 9 36 C9.33 34.68 9.66 33.36 10 32 C8.7625 31.608125 7.525 31.21625 6.25 30.8125 C-7.03267618 26.33636304 -22.40966989 20.67397714 -30 8 C-29.703125 5.73046875 -29.703125 5.73046875 -29 4 C-25.53651839 5.45588829 -23.69995055 7.31245677 -21.25 10.125 C-11.00565383 20.57153722 4.24455237 25.9199163 18.6875 26.3125 C22.29016071 26.35301692 22.29016071 26.35301692 25 24 C24.47792969 23.83508057 23.95585938 23.67016113 23.41796875 23.50024414 C9.69568298 19.10088173 -3.57133572 14.02864478 -15 5 C-14.67 3.68 -14.34 2.36 -14 1 C-9.85968378 2.50627176 -6.273781 4.54909695 -2.5 6.8125 C7.79879003 12.83766105 19.81298829 18.60935059 32 18 C32 17.34 32 16.68 32 16 C31.42145264 15.8141333 30.84290527 15.6282666 30.24682617 15.43676758 C9.01826886 8.58305467 9.01826886 8.58305467 0 4 C0 2.68 0 1.36 0 0 Z M46.0625 19.4375 C39.6393187 23.37736957 39.6393187 23.37736957 36 24 C35.67 23.01 35.34 22.02 35 21 C29.51034682 24.97887669 25.68302531 29.52818242 22.0625 35.1875 C21.67328369 35.79352051 21.28406738 36.39954102 20.88305664 37.02392578 C15.47029724 45.74548563 15.70058399 57.13416678 17.578125 67.0546875 C20.88711753 76.47027535 28.57544077 83.99854161 37.18359375 88.75390625 C52.17535284 95.38687595 69.473574 97.72820945 85.125 92.26171875 C93.88380491 88.41784105 100.54255127 81.3977349 105 73 C107.59761096 63.55990164 107.90173248 53.26153747 103.4375 44.3125 C99.75785868 38.68889723 94.69889099 32.47432857 88 31 C86.25 28.4375 86.25 28.4375 85 26 C84.34 26.99 83.68 27.98 83 29 C82.01 29 81.02 29 80 29 C79.79375 27.906875 79.5875 26.81375 79.375 25.6875 C78.33524794 21.81418497 78.33524794 21.81418497 75.0625 20 C72.00837152 18.66660903 72.00837152 18.66660903 69 20 C68.26676204 22.01508358 68.26676204 22.01508358 68 24 C66.68 23.34 65.36 22.68 64 22 C64.66 20.35 65.32 18.7 66 17 C63.80485127 16.0406843 63.80485127 16.0406843 61 16 C58.94272868 17.5954349 56.94125344 19.26526288 55 21 C52.625 21.8125 52.625 21.8125 51 22 C51 20.68 51 19.36 51 18 C52.32 17.34 53.64 16.68 55 16 C51.10651394 16 49.3642366 17.40911546 46.0625 19.4375 Z M14 34 C14 34.66 14 35.32 14 36 C14.99 36 15.98 36 17 36 C17.33 35.01 17.66 34.02 18 33 C15.9254644 32.8509288 15.9254644 32.8509288 14 34 Z M-2 41 C-2 44.63 -2 48.26 -2 52 C-0.35 51.67 1.3 51.34 3 51 C3.928125 50.814375 4.85625 50.62875 5.8125 50.4375 C6.534375 50.293125 7.25625 50.14875 8 50 C8.33 50.99 8.66 51.98 9 53 C8.13375 53.268125 7.2675 53.53625 6.375 53.8125 C3.08208036 54.97111987 0.08872125 56.38209839 -3 58 C-0.96551828 64.45321278 1.44992018 70.66254357 4.125 76.875 C4.83689976 78.53865106 5.54787799 80.20269685 6.2578125 81.8671875 C6.5686377 82.59019043 6.87946289 83.31319336 7.19970703 84.05810547 C7.86772936 85.67904799 8.44558964 87.33676892 9 89 C9.60585938 88.97679687 10.21171875 88.95359375 10.8359375 88.9296875 C17.14875029 88.79371922 22.86431929 89.53788034 29 91 C29.33 90.01 29.66 89.02 30 88 C29.49210937 87.5875 28.98421875 87.175 28.4609375 86.75 C20.5327696 80.09865315 14.66038356 73.49700116 13 63 C12.57456538 55.48398846 12.93435468 48.45951726 14 41 C8.72 41 3.44 41 -2 41 Z M110 68 C111 70 111 70 111 70 Z M110.13671875 73.48828125 C107.55307492 75.31619745 106.1964768 77.14374995 104.5 79.8125 C99.00711936 88.03410199 92.44401598 93.75361951 83 97 C84.5292743 100.44086718 86.62762929 103.09239931 89 106 C90.42880493 105.3498291 90.42880493 105.3498291 91.88647461 104.68652344 C95.45904917 103.06096627 99.03185915 101.43592707 102.60473633 99.81103516 C104.14386197 99.11097864 105.68292581 98.41078625 107.22192383 97.71044922 C115.13459935 94.10980947 123.04683519 90.510612 131 87 C131 84.69 131 82.38 131 80 C128.11542939 78.76343566 125.21614349 77.56600874 122.3125 76.375 C121.49587891 76.024375 120.67925781 75.67375 119.83789062 75.3125 C115.12608354 73.36070902 115.12608354 73.36070902 110.13671875 73.48828125 Z M136 82 C136 82.66 136 83.32 136 84 C136.66 83.67 137.32 83.34 138 83 C137.34 82.67 136.68 82.34 136 82 Z M33 92 C32.09121094 93.28970703 32.09121094 93.28970703 31.1640625 94.60546875 C26.96699177 100.53522848 22.72933814 106.40305476 18.25 112.125 C12.74214561 119.18276462 7.66184352 126.53117077 2.5625 133.88671875 C0.21811187 137.26641645 -2.15559373 140.62157569 -4.5625 143.95703125 C-5.1208252 144.73401367 -5.67915039 145.51099609 -6.25439453 146.31152344 C-7.31235681 147.78100403 -8.37561045 149.24669357 -9.44482422 150.70800781 C-12.27832949 154.46917269 -12.27832949 154.46917269 -13 159 C-11.88592773 159.20568604 -10.77185547 159.41137207 -9.62402344 159.62329102 C-4.33229607 160.60094519 0.9589301 161.5812944 6.25 162.5625 C7.21273834 162.74096466 8.17547668 162.91942932 9.16738892 163.103302 C19.64918055 165.04817142 30.1272082 167.00897726 40.58984375 169.0546875 C41.41116791 169.21527145 42.23249207 169.37585541 43.07870483 169.54130554 C46.94507034 170.29868668 50.81043385 171.06087844 54.67480469 171.82836914 C61.09963511 173.09804961 67.48089358 174.33202412 74 175 C72.91156427 169.75387498 71.80697317 164.51134566 70.69335938 159.27050781 C70.20527917 156.9682816 69.7198433 154.66549398 69.23632812 152.36230469 C66.22620577 138.05880962 63.13412234 123.7692311 59.4375 109.625 C59.18121826 108.5736084 58.92493652 107.5222168 58.66088867 106.43896484 C57.94418418 103.80742976 57.24132677 101.42800769 56 99 C53.22708487 97.2892298 53.22708487 97.2892298 50 97 C48.99839844 96.65839844 47.99679688 96.31679687 46.96484375 95.96484375 C45.96582031 95.62582031 44.96679688 95.28679687 43.9375 94.9375 C42.93589844 94.59589844 41.93429688 94.25429687 40.90234375 93.90234375 C38.27423338 93.08525964 35.70702776 92.48180127 33 92 Z M1.5 97.75 C0.78697885 100.95859519 0.70236976 103.72606733 1 107 C3.11046663 109.77833582 5.17850924 110.73680207 8.5625 111.4375 C11.26411155 111.8079257 11.26411155 111.8079257 14 111 C19.02635414 106.56786019 23.24895762 101.14499141 26 95 C19.01054595 91.27229117 6.98694129 91.3485685 1.5 97.75 Z M61 99 C62.47966129 106.71164651 64.20295366 114.35656288 66 122 C76.00484497 122.7151229 76.00484497 122.7151229 85 119 C86.74931617 115.50136765 85.82138 111.72442536 85 108 C83.08673891 104.55613005 81.02816219 101.5346636 78 99 C76.07435138 98.59011951 76.07435138 98.59011951 73.98828125 98.70703125 C73.23095703 98.71669922 72.47363281 98.72636719 71.69335938 98.73632812 C70.90767578 98.76146484 70.12199219 98.78660156 69.3125 98.8125 C68.51521484 98.82603516 67.71792969 98.83957031 66.89648438 98.85351562 C64.93070033 98.88882911 62.96526418 98.94263553 61 99 Z M1 166 C0.03583976 168.81061806 -0.92140841 171.62329598 -1.875 174.4375 C-2.27912109 175.6121582 -2.27912109 175.6121582 -2.69140625 176.81054688 C-4.49652868 182.15987311 -5.85966359 187.46992196 -7 193 C-4.62561751 193.3383344 -2.25065041 193.67079002 0.125 194 C0.79015625 194.09539062 1.4553125 194.19078125 2.140625 194.2890625 C6.12628981 194.83611453 9.97859938 195.10022182 14 195 C16.15294651 189.71169451 18.27933894 184.44876003 20 179 C20.99 179 21.98 179 23 179 C24.65 185.93 26.3 192.86 28 200 C38.395 199.505 38.395 199.505 49 199 C49.33 191.08 49.66 183.16 50 175 C40.93311261 172.83911116 31.86707453 170.98527729 22.6875 169.375 C21.47771484 169.1584375 20.26792969 168.941875 19.02148438 168.71875 C13.02542843 167.65657278 7.05212328 166.6766349 1 166 Z M21 189 C20.49384702 190.26839526 19.99530901 191.53983102 19.5 192.8125 C19.2215625 193.52019531 18.943125 194.22789062 18.65625 194.95703125 C17.8470838 197.11841216 17.8470838 197.11841216 18 200 C13.71 199.67 9.42 199.34 5 199 C4.00137301 206.36487404 3.89668969 213.57313685 4 221 C11.32673452 218.9033432 18.4772579 216.45115246 25.625 213.8125 C26.62917969 213.44447266 27.63335937 213.07644531 28.66796875 212.69726562 C31.11294675 211.80077369 33.55692081 210.90165072 36 210 C36 208.02 36 206.04 36 204 C30.555 203.505 30.555 203.505 25 203 C23.515 196.07 23.515 196.07 22 189 C21.67 189 21.34 189 21 189 Z M41 212 C41 216.95 41 221.9 41 227 C45.19000879 228.08811297 45.19000879 228.08811297 48.75 226.5625 C49.8225 226.046875 50.895 225.53125 52 225 C51.01 224.34 50.02 223.68 49 223 C48.26953125 219.9609375 48.26953125 219.9609375 47.8125 216.375 C47.65394531 215.18648437 47.49539062 213.99796875 47.33203125 212.7734375 C47.22246094 211.85820312 47.11289063 210.94296875 47 210 C44.89181489 210 42.95740073 211.21703971 41 212 Z " fill="#000000" transform="translate(40,7)"/>
<path d="M0 0 C0.99 0.33 1.98 0.66 3 1 C3.80859375 3.6953125 3.80859375 3.6953125 4.4375 7.125 C6.32608645 15.98682873 9.3590438 21.83638507 17 27 C26.67217899 32.13017602 36.2419577 33.52633163 47.1171875 31.38671875 C54.68019458 29.00887581 59.49509162 24.76180603 63.18359375 17.75 C63.45300781 17.1725 63.72242188 16.595 64 16 C65.98 16.495 65.98 16.495 68 17 C67.66095811 22.42467019 64.573007 26.15394661 61 30 C53.80751113 36.1089043 44.00242991 38.67842907 34.671875 38.3515625 C21.93913336 36.67620176 10.99554919 31.10057209 3 21 C-0.69989121 14.64990581 -1.89912118 8.29614727 -1 1 C-0.67 0.67 -0.34 0.34 0 0 Z " fill="#000000" transform="translate(72,42)"/>
<path d="M0 0 C3 0.75 3 0.75 6 1.75 C6.66 1.42 7.32 1.09 8 0.75 C11.5 0.5625 11.5 0.5625 15 0.75 C17 2.75 17 2.75 17.5 5.8125 C16.65819093 12.44174643 12.76031591 17.43510898 7.8125 21.8125 C5 23.75 5 23.75 2 23.75 C-2.92740743 17.39170788 -6.25712675 10.84949261 -6 2.75 C-3.9358823 -0.00419256 -3.55742928 -0.29645244 0 0 Z M-1 4.75 C-0.54996653 10.37541841 0.68441485 13.36487125 4 17.75 C5.13199353 16.8419838 6.25532363 15.92316174 7.375 15 C8.00148438 14.48953125 8.62796875 13.9790625 9.2734375 13.453125 C11.11849882 11.63310976 12.06197059 10.15666131 13 7.75 C13 6.76 13 5.77 13 4.75 C9.45771257 5.43007307 9.45771257 5.43007307 6 6.4375 C3.23012648 6.87029274 1.48890983 5.92531853 -1 4.75 Z " fill="#000000" transform="translate(81,151.25)"/>
<path d="M0 0 C2.18547321 1.84253991 3.37655108 3.56482663 5 6 C4.67 6.99 4.34 7.98 4 9 C0.73045798 8.43628586 -0.82575883 7.50037734 -3 5 C-3.66 5.66 -4.32 6.32 -5 7 C-7.125 6.625 -7.125 6.625 -9 6 C-8.6875 4.125 -8.6875 4.125 -8 2 C-4.73201451 -0.178657 -3.79094962 -0.72208564 0 0 Z " fill="#000000" transform="translate(116,34)"/>
<path d="M0 0 C0.99 0.66 1.98 1.32 3 2 C3 3.32 3 4.64 3 6 C1.783125 5.79375 0.56625 5.5875 -0.6875 5.375 C-4.34806773 4.90036156 -6.67611512 5.23418616 -10 7 C-10.33 5.68 -10.66 4.36 -11 3 C-7.48991846 -0.36967828 -4.74988885 -0.43180808 0 0 Z " fill="#000000" transform="translate(102,31)"/>
<path d="M0 0 C0 0.66 0 1.32 0 2 C-1.65 2 -3.3 2 -5 2 C-2 0 -2 0 0 0 Z " fill="#000000" transform="translate(192,248)"/>
</svg>
